<svg width="" height="" viewBox="0 0 235 277" fill="none" xmlns="http://www.w3.org/2000/svg">
<path d="M8.58093 84.3815C13.4496 85.6102 14.4246 81.4867 14.3035 79.2713C19.1722 80.5 19.8292 76.6604 19.5492 74.587C16.8315 70.3918 9.29229 69.6601 5.86239 69.8187C4.29547 79.5825 7.02187 83.5955 8.58093 84.3815Z" fill="#ECF0F0"/>
<path d="M12.5028 111.834C17.3715 113.062 18.3465 108.939 18.2254 106.723C23.094 107.952 23.7511 104.113 23.471 102.039C20.7534 97.844 13.2142 97.1123 9.78427 97.2708C8.21735 107.035 10.9437 111.048 12.5028 111.834Z" fill="#ECF0F0"/>
<path d="M16.6675 106.261L96.0824 191.558" stroke="#ECF0F0" stroke-width="2" stroke-linecap="round"/>
<path d="M9.80444 76.8481L89.2194 162.146" stroke="#ECF0F0" stroke-width="2" stroke-linecap="round"/>
<path d="M30.1505 90.2643C35.0192 91.493 35.9942 87.3695 35.8731 85.1541C40.7417 86.3828 41.3988 82.5432 41.1187 80.4698C38.4011 76.2746 30.8619 75.5429 27.432 75.7015C25.8651 85.4653 28.5914 89.4783 30.1505 90.2643Z" fill="#ECF0F0"/>
<path d="M35.2954 84.6919L114.71 169.989" stroke="#ECF0F0" stroke-width="2" stroke-linecap="round"/>
<path d="M60.3281 96.457L184.924 248L125.5 246.738L25.4912 125.099L60.3281 96.457Z" fill="#ECF0F0"/>
<path fill-rule="evenodd" clip-rule="evenodd" d="M131.081 56.7164L76.4267 61.685V115.573C72.0574 112.498 62.3478 108.194 58.464 115.573C53.6092 124.797 64.2897 145.187 80.796 141.303C87.5927 151.013 104.196 170.238 116.236 169.461V178.685C106.203 179.494 85.0682 183.928 80.796 195.191L132.075 192.444L132.5 250.5L210 253C203 185.5 160.045 179.494 150.012 178.685V169.461C162.052 170.238 178.655 151.013 185.452 141.303C201.958 145.187 212.639 124.797 207.784 115.573C203.9 108.194 194.191 112.498 189.821 115.573V61.685L135.169 56.7166V56.3447L133.124 56.5307L131.079 56.3447L131.081 56.7164Z" fill="#ECF0F0"/>
<path d="M76.4268 61.685L135.17 56.3447L137 251L45 252C66.5 179.685 106.203 179.494 116.236 178.685V169.461C104.196 170.238 87.5928 151.013 80.7961 141.303C64.2899 145.187 53.6094 124.797 58.4642 115.573C62.348 108.194 72.0575 112.498 76.4268 115.573V61.685Z" fill="#ECF0F0"/>
<ellipse cx="133.506" cy="120.428" rx="7.28216" ry="15.5353" fill="#ECF0F0"/>
<path d="M115.3 92.3362C111.651 86.9405 107.145 90.088 105.348 92.3362C101.699 86.9405 97.7453 90.088 96.2247 92.3362C95.2295 98.7436 101.892 105.966 105.348 108.776C115.3 100.683 116.13 94.4438 115.3 92.3362Z" fill="#ECF0F0"/>
<path d="M171.604 92.4851C167.772 86.8197 163.04 90.1245 161.154 92.4851C157.322 86.8197 153.171 90.1245 151.574 92.4851C150.529 99.2129 157.525 106.796 161.154 109.747C171.604 101.249 172.475 94.6982 171.604 92.4851Z" fill="#ECF0F0"/>
<path d="M64.5684 119.942C67.0359 119.766 70.9624 119.926 74.2779 121.049M80.1036 126.253C79.3961 123.6 77.0507 121.988 74.2779 121.049M74.2779 121.049C72.4978 123.269 69.1318 129.166 69.9086 134.992" stroke="#ECF0F0" stroke-width="2" stroke-linecap="round"/>
<path d="M202.929 120.475C201.079 120.339 198.134 120.462 195.647 121.328M191.278 125.341C191.809 123.295 193.568 122.052 195.647 121.328M195.647 121.328C196.982 123.04 199.507 127.587 198.924 132.079" stroke="#ECF0F0" stroke-width="2" stroke-linecap="round"/>
<path d="M109.718 144.702C118.375 150.563 140.981 158.77 162.149 144.702" stroke="#ECF0F0" stroke-width="2" stroke-linecap="round"/>
<path d="M220.678 79.1844C225.51 85.7839 211.325 109.91 207.299 113.631C192.32 108.196 192.292 116.064 190.48 128.195C185.648 122.372 187.259 107.478 190.48 100.037C184.682 96.9319 188.467 82.7429 189.272 76.7578C182.024 76.3696 175.783 68.5085 173.569 64.6264C146.511 80.931 110.756 67.2144 96.2606 58.3181C101.576 68.7996 84.7852 77.2431 75.7257 80.1546C82.9733 85.2013 81.1614 94.5508 76.9336 98.5947C86.5971 107.135 79.3495 113.795 76.9336 119.456C75.7257 112.825 69.8396 106.277 57.0027 98.5947C50.7041 94.8255 50.3745 83.8243 54.7295 79.5927C54.4899 79.4619 54.2411 79.3259 53.9828 79.1844C43.353 73.3616 51.5669 63.4943 57.0027 59.2886C24.1468 55.0183 32.0386 30.0114 40.0915 18.0418C58.4522 -0.980264 94.0984 10.1159 109.626 18.0418C110.425 10.405 117.765 5.23021 123.439 2.99905C185.692 -6.61962 196.53 20.7815 194.17 36.0725C195.496 36.2027 196.882 36.3391 198.331 36.4818C249.548 41.5285 234.57 67.053 220.678 79.1844Z" fill="#ECF0F0"/>
<path d="M119.212 36.4818C111.475 29.3337 109.094 23.1393 109.626 18.0418M109.626 18.0418C110.425 10.405 117.765 5.23021 123.439 2.99905C186.252 -6.70608 196.721 21.2771 194.104 36.4818C174.173 34.3791 147.115 31.4352 198.331 36.4818C249.548 41.5285 234.57 67.053 220.678 79.1844C225.51 85.7839 211.325 109.91 207.299 113.631C192.32 108.196 192.292 116.064 190.48 128.195C185.648 122.372 187.259 107.478 190.48 100.037C184.682 96.9319 188.467 82.7428 189.272 76.7578C182.024 76.3696 175.783 68.5085 173.569 64.6264C146.511 80.931 110.756 67.2144 96.2606 58.3181C101.576 68.7996 84.7852 77.2431 75.7257 80.1546C82.9733 85.2013 81.1614 94.5508 76.9336 98.5947C86.5971 107.135 79.3495 113.795 76.9336 119.456C75.7257 112.825 69.8396 106.277 57.0027 98.5947C50.4896 94.6971 50.359 83.0666 55.1908 79.1844C59.2172 81.6106 64.6127 85.0072 53.9828 79.1844C43.353 73.3616 51.5669 63.4943 57.0027 59.2886C24.1468 55.0183 32.0386 30.0114 40.0915 18.0418C58.4522 -0.980264 94.0984 10.1159 109.626 18.0418Z" stroke="#ECF0F0" stroke-width="2" stroke-linecap="round"/>
<path d="M76.7053 168.626L84.3888 161.207L171.347 251.268L156.5 251.268L76.7053 168.626Z" fill="#ECF0F0"/>
</svg>
