<svg width="214" height="253" viewBox="0 0 214 253" fill="none" xmlns="http://www.w3.org/2000/svg">
<path d="M137.743 13.8929L137.036 6.32244C136.753 3.29427 129.823 3.73597 126.393 4.33534C129.919 63.7739 136.545 182.79 134.845 183.345C133.145 183.9 130.865 190.365 129.938 193.528L130.861 234.183L131.079 243.784L156.549 245.625C156.045 231.182 155.023 213.457 153.312 209.302C151.046 203.801 148.767 205.585 147.911 207.165L138.308 24.6302L144.684 22.5492L144.738 15.5104L137.743 13.8929Z" fill="#ECF0F0"/>
<rect x="65" y="150" width="41" height="60" fill="#ECF0F0"/>
<path d="M39.3147 191.21C44.8051 182.735 57.9678 183.618 63.8629 185.119C78.0112 213.931 98.7936 195.712 107.416 183L111.5 195.5L115.5 198.5C143.585 193.628 160.736 226.961 161 250H5C6.26701 196.188 28.4044 188.385 39.3147 191.21Z" fill="#ECF0F0"/>
<path d="M39.3147 191.21C44.8051 182.735 57.9678 183.618 63.8629 185.119C66.3983 190.282 69.1467 193.935 72.0001 196.38L73.5001 250H5C6.26701 196.188 28.4044 188.385 39.3147 191.21Z" fill="#ECF0F0"/>
<path d="M126.685 191.21C121.195 182.735 108.032 183.618 102.137 185.119C99.6017 190.282 96.8533 193.935 93.9999 196.38L92.4999 250H161C159.733 196.188 137.596 188.385 126.685 191.21Z" fill="#ECF0F0"/>
<path d="M22.4518 125.659C24.6543 115.41 30.5072 121.389 33.1583 125.659C29.1816 125.659 30.0993 133.472 33.1583 138.159C35.6055 141.909 32.1386 142.221 30.0993 141.909C26.6325 140.763 20.2494 135.909 22.4518 125.659Z" fill="#ECF0F0"/>
<path d="M147.548 125.659C145.346 115.41 139.493 121.389 136.842 125.659C140.818 125.659 139.901 133.472 136.842 138.159C134.395 141.909 137.861 142.221 139.901 141.909C143.368 140.763 149.751 135.909 147.548 125.659Z" fill="#ECF0F0"/>
<path d="M87.6427 14.0002H81.7733C78.5756 14.0002 75.3686 14.6544 72.6996 16.4155C51.3813 30.4823 41.2504 66.0699 42.4999 74.0002C66.995 89.1326 114.395 80.3054 127.5 74.0002C127.635 42.8352 108.329 24.3826 97.5901 16.8684C94.6901 14.8392 91.1822 14.0002 87.6427 14.0002Z" fill="#ECF0F0"/>
<path d="M36.3344 44.3348C33.6196 40.6085 23.8849 36.6984 19.3568 35.2091L20.9595 46.9837C22.2995 47.3536 24.077 48.8094 24.7982 49.4911L21.9389 50.0688C25.2025 66.1091 36.9757 70.3584 42.4543 70.4781C45.6991 65.589 44.8525 59.1704 44.0236 56.5723C43.7447 57.6535 42.326 58.5165 41.6514 58.8129L43.077 53.8494C42.8875 52.1413 40.1515 48.54 38.8072 46.9528L36.4479 50.518L36.3344 44.3348Z" fill="#ECF0F0"/>
<path fill-rule="evenodd" clip-rule="evenodd" d="M24.4285 41.4335C24.5623 41.3562 24.7355 41.4035 24.8153 41.539C27.8906 46.7619 32.6896 54.7811 37.0916 61.8635C39.2927 65.4049 41.3935 68.7103 43.1293 71.3143C44.8728 73.9297 46.2299 75.8089 46.9494 76.5235L46.556 76.9207C45.7861 76.1561 44.395 74.2214 42.6619 71.6215C40.921 69.01 38.8166 65.6987 36.6141 62.1551C32.2089 55.0676 27.4075 47.0443 24.3306 41.8188C24.2508 41.6832 24.2947 41.5107 24.4285 41.4335Z" fill="#ECF0F0"/>
<path d="M25.218 54.9853C21.5141 52.2401 11.0557 51.4165 6.28955 51.3478L11.3364 62.106C12.7257 62.0588 14.8569 62.9171 15.7488 63.3522L13.1926 64.7578C21.0988 79.0907 33.6038 79.6292 38.868 78.1068C40.5042 72.4717 37.7789 66.599 36.2117 64.3671C36.2685 65.4822 35.1724 66.7297 34.6172 67.214L34.4949 62.0514C33.8039 60.4778 30.117 57.8582 28.3599 56.7451L27.1733 60.8523L25.218 54.9853Z" fill="#ECF0F0"/>
<path fill-rule="evenodd" clip-rule="evenodd" d="M12.9889 55.7728C13.0936 55.6591 13.273 55.6525 13.3896 55.758C17.8847 59.8238 24.86 66.0432 31.1767 71.4873C34.3352 74.2094 37.3275 76.7364 39.7619 78.7029C42.2071 80.6781 44.0636 82.0662 44.9637 82.5332L44.7068 83.0297C43.7437 82.5301 41.8382 81.0992 39.4075 79.1357C36.9661 77.1636 33.9686 74.6321 30.8081 71.9082C24.4869 66.4602 17.508 60.2376 13.0106 56.1697C12.894 56.0642 12.8843 55.8865 12.9889 55.7728Z" fill="#ECF0F0"/>
<path d="M149 82.5002C149 94.9266 123.108 105 85 105C46.8923 105 16 94.9266 16 82.5002C16 70.0738 46.8923 62.5002 85 62.5002C123.108 62.5002 149 70.0738 149 82.5002Z" fill="#ECF0F0"/>
<path d="M136.644 121.817V97.1202L126.179 84.0002L74.9999 97.1202L31.9999 156.16C77.5507 224.692 118.895 184.715 133.874 156.16C134.366 165.112 141.465 162.205 144.954 159.633C149.673 149.986 157.696 128.917 152.032 121.817C146.369 114.716 139.414 118.858 136.644 121.817Z" fill="#ECF0F0"/>
<path d="M32.3366 121.817V97.1202L42.8009 84.0002L136.98 156.16C91.4295 224.692 50.085 184.715 35.1065 156.16C34.6141 165.112 27.5147 162.205 24.0266 159.633C19.3074 149.986 11.2847 128.917 16.9478 121.817C22.6109 114.716 29.5666 118.858 32.3366 121.817Z" fill="#ECF0F0"/>
<path d="M73 125C73 130.523 68.299 135 62.5 135C56.701 135 52 130.523 52 125C52 119.477 56.701 115 62.5 115C68.299 115 73 119.477 73 125Z" fill="#ECF0F0"/>
<ellipse cx="106.5" cy="124" rx="10.5" ry="10" fill="#ECF0F0"/>
<path d="M100.5 170.5C83 194.5 72.5 173.5 72.5 170.5L87 166L100.5 170.5Z" fill="#ECF0F0"/>
<path d="M74.5 156C71.3107 163.362 61.4498 167.156 47.5 168.614C63.1262 175.411 81.673 172.819 84.243 170.674C93.9066 175.411 128 168.614 119.5 168.614C111 168.614 105.157 166.56 98 156C90.9427 168.589 76.3468 163.04 74.5 156Z" fill="#ECF0F0"/>
<path d="M19.5392 121.897L19.5 122C26.3 119.6 30 123 31 125C31.6667 132 32.4 141.2 34 122C35.6 102.8 47.6667 101.667 55.5 100C61.8333 102.334 66.1 115.5 76.5 113.5C86.9 111.5 87.5 103 123 111.5C120.128 106.663 112 92.5002 125 100C138 107.5 135.5 122.167 133.5 128.5L141.5 122C144.3 116.8 139 92.8335 133.5 84.5002C115.1 76.1002 104.833 85.0002 98.5 87.5002C98.9 83.1002 107.667 79.3336 113.5 80.0002C90.5 70.5002 51.5 77.5002 41 83.0002C32.6297 87.3846 23.2335 112.157 19.5392 121.897Z" fill="#ECF0F0"/>
</svg>
