<svg width="" height="" viewBox="0 0 243 267" fill="none" xmlns="http://www.w3.org/2000/svg">
<path d="M28.5702 93.237L33.2474 56.1447C33.4764 54.3285 33.989 52.5697 34.7967 50.9269C42.6854 34.8805 58.4175 6.18032 66.9024 2.57334C72.8275 0.0545464 69.1305 13.4618 63.7493 27.6565C66.6332 24.3332 73.3935 17.3883 77.3632 16.196C81.3329 15.0036 81.7596 18.244 81.4768 20.0132L61.3824 46.2197C65.8239 42.3374 75.8135 34.343 80.24 33.4239C85.7732 32.2751 88.6859 34.2111 79.3982 43.5817C71.9681 51.0782 66.4235 55.4968 64.58 56.769C64.7596 57.2519 64.9243 57.7758 65.0715 58.3435C69.2787 55.0214 78.6751 48.8093 82.6032 50.5385C87.5133 52.6999 85.3545 59.5501 74.7446 61.7331C72.4639 62.9535 67.4588 66.3307 65.6837 70.0763C65.6573 70.4104 65.631 70.7404 65.6048 71.0665C64.2782 87.5571 63.1539 93.9404 62.7513 95.0724C61.8336 99.7084 59.7272 107.912 57.1687 112.376L65.8222 171.069C59.0324 178.09 45.4075 177.407 39.4438 176.188L36.3429 143.438C30.9481 137.42 28.9133 107.463 28.5702 93.237Z" fill="#ECF0F0"/>
<path d="M47.5073 88.4748C50.2388 83.1302 53.4458 64.1782 54.7079 55.3702L54.7452 54.8756M63.7493 27.6565C69.1305 13.4618 72.8275 0.054547 66.9024 2.57334C58.4175 6.18032 42.6854 34.8805 34.7967 50.9269C33.989 52.5697 33.4764 54.3285 33.2474 56.1447L28.5702 93.237C28.9133 107.463 30.9481 137.42 36.3429 143.438L39.4438 176.188C45.4075 177.407 59.0324 178.09 65.8222 171.069L57.1687 112.376M63.7493 27.6565C61.0096 34.8834 57.8334 42.3144 55.2682 47.9518L54.7452 54.8756M63.7493 27.6565C66.6332 24.3332 73.3935 17.3883 77.3632 16.196C81.3329 15.0036 81.7596 18.244 81.4768 20.0132L61.3824 46.2197M54.7452 54.8756L57.0497 51.8703M57.0497 51.8703L61.3824 46.2197M57.0497 51.8703C59.2499 51.162 62.7165 51.7581 64.58 56.769M65.6837 70.0763C66.0916 64.9122 65.7887 61.1085 65.0715 58.3435M65.6837 70.0763C65.6573 70.4104 65.631 70.7404 65.6048 71.0665C64.2782 87.5571 63.1539 93.9404 62.7513 95.0724C61.8336 99.7084 59.7272 107.912 57.1687 112.376M65.6837 70.0763C67.4588 66.3307 72.4639 62.9535 74.7446 61.7331C85.3545 59.5501 87.5133 52.6999 82.6032 50.5385C78.6751 48.8093 69.2787 55.0214 65.0715 58.3435M61.3824 46.2197C65.8239 42.3374 75.8135 34.343 80.24 33.4239C85.7732 32.2751 88.6859 34.2111 79.3982 43.5817C71.9681 51.0782 66.4235 55.4968 64.58 56.769M64.58 56.769C64.7596 57.2519 64.9243 57.7758 65.0715 58.3435M57.1687 112.376C54.8239 116.048 49.5329 123.534 47.1268 124.101" stroke="#ECF0F0"/>
<path d="M213.741 93.237L209.064 56.1447C208.835 54.3285 208.322 52.5697 207.514 50.9269C199.626 34.8805 183.894 6.18032 175.409 2.57334C169.484 0.0545464 173.181 13.4618 178.562 27.6565C175.678 24.3332 168.918 17.3883 164.948 16.196C160.978 15.0036 160.551 18.244 160.834 20.0132L180.929 46.2197C176.487 42.3374 166.498 34.343 162.071 33.4239C156.538 32.2751 153.625 34.2111 162.913 43.5817C170.343 51.0782 175.887 55.4968 177.731 56.769C177.551 57.2519 177.387 57.7758 177.24 58.3435C173.032 55.0214 163.636 48.8093 159.708 50.5385C154.798 52.6999 156.956 59.5501 167.566 61.7331C169.847 62.9535 174.852 66.3307 176.627 70.0763C176.654 70.4104 176.68 70.7404 176.706 71.0665C178.033 87.5571 179.157 93.9404 179.56 95.0724C180.477 99.7084 182.584 107.912 185.142 112.376L176.489 171.069C183.279 178.09 196.903 177.407 202.867 176.188L205.968 143.438C211.363 137.42 213.398 107.463 213.741 93.237Z" fill="#ECF0F0"/>
<path d="M194.804 88.4748C192.072 83.1302 188.865 64.1782 187.603 55.3702L187.566 54.8756M178.562 27.6565C173.181 13.4618 169.484 0.054547 175.409 2.57334C183.894 6.18032 199.626 34.8805 207.514 50.9269C208.322 52.5697 208.835 54.3285 209.064 56.1447L213.741 93.237C213.398 107.463 211.363 137.42 205.968 143.438L202.867 176.188C196.903 177.407 183.279 178.09 176.489 171.069L185.142 112.376M178.562 27.6565C181.301 34.8834 184.478 42.3144 187.043 47.9518L187.566 54.8756M178.562 27.6565C175.678 24.3332 168.918 17.3883 164.948 16.196C160.978 15.0036 160.551 18.244 160.834 20.0132L180.929 46.2197M187.566 54.8756L185.261 51.8703M185.261 51.8703L180.929 46.2197M185.261 51.8703C183.061 51.162 179.594 51.7581 177.731 56.769M176.627 70.0763C176.219 64.9122 176.522 61.1085 177.24 58.3435M176.627 70.0763C176.654 70.4104 176.68 70.7404 176.706 71.0665C178.033 87.5571 179.157 93.9404 179.56 95.0724C180.477 99.7084 182.584 107.912 185.142 112.376M176.627 70.0763C174.852 66.3307 169.847 62.9535 167.566 61.7331C156.956 59.5501 154.798 52.6999 159.708 50.5385C163.636 48.8093 173.032 55.0214 177.24 58.3435M180.929 46.2197C176.487 42.3374 166.498 34.343 162.071 33.4239C156.538 32.2751 153.625 34.2111 162.913 43.5817C170.343 51.0782 175.887 55.4968 177.731 56.769M177.731 56.769C177.551 57.2519 177.387 57.7758 177.24 58.3435M185.142 112.376C187.487 116.048 192.778 123.534 195.184 124.101" stroke="#ECF0F0"/>
<circle cx="121" cy="67.9998" r="62" fill="#ECF0F0"/>
<g filter="url(#filter0_f_305_1083)">
<circle cx="121" cy="67.9998" r="57" fill="#ECF0F0"/>
</g>
<path d="M172.329 85.0085C172.815 85.1695 173.079 85.6939 172.91 86.1767C170.626 92.6968 167.134 98.7312 162.614 103.962C158.093 109.193 152.628 113.523 146.508 116.727C146.055 116.964 145.498 116.779 145.268 116.322V116.322C145.038 115.865 145.223 115.309 145.676 115.071C151.58 111.977 156.85 107.798 161.212 102.751C165.574 97.7039 168.944 91.8831 171.151 85.5939C171.32 85.1112 171.843 84.8476 172.329 85.0085V85.0085Z" fill="#ECF0F0"/>
<path d="M140.382 118.48C140.566 118.958 140.327 119.495 139.847 119.67C137.321 120.591 134.732 121.326 132.099 121.868C131.598 121.971 131.114 121.64 131.019 121.137V121.137C130.924 120.634 131.255 120.151 131.756 120.047C134.279 119.526 136.761 118.822 139.183 117.94C139.663 117.765 140.199 118.003 140.382 118.48V118.48Z" fill="#ECF0F0"/>
<path d="M33.0847 57.4352L28.5702 93.237C28.9133 107.463 30.9481 137.42 36.3429 143.438L39.4438 176.188C45.4075 177.407 59.0324 178.09 65.8222 171.069L57.1687 112.376C59.7272 107.912 61.8336 99.7084 62.7513 95.0724C63.1539 93.9404 64.2782 87.5571 65.6048 71.0665C65.631 70.7404 65.6573 70.4104 65.6837 70.0763C66.0917 64.9122 65.7887 61.1085 65.0715 58.3435C64.9243 57.7758 64.7596 57.2519 64.58 56.769C62.7165 51.7581 59.2499 51.162 57.0497 51.8703L54.7452 54.8756L55.2682 47.9518C57.8334 42.3144 61.0096 34.8834 63.7493 27.6565C69.1305 13.4618 72.8275 0.0545464 66.9024 2.57334C58.6195 6.09445 43.4304 33.5282 35.3732 49.7598C34.1763 52.1712 33.4215 54.7643 33.0847 57.4352Z" fill="#ECF0F0"/>
<path d="M47.5073 88.4748C50.2388 83.1302 53.4458 64.1782 54.7079 55.3702L54.7452 54.8756M54.7452 54.8756L55.2682 47.9518C57.8334 42.3144 61.0096 34.8834 63.7493 27.6565C69.1305 13.4618 72.8275 0.054547 66.9024 2.57334C58.6195 6.09445 43.4304 33.5282 35.3732 49.7598C34.1763 52.1712 33.4215 54.7643 33.0847 57.4352L28.5702 93.237C28.9133 107.463 30.9481 137.42 36.3429 143.438L39.4438 176.188C45.4075 177.407 59.0324 178.09 65.8222 171.069L57.1687 112.376M54.7452 54.8756L57.0497 51.8703C59.2499 51.162 62.7165 51.7581 64.58 56.769C64.7596 57.2519 64.9243 57.7758 65.0715 58.3435C65.7887 61.1085 66.0916 64.9122 65.6837 70.0763C65.6573 70.4104 65.631 70.7404 65.6048 71.0665C64.2782 87.5571 63.1539 93.9404 62.7513 95.0724C61.8336 99.7084 59.7272 107.912 57.1687 112.376M57.1687 112.376C54.8239 116.048 49.5329 123.534 47.1268 124.101" stroke="#ECF0F0"/>
<path d="M209.226 57.4352L213.741 93.237C213.398 107.463 211.363 137.42 205.968 143.438L202.867 176.188C196.903 177.407 183.279 178.09 176.489 171.069L185.142 112.376C182.584 107.912 180.477 99.7084 179.56 95.0724C179.157 93.9404 178.033 87.5571 176.706 71.0665C176.68 70.7404 176.654 70.4104 176.627 70.0763C176.219 64.9122 176.522 61.1085 177.24 58.3435C177.387 57.7758 177.551 57.2519 177.731 56.769C179.594 51.7581 183.061 51.162 185.261 51.8703L187.566 54.8756L187.043 47.9518C184.478 42.3144 181.301 34.8834 178.562 27.6565C173.181 13.4618 169.484 0.0545464 175.409 2.57334C183.692 6.09445 198.881 33.5282 206.938 49.7598C208.135 52.1712 208.89 54.7643 209.226 57.4352Z" fill="#ECF0F0"/>
<path d="M194.804 88.4748C192.072 83.1302 188.865 64.1782 187.603 55.3702L187.566 54.8756M187.566 54.8756L187.043 47.9518C184.478 42.3144 181.301 34.8834 178.562 27.6565C173.181 13.4618 169.484 0.054547 175.409 2.57334C183.692 6.09445 198.881 33.5282 206.938 49.7598C208.135 52.1712 208.89 54.7643 209.226 57.4352L213.741 93.237C213.398 107.463 211.363 137.42 205.968 143.438L202.867 176.188C196.903 177.407 183.279 178.09 176.489 171.069L185.142 112.376M187.566 54.8756L185.261 51.8703C183.061 51.162 179.594 51.7581 177.731 56.769C177.551 57.2519 177.387 57.7758 177.24 58.3435C176.522 61.1085 176.219 64.9122 176.627 70.0763C176.654 70.4104 176.68 70.7404 176.706 71.0665C178.033 87.5571 179.157 93.9404 179.56 95.0724C180.477 99.7084 182.584 107.912 185.142 112.376M185.142 112.376C187.487 116.048 192.778 123.534 195.184 124.101" stroke="#ECF0F0"/>
<path d="M60 13.4302L57 11.9302C62 3.43017 69 -1.06983 69 1.93017C69 4.33017 63 10.5968 60 13.4302Z" fill="#ECF0F0"/>
<path d="M59.5 65.4998L53.6962 65.7667C54.4286 55.9323 55.1636 50.6323 59.8495 52.2269C62.1215 53.0001 60.9404 61.6328 59.5 65.4998Z" fill="#ECF0F0"/>
<path d="M183.119 65.7671L188.972 65.7672C188.24 55.9328 187.505 50.6327 182.819 52.2274C180.547 53.0006 181.679 61.9001 183.119 65.7671Z" fill="#ECF0F0"/>
<path d="M182 13.4302L185 11.9302C180 3.43017 173 -1.06983 173 1.93017C173 4.33017 179 10.5968 182 13.4302Z" fill="#ECF0F0"/>
<path d="M50 34.4999C48.7197 34.0918 45.6244 32.8708 45.451 31.6178M47.9323 36.1735C46.652 35.7654 44.5398 34.7276 44.3664 33.4746" stroke="#ECF0F0" stroke-linecap="round" stroke-linejoin="round"/>
<path d="M56.3158 74.2395C55.2199 75.0171 52.3831 76.7562 51.2777 76.1414M55.4852 77.0341C54.3893 77.8117 52.2899 78.8755 51.1845 78.2607" stroke="#ECF0F0" stroke-linecap="round" stroke-linejoin="round"/>
<path d="M186.013 73.4751C187.109 74.2527 189.946 75.9918 191.051 75.377M186.844 76.2697C187.94 77.0473 190.039 78.1111 191.144 77.4963" stroke="#ECF0F0" stroke-linecap="round" stroke-linejoin="round"/>
<path d="M194.753 35.7298C195.99 36.255 199.133 37.347 200.081 36.51M196.162 38.2821C197.399 38.8072 199.677 39.3973 200.626 38.5603" stroke="#ECF0F0" stroke-linecap="round" stroke-linejoin="round"/>
<path fill-rule="evenodd" clip-rule="evenodd" d="M83.7092 165.337C83.7185 165.271 83.723 165.205 83.7229 165.139C83.7141 161.622 70.3425 158.804 53.8567 158.845C37.3708 158.887 24.0135 161.771 24.0223 165.288C24.0233 165.723 24.2293 166.148 24.6206 166.558C28.1349 192.685 35.9564 243.501 41.083 251.7C46.3177 260.073 74.6389 263.345 86.5834 264.725C89.6138 265.075 91.5901 265.304 91.8678 265.463C93.2212 266.237 88.6262 178.025 83.7092 165.337Z" fill="#ECF0F0"/>
<path fill-rule="evenodd" clip-rule="evenodd" d="M156.826 164.631C156.817 164.565 156.814 164.499 156.815 164.433C156.867 160.916 170.273 158.264 186.757 158.51C203.241 158.756 216.561 161.806 216.509 165.322C216.502 165.758 216.291 166.18 215.895 166.585C212.057 192.666 203.605 243.381 198.378 251.516C193.039 259.823 164.68 262.744 152.719 263.976C149.685 264.288 147.706 264.492 147.426 264.648C146.063 265.405 151.752 177.257 156.826 164.631Z" fill="#ECF0F0"/>
<path fill-rule="evenodd" clip-rule="evenodd" d="M89.5389 208C69.2905 209.39 52.1438 209.558 31 208.169C31.3844 210.339 31.7728 212.48 32.1635 214.576C52.0776 215.777 69.056 215.758 89.9999 214.394C89.8524 212.269 89.6986 210.133 89.5389 208Z" fill="#ECF0F0"/>
<path fill-rule="evenodd" clip-rule="evenodd" d="M150.461 208C170.709 209.39 187.856 209.558 209 208.169C208.616 210.339 208.227 212.48 207.837 214.576C187.922 215.777 170.944 215.758 150 214.394C150.148 212.269 150.301 210.133 150.461 208Z" fill="#ECF0F0"/>
<defs>
<filter id="filter0_f_305_1083" x="60" y="6.99976" width="122" height="122" filterUnits="userSpaceOnUse" color-interpolation-filters="sRGB">
<feFlood flood-opacity="0" result="BackgroundImageFix"/>
<feBlend mode="normal" in="SourceGraphic" in2="BackgroundImageFix" result="shape"/>
<feGaussianBlur stdDeviation="2" result="effect1_foregroundBlur_305_1083"/>
</filter>
</defs>
</svg>
