<svg width="0" height="0" viewBox="0 0 141 229" fill="none" xmlns="http://www.w3.org/2000/svg">
<path d="M70.0182 0C91.2164 0 108.346 6.00374 121.408 18.0112C134.469 30.0187 141 46.1002 141 66.2556C141 88.7697 134.041 105.494 120.123 116.43C106.205 127.151 87.3622 132.511 63.5945 132.511L62.631 163.066H37.2574L35.9727 112.249H45.287C66.4852 112.249 83.0797 109.032 95.0706 102.6C107.061 96.1671 113.057 84.0524 113.057 66.2556C113.057 53.3905 109.203 43.2055 101.494 35.7008C93.7859 28.1962 83.4009 24.4438 70.3394 24.4438C57.0638 24.4438 46.5718 28.0889 38.8633 35.3792C31.369 42.4551 27.6219 52.2111 27.6219 64.6475H0C0 51.7823 2.89066 40.5253 8.67198 30.8764C14.4533 21.0131 22.59 13.4012 33.082 8.04072C43.7882 2.68024 56.1002 0 70.0182 0ZM49.7836 229C44.2164 229 39.5057 227.07 35.6515 223.211C31.7973 219.351 29.8702 214.634 29.8702 209.059C29.8702 203.484 31.7973 198.767 35.6515 194.907C39.5057 191.048 44.2164 189.118 49.7836 189.118C55.1367 189.118 59.6333 191.048 63.2733 194.907C67.1276 198.767 69.0547 203.484 69.0547 209.059C69.0547 214.634 67.1276 219.351 63.2733 223.211C59.6333 227.07 55.1367 229 49.7836 229Z" fill="#EEE6E4"/>
</svg>
