<svg width="" height="" viewBox="0 0 234 234" fill="none" xmlns="http://www.w3.org/2000/svg">
<path d="M109.761 15.3865C112.643 9.26071 121.357 9.26069 124.239 15.3865L137.627 43.844C139.499 47.8226 144.231 49.5449 148.222 47.7003L176.771 34.5065C182.916 31.6664 189.591 37.2675 187.861 43.8126L179.825 74.2182C178.702 78.4692 181.22 82.8301 185.463 83.9827L215.813 92.2261C222.346 94.0006 223.859 102.582 218.327 106.484L192.627 124.611C189.033 127.145 188.159 132.104 190.669 135.714L208.619 161.538C212.483 167.096 208.127 174.643 201.38 174.076L170.041 171.442C165.66 171.074 161.802 174.31 161.404 178.689L158.556 210.01C157.943 216.752 149.755 219.732 144.952 214.961L122.638 192.799C119.518 189.701 114.482 189.701 111.362 192.799L89.0484 214.961C84.2451 219.732 76.0569 216.752 75.4438 210.01L72.5958 178.689C72.1977 174.31 68.3402 171.074 63.9587 171.442L32.6195 174.076C25.8735 174.643 21.5166 167.096 25.3806 161.538L43.3314 135.714C45.841 132.104 44.9666 127.145 41.3735 124.611L15.6732 106.484C10.1409 102.582 11.6541 94.0006 18.1872 92.2261L48.5373 83.9827C52.7805 82.8301 55.2983 78.4692 54.1748 74.2182L46.1388 43.8126C44.4089 37.2675 51.0841 31.6664 57.2294 34.5064L85.7776 47.7002C89.769 49.5449 94.5009 47.8226 96.3727 43.844L109.761 15.3865Z" fill="#ECF0F0"/>
<path d="M150.048 95.5269L151.977 100.558L160.091 97.4491L161.883 102.126L153.769 105.236L155.86 110.692L165.037 107.176L166.897 112.03L151.661 117.869L142.129 92.9944L157.366 87.1558L159.226 92.0102L150.048 95.5269Z" fill="#131313"/>
<path d="M139.089 94.1591L140.949 99.0134L134.358 101.539L142.03 121.559L135.971 123.881L128.299 103.861L121.708 106.386L119.848 101.532L139.089 94.1591Z" fill="#131313"/>
<path d="M114.729 132.304C112.391 133.201 110.033 133.481 107.656 133.146C105.303 132.801 103.176 131.882 101.276 130.389C99.391 128.863 97.9822 126.883 97.0498 124.45C96.1175 122.017 95.8471 119.615 96.2387 117.243C96.6539 114.863 97.6218 112.758 99.1425 110.929C100.687 109.091 102.628 107.724 104.967 106.828C107.305 105.932 109.651 105.656 112.005 106C114.382 106.335 116.497 107.259 118.349 108.77C120.225 110.273 121.63 112.241 122.562 114.674C123.494 117.107 123.769 119.521 123.387 121.916C122.995 124.288 122.039 126.388 120.518 128.217C118.998 130.046 117.068 131.408 114.729 132.304ZM112.611 126.777C114.596 126.016 115.925 124.749 116.599 122.973C117.297 121.189 117.229 119.21 116.397 117.036C115.555 114.84 114.282 113.322 112.58 112.485C110.892 111.615 109.056 111.56 107.071 112.32C105.063 113.089 103.706 114.355 102.999 116.115C102.316 117.867 102.4 119.853 103.251 122.074C104.093 124.271 105.357 125.804 107.046 126.675C108.748 127.512 110.603 127.546 112.611 126.777Z" fill="#131313"/>
<path d="M90.8065 112.661L91.5154 140.916L83.9327 143.822L65.5779 122.329L72.0268 119.857L85.3886 136.275L84.393 115.119L90.8065 112.661Z" fill="#131313"/>
</svg>
