<svg width="" height="" viewBox="0 0 247 250" fill="none" xmlns="http://www.w3.org/2000/svg">
<path fill-rule="evenodd" clip-rule="evenodd" d="M13.0411 128.851C10.7078 130.851 5.24112 135.451 2.04112 137.851C-1.45888 123.685 -2.95888 89.3512 19.0411 65.3512C14.8744 50.5178 9.44102 16.8512 21.041 0.851161C31.7077 -1.81551 57.441 0.251162 75.041 29.8512C77.2077 32.3511 83.641 36.1511 92.041 31.3511C99.8744 29.0177 116.841 25.0511 122.041 27.8511C127.241 25.0511 146.208 29.3688 154.041 31.7021C162.441 36.5021 168.874 32.7022 171.041 30.2022C188.641 0.602236 214.374 -1.46443 225.041 1.20224C236.641 17.2022 231.208 50.8689 227.041 65.7022C249.041 89.7022 247.541 124.036 244.041 138.202C240.841 135.802 235.374 131.202 233.041 129.202L191.541 101.702L123.041 109.702L123.037 109.351L54.541 101.351L13.0411 128.851Z" fill="#D9D9D9"/>
<path fill-rule="evenodd" clip-rule="evenodd" d="M121.675 105.977C113.691 95.7661 56.5036 22.6303 13.5655 115.584C8.89879 121.918 3.76546 143.384 20.5655 178.584C23.3988 172.084 30.6654 158.784 37.0654 157.584L68.5654 191.584C79.0654 212.751 104.565 253.784 122.565 248.584L122.565 248.669C140.565 253.869 166.065 212.836 176.565 191.669L208.065 157.669C214.465 158.869 221.732 172.169 224.565 178.669C241.365 143.469 236.232 122.002 231.565 115.669C188.627 22.7148 131.44 95.8506 123.456 106.062C122.979 106.671 122.678 107.056 122.565 107.169V107.084C122.453 106.972 122.152 106.587 121.675 105.977Z" fill="#D9D9D9"/>
</svg>
