<svg width="" height="" viewBox="0 0 298 300" fill="none" xmlns="http://www.w3.org/2000/svg">
<path d="M58.4778 50.885L72.5706 110.405C96.0259 185.141 133.121 244.394 163.815 282.999L157.314 287.499C94.961 201.493 59.5959 101.431 48.6502 55.8051L58.4778 50.885Z" fill="#ECF0F0"/>
<path d="M64.7628 160.396C76.6697 163.449 92.2024 154.739 98.4804 150.003L87.8255 138.949C87.5066 138.313 87.7151 136.683 91.1003 135.262C94.4856 133.84 94.3144 101.446 93.8057 85.4266C102.531 61.3929 93.701 58.3937 88.195 59.8984C90.1558 49.6303 84.0947 51.2535 80.8191 53.3486C79.1752 42.4271 72.8523 48.3466 69.8963 52.6715C69.0123 32.3563 60.1526 43.6655 55.8333 51.8595C51.5707 46.0727 48.325 53.4561 47.235 57.8711C43.1356 51.0467 28.1304 76.995 38.9324 108.801C47.574 134.246 63.1143 140.509 69.8043 140.46L64.7628 160.396Z" fill="#ECF0F0"/>
<path d="M69.8042 140.46L64.7627 160.396C69.5585 160.843 79.8051 161.136 82.4253 158.732C82.4531 158.706 82.4804 158.681 82.5073 158.657L82.8353 159.551C83.7802 158.289 85.0189 156.369 82.5073 158.657L76.2728 141.668C61.5668 129.343 35.0739 99.4742 46.7503 78.6064C48.0687 75.7842 51.3072 72.1599 53.7142 80.2413C56.745 75.4237 64.0092 68.1907 68.82 77.8C69.2425 71.7845 72.5185 61.336 82.2426 67.6661C83.0594 62.9326 85.1572 53.4382 87.0139 53.328C89.3349 53.1903 84.8622 49.9509 80.819 53.3487C79.1751 42.4271 72.8522 48.3466 69.8963 52.6715C69.0122 32.3563 60.1526 43.6655 55.8333 51.8595C51.5706 46.0728 48.3249 53.4561 47.2349 57.8712C43.1356 51.0467 28.1304 76.9951 38.9324 108.801C47.574 134.246 63.1143 140.509 69.8042 140.46Z" fill="#ECF0F0"/>
<path d="M83.7756 129.377C85.1399 127.328 87.5121 120.473 86.0866 109.442C84.3047 95.6537 76.9246 80.9122 79.1068 76.4056" stroke="#ECF0F0" stroke-width="4" stroke-linecap="round"/>
<path d="M53.8633 105.09C63.8349 114.778 71.0789 131.978 75.9945 132.931" stroke="#ECF0F0" stroke-width="4" stroke-linecap="round"/>
<path d="M51.7856 98.6187C47.7881 85.3024 52.6642 92.5456 48.8335 89.3211" stroke="#ECF0F0" stroke-width="4" stroke-linecap="round"/>
<path d="M84.3622 143.231C92.628 154.41 89.7508 146.166 90.037 151.165" stroke="#ECF0F0" stroke-width="4" stroke-linecap="round"/>
<path d="M78.9979 129.379C77.216 115.59 66.9647 94.4335 69.1469 89.9269" stroke="#ECF0F0" stroke-width="4" stroke-linecap="round"/>
<path fill-rule="evenodd" clip-rule="evenodd" d="M126.45 240.424C126.762 240.148 127.227 240.087 127.608 240.304C131.641 242.606 136.562 248.123 140.279 253.83C142.15 256.703 143.749 259.674 144.798 262.384C145.831 265.052 146.391 267.624 145.993 269.621C145.922 269.975 145.674 270.247 145.359 270.364C144.943 269.745 144.529 269.126 144.116 268.507C144.178 267.132 143.775 265.284 142.933 263.106C141.948 260.56 140.421 257.714 138.603 254.922C135.367 249.954 131.313 245.319 127.919 242.884C127.427 242.064 126.937 241.244 126.45 240.424Z" fill="#ECF0F0"/>
<path fill-rule="evenodd" clip-rule="evenodd" d="M107.667 195.626C102.084 192.076 93.0748 182.439 93.1709 166.502C93.1725 166.241 93.2736 166.004 93.4381 165.827C94.0577 167.233 94.6811 168.63 95.3081 170.02C96.1943 180.376 101.187 187.487 105.547 191.466C106.251 192.862 106.958 194.248 107.667 195.626Z" fill="#ECF0F0"/>
<rect width="3.58289" height="21.9045" rx="1.79144" transform="matrix(-0.235994 -0.971754 -0.971754 0.235994 89.7527 139.017)" fill="#ECF0F0"/>
<g clip-path="url(#clip0_304_894)">
<path d="M224.252 63.7284C174.461 51.4465 140.715 110.011 130.066 140.829C137.985 147.86 196.344 155.597 224.534 158.587C191.535 99.0075 210.596 70.5232 224.252 63.7284Z" fill="#ECF0F0"/>
<ellipse cx="177.381" cy="142.89" rx="74.3109" ry="18.6225" transform="rotate(7.49932 177.381 142.89)" fill="#ECF0F0"/>
<path d="M60.4262 273C32.346 261.176 42.4521 245.495 52.5922 238.633C69.9082 229.659 93.3503 252.638 84.9262 259.5C78.187 264.99 64.9502 273 60.4262 273Z" fill="#ECF0F0"/>
<path d="M35.8303 261.654L42.7858 256.683C46.7698 254.654 55.3551 250.745 57.824 251.338L67.3403 247.307C68.5676 248.774 70.7903 252.438 69.8628 255.363L52.3456 261.732C51.4936 263.106 49.54 264.913 48.3954 265.858C48.1425 266.139 46.5457 267.402 42.185 270.23L41.923 270.4C40.5563 271.284 39.4596 271.768 38.5882 271.982C38.4092 272.026 38.2398 272.059 38.0795 272.081C36.4161 272.314 35.7339 271.445 35.6012 270.731L36.0881 269.645L34.2521 270.823C33.0766 272.374 30.2671 271.92 28.6782 273.756C25.5573 277.362 20.117 280.188 19.9289 278.174C19.705 275.777 25.7142 271.049 29.8059 267.032C31.727 265.146 33.6402 263.22 35.8303 261.654Z" fill="#ECF0F0"/>
<path d="M44.296 262.629C43.2263 264.182 38.4658 267.897 36.2192 269.561L36.0881 269.645M36.0881 269.645L34.2521 270.823C33.0766 272.374 30.2671 271.92 28.6782 273.756C25.5573 277.362 20.117 280.188 19.9289 278.174C19.705 275.777 25.7142 271.049 29.8059 267.032C31.727 265.146 33.6402 263.22 35.8303 261.654L42.7858 256.683C46.7698 254.654 55.3551 250.745 57.824 251.338L67.3403 247.307C68.5676 248.774 70.7903 252.438 69.8628 255.363L52.3456 261.732M36.0881 269.645L35.6012 270.731C35.7339 271.445 36.4161 272.314 38.0795 272.081C38.2398 272.059 38.4092 272.026 38.5882 271.982C39.4596 271.768 40.5563 271.284 41.923 270.4C42.0114 270.343 42.0987 270.286 42.185 270.23C46.5457 267.402 48.1425 266.139 48.3954 265.858C49.54 264.913 51.4936 263.106 52.3456 261.732M52.3456 261.732C53.0107 260.536 54.2904 257.956 54.0879 257.206" stroke="#ECF0F0"/>
<path d="M50.4258 240.149L92.3242 212.323L127.915 210.079L184.681 202L257.666 230.724C290.403 257.353 173.058 294.545 169.814 294.904C166.57 295.263 228.532 268.125 213.965 273.361C175.971 273.511 151.343 316.357 149.54 315.998C147.738 315.639 160.503 253.015 124.311 249.574L61.2383 273.361C66.9366 262.682 68.7294 256.554 50.4258 240.149Z" fill="#ECF0F0"/>
<path d="M222.426 237C227.676 275.69 214.711 271.024 237.926 296H82.1602C98.6067 280.493 106.177 264.815 112.426 237C132.926 226.833 174.426 206.5 176.426 206.5C178.426 206.5 207.926 226.833 222.426 237Z" fill="#ECF0F0"/>
<ellipse cx="86.4258" cy="217.5" rx="5" ry="5.5" fill="#ECF0F0"/>
<ellipse cx="93.4258" cy="225.5" rx="5" ry="5.5" fill="#ECF0F0"/>
<ellipse cx="101.426" cy="231.5" rx="5" ry="5.5" fill="#ECF0F0"/>
<ellipse cx="109.426" cy="237.5" rx="5" ry="5.5" fill="#ECF0F0"/>
<ellipse cx="119.426" cy="238.5" rx="5" ry="5.5" fill="#ECF0F0"/>
<ellipse cx="129.426" cy="240.5" rx="5" ry="5.5" fill="#ECF0F0"/>
<ellipse cx="139.426" cy="240.5" rx="5" ry="5.5" fill="#ECF0F0"/>
<ellipse cx="148.426" cy="238.5" rx="5" ry="5.5" fill="#ECF0F0"/>
<ellipse cx="157.426" cy="236.5" rx="5" ry="5.5" fill="#ECF0F0"/>
<ellipse cx="164.426" cy="232.5" rx="5" ry="5.5" fill="#ECF0F0"/>
<ellipse cx="172.426" cy="227.5" rx="5" ry="5.5" fill="#ECF0F0"/>
<ellipse cx="184.426" cy="223.5" rx="5" ry="5.5" fill="#ECF0F0"/>
<ellipse cx="190.426" cy="230.5" rx="5" ry="5.5" fill="#ECF0F0"/>
<ellipse cx="197.426" cy="236.5" rx="5" ry="5.5" fill="#ECF0F0"/>
<ellipse cx="205.426" cy="243.5" rx="5" ry="5.5" fill="#ECF0F0"/>
<ellipse cx="213.426" cy="247.5" rx="5" ry="5.5" fill="#ECF0F0"/>
<ellipse cx="223.426" cy="251.5" rx="5" ry="5.5" fill="#ECF0F0"/>
<ellipse cx="232.426" cy="254.5" rx="5" ry="5.5" fill="#ECF0F0"/>
<ellipse cx="241.426" cy="254.5" rx="5" ry="5.5" fill="#ECF0F0"/>
<ellipse cx="250.426" cy="253.5" rx="5" ry="5.5" fill="#ECF0F0"/>
<ellipse cx="260.426" cy="251.5" rx="5" ry="5.5" fill="#ECF0F0"/>
<ellipse cx="268.426" cy="247.5" rx="5" ry="5.5" fill="#ECF0F0"/>
<ellipse cx="276.426" cy="242.5" rx="5" ry="5.5" fill="#ECF0F0"/>
<path d="M219.279 159.208C195.501 159.37 183.555 147.101 180.554 140.947C207.996 127.384 223.019 148.126 227.1 160.193C225.6 160.788 221.878 163.157 220.204 164.268L219.279 159.208Z" fill="#ECF0F0"/>
<path d="M236.657 205.901C236.738 201.06 234.178 190.134 232.889 185.275L214.804 180.938L218.358 200.396C224.424 204.248 236.576 210.742 236.657 205.901Z" fill="#ECF0F0"/>
<path d="M278.737 237.497L221.732 194.022C194.443 184.798 148.969 177.877 185.382 223.987C221.796 270.098 262.791 252.206 278.737 237.497Z" fill="#ECF0F0"/>
<path d="M82.5632 211.867L149.237 185.52C178.006 184.058 223.65 189.756 176.076 224.236C128.502 258.715 93.9117 230.357 82.5632 211.867Z" fill="#ECF0F0"/>
<path d="M130.359 185.506L125.334 142.589L158.488 141.358L180.214 141.411C193.134 155.78 211.627 159.266 219.258 159.212L220.182 164.271C236.336 152.312 240.883 165.316 241.137 173.312C242.364 185.313 228.776 187.099 221.828 186.491C221.148 219.753 197.027 218.77 185.052 214.122C177.936 235.047 162.791 222.88 156.108 214.181C127.833 219.668 127.161 197.351 130.359 185.506Z" fill="#ECF0F0"/>
<circle cx="151.917" cy="169.101" r="9.49458" transform="rotate(-10.3527 151.917 169.101)" fill="#ECF0F0"/>
<circle cx="186.313" cy="172.469" r="9.49458" transform="rotate(-10.3527 186.313 172.469)" fill="#ECF0F0"/>
<ellipse cx="145.632" cy="185.333" rx="8.30775" ry="5.34413" transform="rotate(-10.3527 145.632 185.333)" fill="#ECF0F0"/>
<ellipse cx="186.318" cy="190.227" rx="5.79402" ry="7.91215" transform="rotate(-78.7408 186.318 190.227)" fill="#ECF0F0"/>
<path d="M152.093 188.019C158.03 185.376 163.172 178.444 166.008 173.495C166.674 172.332 168.27 172.04 169.19 173.015C177.176 181.484 173.392 186.144 170.258 187.467C165.152 189.782 159.064 191.534 154.684 192.586C151.903 193.254 145.743 193.724 146.327 190.924C146.843 188.445 149.781 189.049 152.093 188.019Z" fill="#ECF0F0"/>
<circle cx="159.606" cy="182.576" r="1.97804" transform="rotate(-10.3527 159.606 182.576)" fill="#ECF0F0"/>
<path d="M128.065 166.22C139.671 166.352 156.949 149.683 161.695 141.175C146.181 122.293 127.579 134.941 113.887 137.04C102.934 138.719 104.877 180.912 107.218 201.798L129.397 193.323C129.226 192.389 129.958 187.59 130.381 185.502L128.065 166.22Z" fill="#ECF0F0"/>
<path d="M179.084 204.74C179.627 204.114 179.561 203.167 178.935 202.624C178.31 202.08 177.363 202.147 176.819 202.772L179.084 204.74ZM161.147 205.867C162.861 207.114 165.766 208.549 169.024 208.837C172.353 209.132 176.061 208.218 179.084 204.74L176.819 202.772C174.525 205.413 171.818 206.073 169.288 205.849C166.687 205.619 164.289 204.443 162.912 203.441L161.147 205.867Z" fill="#ECF0F0"/>
</g>
<defs>
<clipPath id="clip0_304_894">
<rect width="297.425" height="296.07" rx="24" fill="white"/>
</clipPath>
</defs>
</svg>
