<svg viewBox="0 0 300 300" fill="none" preserveAspectRatio="none" xmlns="http://www.w3.org/2000/svg">
<rect width="300" height="300" rx="24" fill="#292929"/>
<rect x="2.5752" width="297.425" height="296.07" rx="24" fill="#1B1D33"/>
<path d="M219.452 61.5153C219.452 61.5153 204.798 81.0543 209.197 84.1736C213.595 87.2929 187.714 77.0158 187.714 77.0158C187.714 77.0158 197.852 57.3379 194.869 56.1449C191.887 54.952 219.452 61.5153 219.452 61.5153Z" fill="#67452C"/>
<path d="M88.6807 140.44C72.345 174.848 86.9949 215.978 121.413 232.317C155.83 248.657 196.95 234.003 213.286 199.595C223.328 178.441 221.662 154.754 210.9 135.84C210.153 134.537 209.362 133.25 208.526 131.982C206.836 129.831 205.17 128.25 204.597 126.617C204.597 126.617 204.597 126.608 204.597 126.604C195.634 108.035 217.436 75.9285 217.436 75.9285C193.696 71.2564 187.993 61.9514 187.993 61.9514C178.606 84.5452 167.85 95.8763 159.482 101.563C130.771 97.9845 101.77 112.869 88.6807 140.44Z" fill="url(#paint0_linear_214_42)"/>
<path d="M208.565 132.027C208.549 132.007 208.539 132.003 208.526 131.984C209.364 133.247 210.155 134.533 210.9 135.842" fill="white"/>
<path d="M88.3364 173.199C97.9837 179.868 128.297 182 154.659 178.126C181.737 174.134 205.082 161.894 207.706 149.509C208.894 143.446 202.894 138.617 178.397 140.26C160.176 141.486 154.749 153.148 142.608 156.799C130.467 160.45 104.181 158.587 97.9075 159.291C91.6337 159.995 84.0985 166.804 88.3364 173.199Z" fill="#14A422"/>
<path d="M127.725 180.156C136.742 180.158 145.748 179.512 154.672 178.223C167.883 176.268 180.571 172.308 190.398 167.053C200.355 161.729 206.536 155.505 207.804 149.528C208.195 147.516 207.772 145.787 206.54 144.389C203.165 140.557 193.696 139.136 178.392 140.162C167.347 140.906 161.075 145.413 155.009 149.772C151.078 152.598 147.364 155.266 142.578 156.705C134.194 159.224 119.306 159.117 108.448 159.038C103.639 159.003 99.8432 158.976 97.8875 159.193C93.7396 159.658 89.3706 162.668 87.7181 166.192C86.5936 168.6 86.7754 171.04 88.2421 173.252L88.2695 173.28C92.9279 176.501 102.495 178.785 115.211 179.714C119.275 180.009 123.472 180.156 127.725 180.156ZM187.287 140.033C197.355 140.033 203.763 141.535 206.392 144.518C207.581 145.867 207.991 147.541 207.61 149.489C206.357 155.407 200.212 161.585 190.306 166.881C180.499 172.126 167.834 176.084 154.643 178.028C141.841 179.911 127.85 180.439 115.236 179.518C102.569 178.593 93.0433 176.325 88.4065 173.129C86.9886 170.978 86.8165 168.611 87.9077 166.284C89.527 162.815 93.8295 159.854 97.9148 159.396C99.849 159.179 103.643 159.201 108.446 159.242C119.324 159.318 134.22 159.428 142.633 156.895C147.45 155.446 151.177 152.769 155.122 149.933C161.165 145.589 167.413 141.099 178.404 140.36C181.625 140.142 184.585 140.033 187.287 140.033Z" fill="white"/>
<path d="M161.896 183.705L165.997 189.861L165.879 189.939L161.779 183.783L161.896 183.705Z" fill="black"/>
<path d="M141.867 182.605L141.983 182.684L138.107 188.431L137.99 188.352L141.867 182.605Z" fill="black"/>
<path d="M153.19 189.103C152.95 188.6 152.465 188.424 151.843 188.54V188.516C151.99 188.277 152.075 188.005 152.089 187.725C152.102 187.444 152.045 187.165 151.921 186.913C151.446 185.95 150.402 185.698 149.522 186.326C148.557 187.02 148.657 188.061 149.183 188.696C149.361 188.916 149.595 189.084 149.861 189.181C150.126 189.279 150.413 189.302 150.691 189.25L150.707 189.267C150.36 189.811 150.327 190.339 150.673 190.744C151.119 191.264 151.882 191.243 152.518 190.806C153.212 190.333 153.443 189.631 153.19 189.103ZM151.201 190.452C150.881 190.034 151.045 189.588 151.473 189.062C152.021 188.88 152.441 189.023 152.647 189.39C152.852 189.758 152.758 190.226 152.316 190.529C151.874 190.832 151.452 190.777 151.201 190.445V190.452ZM151.315 187.269C151.608 187.793 151.44 188.28 151.049 188.757C150.826 188.831 150.586 188.833 150.362 188.763C150.138 188.693 149.942 188.554 149.801 188.366C149.494 187.955 149.375 187.333 149.954 186.919C150.492 186.533 151.041 186.776 151.315 187.269Z" fill="black"/>
<path d="M165.806 177.568L166.291 177.885L171.214 179.094L171.732 178.669L166.78 177.404H166.763L168.349 174.842L167.66 174.144L165.806 177.568Z" fill="black"/>
<path d="M87.5364 180.486C92.6348 215.131 124.866 239.078 159.522 233.98C194.179 228.881 218.114 196.626 213.014 161.992C211.907 154.413 210.145 150.682 207.706 149.509C199.005 145.361 181.737 174.134 154.659 178.126C128.296 182 100.24 161.307 90.5755 166.413C87.5364 168.031 86.3102 172.19 87.5364 180.486Z" fill="#11B836"/>
<path d="M150.151 234.766C153.293 234.765 156.43 234.534 159.538 234.075C176.201 231.614 191.205 222.637 201.251 209.117C211.297 195.596 215.563 178.64 213.112 161.976C212.04 154.656 210.337 150.664 207.749 149.42C203.867 147.568 198.509 152.008 191.093 158.151C182.097 165.598 169.788 175.796 154.643 178.028C140.046 180.179 124.874 174.752 112.686 170.401C102.732 166.843 94.8702 164.033 90.5286 166.329C87.2489 168.076 86.2672 172.587 87.4387 180.506C89.6619 195.561 97.2146 209.319 108.723 219.277C120.232 229.236 134.932 234.733 150.151 234.77V234.766ZM205.854 149.203C206.476 149.196 207.092 149.33 207.655 149.595C210.178 150.809 211.846 154.752 212.908 162.003C217.993 196.538 194.034 228.783 159.499 233.88C156.432 234.332 153.336 234.559 150.235 234.56C119.359 234.56 92.2477 211.892 87.6225 180.471C86.4648 172.638 87.4153 168.199 90.6108 166.497C94.8761 164.24 102.703 167.037 112.61 170.579C122.916 174.261 135.354 178.707 147.791 178.707C150.09 178.712 152.387 178.55 154.663 178.222C169.862 175.98 182.199 165.76 191.206 158.299C197.249 153.306 202.199 149.203 205.854 149.203Z" fill="white"/>
<mask id="path-14-inside-1_214_42" fill="white">
<path d="M197.931 130L198.089 129.889C198.021 129.793 191.389 120.155 191.195 111.417C191.002 102.679 204.861 82.3141 205 82.1105L204.842 82C204.7 82.2056 190.807 102.625 191.002 111.421C191.197 120.217 197.863 129.903 197.931 130Z"/>
</mask>
<path d="M197.931 130L198.502 130.82L197.682 131.392L197.11 130.572L197.931 130ZM198.089 129.889L198.909 129.317L199.482 130.138L198.661 130.71L198.089 129.889ZM205 82.1105L205.572 81.2902L206.385 81.8569L205.826 82.6748L205 82.1105ZM204.842 82L204.017 81.434L204.587 80.6036L205.413 81.1797L204.842 82ZM197.359 129.18L197.517 129.069L198.661 130.71L198.502 130.82L197.359 129.18ZM197.269 130.462C197.215 130.385 195.509 127.904 193.788 124.327C192.076 120.769 190.297 116.022 190.196 111.439L192.195 111.395C192.287 115.55 193.921 119.99 195.59 123.46C196.419 125.183 197.245 126.642 197.867 127.675C198.178 128.192 198.437 128.6 198.62 128.882C198.711 129.022 198.783 129.131 198.833 129.205C198.884 129.281 198.91 129.318 198.909 129.317L197.269 130.462ZM190.196 111.439C190.142 109.038 191.042 105.966 192.325 102.804C193.62 99.6103 195.36 96.1995 197.099 93.0769C200.579 86.8296 204.097 81.659 204.174 81.5462L205.826 82.6748C205.764 82.7656 202.283 87.8793 198.847 94.05C197.128 97.1363 195.431 100.468 194.178 103.556C192.912 106.677 192.152 109.427 192.195 111.395L190.196 111.439ZM204.428 82.9308L204.27 82.8203L205.413 81.1797L205.572 81.2902L204.428 82.9308ZM205.666 82.566C205.666 82.5661 205.666 82.5661 205.666 82.5664C205.665 82.5668 205.665 82.5671 205.665 82.5677C205.664 82.5687 205.663 82.5702 205.662 82.572C205.659 82.5756 205.656 82.5805 205.652 82.5867C205.643 82.599 205.632 82.6162 205.617 82.6382C205.587 82.682 205.545 82.7447 205.491 82.8252C205.383 82.9861 205.228 83.2181 205.033 83.5135C204.643 84.1042 204.093 84.9478 203.437 85.9823C202.124 88.0522 200.391 90.8817 198.669 93.9752C196.946 97.072 195.245 100.416 193.989 103.517C192.72 106.651 191.958 109.416 192.002 111.399L190.002 111.443C189.949 109.028 190.85 105.942 192.135 102.767C193.434 99.5592 195.178 96.136 196.922 93.0028C200.41 86.7346 203.938 81.5499 204.017 81.434L205.666 82.566ZM192.002 111.399C192.095 115.583 193.737 120.05 195.415 123.539C196.249 125.272 197.078 126.739 197.704 127.777C198.016 128.296 198.277 128.707 198.46 128.99C198.552 129.131 198.624 129.241 198.674 129.315C198.725 129.391 198.751 129.429 198.751 129.428L197.11 130.572C197.057 130.495 195.342 128.002 193.613 124.406C191.892 120.829 190.105 116.054 190.002 111.443L192.002 111.399Z" fill="black" mask="url(#path-14-inside-1_214_42)"/>
<path d="M197.931 130L198.502 130.82L197.682 131.392L197.11 130.572L197.931 130ZM198.089 129.889L198.909 129.317L199.482 130.138L198.661 130.71L198.089 129.889ZM205 82.1105L205.572 81.2902L206.385 81.8569L205.826 82.6748L205 82.1105ZM204.842 82L204.017 81.434L204.587 80.6036L205.413 81.1797L204.842 82ZM197.359 129.18L197.517 129.069L198.661 130.71L198.502 130.82L197.359 129.18ZM197.269 130.462C197.215 130.385 195.509 127.904 193.788 124.327C192.076 120.769 190.297 116.022 190.196 111.439L192.195 111.395C192.287 115.55 193.921 119.99 195.59 123.46C196.419 125.183 197.245 126.642 197.867 127.675C198.178 128.192 198.437 128.6 198.62 128.882C198.711 129.022 198.783 129.131 198.833 129.205C198.884 129.281 198.91 129.318 198.909 129.317L197.269 130.462ZM190.196 111.439C190.142 109.038 191.042 105.966 192.325 102.804C193.62 99.6103 195.36 96.1995 197.099 93.0769C200.579 86.8296 204.097 81.659 204.174 81.5462L205.826 82.6748C205.764 82.7656 202.283 87.8793 198.847 94.05C197.128 97.1363 195.431 100.468 194.178 103.556C192.912 106.677 192.152 109.427 192.195 111.395L190.196 111.439ZM204.428 82.9308L204.27 82.8203L205.413 81.1797L205.572 81.2902L204.428 82.9308ZM205.666 82.566C205.666 82.5661 205.666 82.5661 205.666 82.5664C205.665 82.5668 205.665 82.5671 205.665 82.5677C205.664 82.5687 205.663 82.5702 205.662 82.572C205.659 82.5756 205.656 82.5805 205.652 82.5867C205.643 82.599 205.632 82.6162 205.617 82.6382C205.587 82.682 205.545 82.7447 205.491 82.8252C205.383 82.9861 205.228 83.2181 205.033 83.5135C204.643 84.1042 204.093 84.9478 203.437 85.9823C202.124 88.0522 200.391 90.8817 198.669 93.9752C196.946 97.072 195.245 100.416 193.989 103.517C192.72 106.651 191.958 109.416 192.002 111.399L190.002 111.443C189.949 109.028 190.85 105.942 192.135 102.767C193.434 99.5592 195.178 96.136 196.922 93.0028C200.41 86.7346 203.938 81.5499 204.017 81.434L205.666 82.566ZM192.002 111.399C192.095 115.583 193.737 120.05 195.415 123.539C196.249 125.272 197.078 126.739 197.704 127.777C198.016 128.296 198.277 128.707 198.46 128.99C198.552 129.131 198.624 129.241 198.674 129.315C198.725 129.391 198.751 129.429 198.751 129.428L197.11 130.572C197.057 130.495 195.342 128.002 193.613 124.406C191.892 120.829 190.105 116.054 190.002 111.443L192.002 111.399Z" fill="black" fill-opacity="0.2" mask="url(#path-14-inside-1_214_42)"/>
<path d="M211.08 74.5693L211.129 74.3737C210.986 74.3385 196.968 70.7694 192.746 66.332L192.603 66.467C196.858 70.9533 210.939 74.5341 211.08 74.5693Z" fill="black"/>
<path d="M205 82.5C196.5 91.6667 183.3 114.1 198.5 130.5" stroke="#C9E0CB" stroke-width="2" stroke-linecap="round"/>
<defs>
<linearGradient id="paint0_linear_214_42" x1="201.5" y1="228.5" x2="150.984" y2="61.9514" gradientUnits="userSpaceOnUse">
<stop stop-color="white"/>
<stop offset="0.758712" stop-color="#676161"/>
</linearGradient>
</defs>
</svg>
