<svg viewBox="0 0 138 183" fill="none" preserveAspectRatio="none" xmlns="http://www.w3.org/2000/svg">
<path d="M137.452 5.51528C137.452 5.51528 122.798 25.0543 127.197 28.1736C131.595 31.2929 105.714 21.0158 105.714 21.0158C105.714 21.0158 115.852 1.33789 112.869 0.144937C109.887 -1.04802 137.452 5.51528 137.452 5.51528Z" fill="#67452C"/>
<path d="M6.68071 84.4401C-9.65496 118.848 4.99496 159.978 39.4127 176.317C73.8305 192.657 114.95 178.003 131.286 143.595C141.328 122.441 139.662 98.7536 128.9 79.8403C128.153 78.5366 127.362 77.2504 126.526 75.9818C124.836 73.8306 123.17 72.2504 122.597 70.6174C122.597 70.6174 122.597 70.6076 122.597 70.6037C113.634 52.0347 135.436 19.9285 135.436 19.9285C111.696 15.2564 105.993 5.95142 105.993 5.95142C96.6061 28.5452 85.8499 39.8763 77.4816 45.5634C48.7705 41.9845 19.77 56.8691 6.68071 84.4401Z" fill="url(#paint0_linear_214_45)"/>
<path d="M126.565 76.0267C126.549 76.0072 126.539 76.0032 126.526 75.9836C127.364 77.247 128.155 78.5332 128.9 79.8422" fill="white"/>
<path d="M6.33645 117.199C15.9837 123.868 46.2966 126 72.659 122.126C99.7371 118.134 123.082 105.894 125.706 93.5085C126.894 87.446 120.894 82.6174 96.3968 84.2602C78.1759 85.4864 72.7489 97.148 60.6082 100.799C48.4674 104.45 22.1812 102.587 15.9075 103.291C9.63369 103.995 2.09852 110.804 6.33645 117.199Z" fill="#14A422"/>
<path d="M45.7251 124.156C54.7421 124.158 63.7477 123.512 72.6722 122.223C85.8827 120.268 98.5711 116.308 108.398 111.053C118.355 105.729 124.536 99.5045 125.804 93.528C126.195 91.5156 125.772 89.7868 124.54 88.3885C121.165 84.5574 111.696 83.1357 96.3925 84.1624C85.3469 84.9055 79.075 89.4133 73.0085 93.7724C69.0776 96.5984 65.3639 99.266 60.5784 100.705C52.1945 103.224 37.306 103.117 26.4481 103.038C21.6391 103.003 17.8432 102.976 15.8875 103.193C11.7396 103.658 7.3706 106.668 5.71806 110.192C4.59356 112.6 4.77537 115.04 6.24212 117.252L6.26953 117.28C10.9279 120.501 20.495 122.785 33.2107 123.714C37.2746 124.009 41.4715 124.156 45.7251 124.156ZM105.287 84.0333C115.355 84.0333 121.763 85.5353 124.392 88.5176C125.581 89.8671 125.991 91.5411 125.61 93.4889C124.357 99.4068 118.212 105.585 108.306 110.881C98.4987 116.126 85.8338 120.084 72.6429 122.028C59.8411 123.911 45.8503 124.439 33.2362 123.518C20.5694 122.593 11.0433 120.325 6.40646 117.129C4.98861 114.978 4.81645 112.611 5.90771 110.284C7.527 106.815 11.8295 103.854 15.9148 103.396C17.849 103.179 21.643 103.201 26.4461 103.242C37.3235 103.318 52.2198 103.428 60.6331 100.895C65.4499 99.4459 69.1774 96.7686 73.122 93.9329C79.165 89.5893 85.4134 85.0991 96.4042 84.3599C99.6245 84.1421 102.585 84.0333 105.287 84.0333V84.0333Z" fill="white"/>
<path d="M79.896 127.705L83.9966 133.861L83.8794 133.939L79.7788 127.783L79.896 127.705Z" fill="black"/>
<path d="M59.8666 126.605L59.9834 126.684L56.1066 132.431L55.9898 132.352L59.8666 126.605Z" fill="black"/>
<path d="M71.1904 133.103C70.9498 132.6 70.4648 132.424 69.8429 132.54V132.516C69.9905 132.277 70.0751 132.005 70.0888 131.725C70.1025 131.444 70.0448 131.165 69.9212 130.913C69.446 129.95 68.4016 129.698 67.5216 130.326C66.5575 131.02 66.6572 132.061 67.1833 132.696C67.3611 132.916 67.5952 133.084 67.8607 133.181C68.1262 133.279 68.4132 133.302 68.6911 133.25L68.7066 133.267C68.3605 133.811 68.3273 134.339 68.6734 134.744C69.1193 135.264 69.8821 135.243 70.5176 134.806C71.2119 134.333 71.4427 133.631 71.1904 133.103ZM69.2015 134.452C68.8808 134.034 69.0451 133.588 69.4733 133.062C70.0209 132.88 70.4414 133.023 70.6467 133.39C70.8521 133.758 70.7582 134.226 70.3163 134.529C69.8743 134.832 69.4518 134.777 69.2015 134.445V134.452ZM69.3149 131.269C69.6083 131.793 69.44 132.28 69.0489 132.757C68.8262 132.831 68.5858 132.833 68.3618 132.763C68.1378 132.693 67.9417 132.554 67.8012 132.366C67.4942 131.955 67.3749 131.333 67.9538 130.919C68.4916 130.533 69.0411 130.776 69.3149 131.269Z" fill="black"/>
<path d="M83.8063 121.568L84.2913 121.885L89.2137 123.094L89.7319 122.669L84.7802 121.404H84.7626L86.3487 118.842L85.6603 118.144L83.8063 121.568Z" fill="black"/>
<path d="M5.53641 124.486C10.6348 159.131 42.8661 183.078 77.5225 177.98C112.179 172.881 136.114 140.626 131.014 105.992C129.907 98.4133 128.145 94.682 125.706 93.5086C117.005 89.3606 99.7369 118.134 72.6588 122.126C46.2964 126 18.2404 105.307 8.57552 110.413C5.53642 112.031 4.31021 116.19 5.53641 124.486Z" fill="#11B836"/>
<path d="M68.151 178.766C71.2927 178.765 74.4301 178.534 77.5382 178.075C94.2013 175.614 109.205 166.637 119.251 153.117C129.297 139.596 133.563 122.64 131.112 105.976C130.04 98.6558 128.337 94.6642 125.749 93.4204C121.867 91.5684 116.509 96.0078 109.093 102.151C100.097 109.598 87.7879 119.796 72.6432 122.028C58.0461 124.179 42.8741 118.752 30.6863 114.401C20.732 110.843 12.8702 108.033 8.5286 110.329C5.24895 112.076 4.26724 116.587 5.43869 124.506C7.66195 139.561 15.2146 153.319 26.7233 163.277C38.2319 173.236 52.9321 178.733 68.151 178.77V178.766ZM123.854 93.2034C124.476 93.1961 125.092 93.3298 125.655 93.5945C128.178 94.809 129.846 98.7516 130.908 106.003C135.993 140.538 112.034 172.783 77.4991 177.88C74.4318 178.332 71.3356 178.559 68.2351 178.56C37.3591 178.56 10.2477 155.892 5.62251 124.471C4.46475 116.638 5.41526 112.199 8.61082 110.497C12.8761 108.24 20.7026 111.037 30.61 114.579C40.9164 118.261 53.3545 122.707 65.7905 122.707C68.09 122.712 70.3869 122.55 72.6628 122.222C87.8622 119.98 100.199 109.76 109.206 102.299C115.249 97.3063 120.199 93.2034 123.854 93.2034Z" fill="white"/>
<mask id="path-12-inside-1_214_45" fill="white">
<path d="M115.931 74L116.089 73.8895C116.021 73.7925 109.389 64.1549 109.195 55.417C109.002 46.6792 122.861 26.3141 123 26.1105L122.842 26C122.7 26.2056 108.807 46.6249 109.002 55.4209C109.197 64.2169 115.863 73.903 115.931 74Z"/>
</mask>
<path d="M115.931 74L116.502 74.8203L115.682 75.392L115.11 74.5723L115.931 74ZM116.089 73.8895L116.909 73.3172L117.482 74.1376L116.661 74.7098L116.089 73.8895ZM123 26.1105L123.572 25.2902L124.385 25.8569L123.826 26.6748L123 26.1105ZM122.842 26L122.017 25.434L122.587 24.6036L123.413 25.1797L122.842 26ZM115.359 73.1797L115.517 73.0692L116.661 74.7098L116.502 74.8203L115.359 73.1797ZM115.269 74.4618C115.215 74.3848 113.509 71.9037 111.788 68.3272C110.076 64.7694 108.297 60.0215 108.196 55.4391L110.195 55.3949C110.287 59.5503 111.921 63.9902 113.59 67.46C114.419 69.1829 115.245 70.642 115.867 71.6753C116.178 72.1915 116.437 72.6004 116.62 72.8817C116.711 73.0224 116.783 73.131 116.833 73.2051C116.884 73.2805 116.91 73.3182 116.909 73.3172L115.269 74.4618ZM108.196 55.4391C108.142 53.0378 109.042 49.9658 110.325 46.8043C111.62 43.6103 113.36 40.1995 115.099 37.0769C118.579 30.8296 122.097 25.659 122.174 25.5462L123.826 26.6748C123.764 26.7656 120.283 31.8793 116.847 38.05C115.128 41.1363 113.431 44.4678 112.178 47.5561C110.912 50.677 110.152 53.4273 110.195 55.3949L108.196 55.4391ZM122.428 26.9308L122.27 26.8203L123.413 25.1797L123.572 25.2902L122.428 26.9308ZM123.666 26.566C123.666 26.5661 123.666 26.5661 123.666 26.5664C123.665 26.5668 123.665 26.5671 123.665 26.5677C123.664 26.5687 123.663 26.5702 123.662 26.572C123.659 26.5756 123.656 26.5805 123.652 26.5867C123.643 26.599 123.632 26.6162 123.617 26.6382C123.587 26.682 123.545 26.7447 123.491 26.8252C123.383 26.9861 123.228 27.2181 123.033 27.5135C122.643 28.1042 122.093 28.9478 121.437 29.9823C120.124 32.0522 118.391 34.8817 116.669 37.9752C114.946 41.072 113.245 44.4158 111.989 47.5173C110.72 50.651 109.958 53.416 110.002 55.3987L108.002 55.4431C107.949 53.0278 108.85 49.9418 110.135 46.7666C111.434 43.5592 113.178 40.136 114.922 37.0028C118.41 30.7346 121.938 25.5499 122.017 25.434L123.666 26.566ZM110.002 55.3987C110.095 59.5835 111.737 64.0502 113.415 67.5392C114.249 69.2718 115.078 70.7387 115.704 71.7774C116.016 72.2963 116.277 72.7074 116.46 72.9901C116.552 73.1314 116.624 73.2406 116.674 73.3151C116.725 73.3909 116.751 73.4287 116.751 73.4277L115.11 74.5723C115.057 74.4952 113.342 72.002 111.613 68.406C109.892 64.8287 108.105 60.0543 108.002 55.4431L110.002 55.3987Z" fill="black" mask="url(#path-12-inside-1_214_45)"/>
<path d="M115.931 74L116.502 74.8203L115.682 75.392L115.11 74.5723L115.931 74ZM116.089 73.8895L116.909 73.3172L117.482 74.1376L116.661 74.7098L116.089 73.8895ZM123 26.1105L123.572 25.2902L124.385 25.8569L123.826 26.6748L123 26.1105ZM122.842 26L122.017 25.434L122.587 24.6036L123.413 25.1797L122.842 26ZM115.359 73.1797L115.517 73.0692L116.661 74.7098L116.502 74.8203L115.359 73.1797ZM115.269 74.4618C115.215 74.3848 113.509 71.9037 111.788 68.3272C110.076 64.7694 108.297 60.0215 108.196 55.4391L110.195 55.3949C110.287 59.5503 111.921 63.9902 113.59 67.46C114.419 69.1829 115.245 70.642 115.867 71.6753C116.178 72.1915 116.437 72.6004 116.62 72.8817C116.711 73.0224 116.783 73.131 116.833 73.2051C116.884 73.2805 116.91 73.3182 116.909 73.3172L115.269 74.4618ZM108.196 55.4391C108.142 53.0378 109.042 49.9658 110.325 46.8043C111.62 43.6103 113.36 40.1995 115.099 37.0769C118.579 30.8296 122.097 25.659 122.174 25.5462L123.826 26.6748C123.764 26.7656 120.283 31.8793 116.847 38.05C115.128 41.1363 113.431 44.4678 112.178 47.5561C110.912 50.677 110.152 53.4273 110.195 55.3949L108.196 55.4391ZM122.428 26.9308L122.27 26.8203L123.413 25.1797L123.572 25.2902L122.428 26.9308ZM123.666 26.566C123.666 26.5661 123.666 26.5661 123.666 26.5664C123.665 26.5668 123.665 26.5671 123.665 26.5677C123.664 26.5687 123.663 26.5702 123.662 26.572C123.659 26.5756 123.656 26.5805 123.652 26.5867C123.643 26.599 123.632 26.6162 123.617 26.6382C123.587 26.682 123.545 26.7447 123.491 26.8252C123.383 26.9861 123.228 27.2181 123.033 27.5135C122.643 28.1042 122.093 28.9478 121.437 29.9823C120.124 32.0522 118.391 34.8817 116.669 37.9752C114.946 41.072 113.245 44.4158 111.989 47.5173C110.72 50.651 109.958 53.416 110.002 55.3987L108.002 55.4431C107.949 53.0278 108.85 49.9418 110.135 46.7666C111.434 43.5592 113.178 40.136 114.922 37.0028C118.41 30.7346 121.938 25.5499 122.017 25.434L123.666 26.566ZM110.002 55.3987C110.095 59.5835 111.737 64.0502 113.415 67.5392C114.249 69.2718 115.078 70.7387 115.704 71.7774C116.016 72.2963 116.277 72.7074 116.46 72.9901C116.552 73.1314 116.624 73.2406 116.674 73.3151C116.725 73.3909 116.751 73.4287 116.751 73.4277L115.11 74.5723C115.057 74.4952 113.342 72.002 111.613 68.406C109.892 64.8287 108.105 60.0543 108.002 55.4431L110.002 55.3987Z" fill="black" fill-opacity="0.2" mask="url(#path-12-inside-1_214_45)"/>
<path d="M129.08 18.5693L129.129 18.3738C128.986 18.3385 114.968 14.7694 110.746 10.332L110.603 10.467C114.858 14.9533 128.939 18.5341 129.08 18.5693Z" fill="black"/>
<defs>
<linearGradient id="paint0_linear_214_45" x1="119.5" y1="172.5" x2="68.984" y2="5.95142" gradientUnits="userSpaceOnUse">
<stop stop-color="white"/>
<stop offset="0.758712" stop-color="#676161"/>
</linearGradient>
</defs>
</svg>
