<svg viewBox="0 0 138 183" fill="none" preserveAspectRatio="none" xmlns="http://www.w3.org/2000/svg">
<path d="M0.516113 5.51528C0.516113 5.51528 15.1699 25.0543 10.7716 28.1736C6.37332 31.2929 32.2545 21.0158 32.2545 21.0158C32.2545 21.0158 22.1164 1.33789 25.0988 0.144937C28.0812 -1.04802 0.516113 5.51528 0.516113 5.51528Z" fill="#67452C"/>
<path d="M131.288 84.4401C147.623 118.848 132.973 159.978 98.5556 176.317C64.1378 192.657 23.018 178.003 6.68236 143.595C-3.35998 122.441 -1.69372 98.7536 9.06831 79.8403C9.81537 78.5366 10.6067 77.2504 11.4424 75.9818C13.1321 73.8306 14.7984 72.2504 15.3714 70.6174C15.3714 70.6174 15.3714 70.6076 15.3714 70.6037C24.3342 52.0347 2.53239 19.9285 2.53239 19.9285C26.2722 15.2564 31.975 5.95142 31.975 5.95142C41.3622 28.5452 52.1183 39.8763 60.4866 45.5634C89.1978 41.9845 118.198 56.8691 131.288 84.4401Z" fill="url(#paint0_linear_215_5)"/>
<path d="M11.4034 76.0267C11.4191 76.0072 11.4288 76.0032 11.4425 75.9836C10.6041 77.247 9.81282 78.5332 9.06836 79.8422" fill="white"/>
<path d="M131.632 117.199C121.985 123.868 91.6716 126 65.3093 122.126C38.2311 118.134 14.8863 105.894 12.2618 93.5085C11.0748 87.446 17.0748 82.6174 41.5714 84.2602C59.7924 85.4864 65.2193 97.148 77.3601 100.799C89.5009 104.45 115.787 102.587 122.061 103.291C128.335 103.995 135.87 110.804 131.632 117.199Z" fill="#A41814"/>
<path d="M92.2432 124.156C83.2261 124.158 74.2205 123.512 65.2961 122.223C52.0855 120.268 39.3972 116.308 29.5699 111.053C19.6136 105.729 13.4318 99.5045 12.1645 93.528C11.7734 91.5156 12.1959 89.7868 13.428 88.3885C16.8034 84.5574 26.2727 83.1357 41.5758 84.1624C52.6214 84.9055 58.8933 89.4133 64.9597 93.7724C68.8906 96.5984 72.6044 99.266 77.3899 100.705C85.7738 103.224 100.662 103.117 111.52 103.038C116.329 103.003 120.125 102.976 122.081 103.193C126.229 103.658 130.598 106.668 132.25 110.192C133.375 112.6 133.193 115.04 131.726 117.252L131.699 117.28C127.04 120.501 117.473 122.785 104.758 123.714C100.694 124.009 96.4968 124.156 92.2432 124.156ZM32.6814 84.0333C22.6137 84.0333 16.205 85.5353 13.5765 88.5176C12.3875 89.8671 11.9768 91.5411 12.3582 93.4889C13.6118 99.4068 19.7564 105.585 29.6619 110.881C39.4696 116.126 52.1344 120.084 65.3254 122.028C78.1272 123.911 92.118 124.439 104.732 123.518C117.399 122.593 126.925 120.325 131.562 117.129C132.98 114.978 133.152 112.611 132.061 110.284C130.441 106.815 126.139 103.854 122.053 103.396C120.119 103.179 116.325 103.201 111.522 103.242C100.645 103.318 85.7484 103.428 77.3352 100.895C72.5183 99.4459 68.7909 96.7686 64.8463 93.9329C58.8033 89.5893 52.5549 85.0991 41.564 84.3599C38.3437 84.1421 35.3829 84.0333 32.6814 84.0333V84.0333Z" fill="white"/>
<path d="M58.0722 127.705L53.9717 133.861L54.0889 133.939L58.1895 127.783L58.0722 127.705Z" fill="black"/>
<path d="M78.1016 126.605L77.9849 126.684L81.8617 132.431L81.9784 132.352L78.1016 126.605Z" fill="black"/>
<path d="M66.7779 133.103C67.0184 132.6 67.5035 132.424 68.1254 132.54V132.516C67.9778 132.277 67.8932 132.005 67.8795 131.725C67.8658 131.444 67.9234 131.165 68.0471 130.913C68.5223 129.95 69.5666 129.698 70.4467 130.326C71.4108 131.02 71.3111 132.061 70.785 132.696C70.6072 132.916 70.3731 133.084 70.1076 133.181C69.8421 133.279 69.5551 133.302 69.2772 133.25L69.2616 133.267C69.6078 133.811 69.641 134.339 69.2948 134.744C68.849 135.264 68.0862 135.243 67.4506 134.806C66.7564 134.333 66.5256 133.631 66.7779 133.103ZM68.7668 134.452C69.0875 134.034 68.9232 133.588 68.4949 133.062C67.9473 132.88 67.5269 133.023 67.3215 133.39C67.1162 133.758 67.21 134.226 67.652 134.529C68.094 134.832 68.5165 134.777 68.7668 134.445V134.452ZM68.6533 131.269C68.36 131.793 68.5282 132.28 68.9194 132.757C69.1421 132.831 69.3825 132.833 69.6064 132.763C69.8304 132.693 70.0266 132.554 70.1671 132.366C70.4741 131.955 70.5933 131.333 70.0145 130.919C69.4767 130.533 68.9271 130.776 68.6533 131.269Z" fill="black"/>
<path d="M54.162 121.568L53.677 121.885L48.7546 123.094L48.2363 122.669L53.188 121.404H53.2057L51.6196 118.842L52.308 118.144L54.162 121.568Z" fill="black"/>
<path d="M132.432 124.486C127.333 159.131 95.1021 183.078 60.4458 177.98C25.7894 172.881 1.85405 140.626 6.95443 105.992C8.06134 98.4133 9.82332 94.682 12.262 93.5086C20.9628 89.3606 38.2313 118.134 65.3095 122.126C91.6718 126 119.728 105.307 129.393 110.413C132.432 112.031 133.658 116.19 132.432 124.486Z" fill="#B81111"/>
<path d="M69.8173 178.766C66.6756 178.765 63.5381 178.534 60.4301 178.075C43.767 175.614 28.7631 166.637 18.717 153.117C8.67091 139.596 4.40485 122.64 6.85659 105.976C7.92829 98.6558 9.63166 94.6642 12.219 93.4204C16.101 91.5684 21.4595 96.0078 28.8754 102.151C37.8715 109.598 50.1804 119.796 65.3251 122.028C79.9222 124.179 95.0942 118.752 107.282 114.401C117.236 110.843 125.098 108.033 129.44 110.329C132.719 112.076 133.701 116.587 132.53 124.506C130.306 139.561 122.754 153.319 111.245 163.277C99.7364 173.236 85.0361 178.733 69.8173 178.77V178.766ZM14.114 93.2034C13.4918 93.1961 12.876 93.3298 12.3129 93.5945C9.79007 94.809 8.12191 98.7516 7.05999 106.003C1.97526 140.538 25.934 172.783 60.4691 177.88C63.5364 178.332 66.6327 178.559 69.7331 178.56C100.609 178.56 127.721 155.892 132.346 124.471C133.504 116.638 132.553 112.199 129.357 110.497C125.092 108.24 117.266 111.037 107.358 114.579C97.0519 118.261 84.6138 122.707 72.1777 122.707C69.8782 122.712 67.5814 122.55 65.3055 122.222C50.1061 119.98 37.7697 109.76 28.762 102.299C22.7189 97.3063 17.7692 93.2034 14.114 93.2034Z" fill="white"/>
<mask id="path-12-inside-1_215_5" fill="white">
<path d="M22.0378 74L21.8793 73.8895C21.9469 73.7925 28.5796 64.1549 28.7729 55.417C28.9662 46.6792 15.1074 26.3141 14.9683 26.1105L15.1267 26C15.2679 26.2056 29.1615 46.6249 28.9662 55.4209C28.771 64.2169 22.1054 73.903 22.0378 74Z"/>
</mask>
<path d="M22.0378 74L21.4658 74.8203L22.2858 75.392L22.8578 74.5723L22.0378 74ZM21.8793 73.8895L21.0592 73.3172L20.4867 74.1376L21.3073 74.7098L21.8793 73.8895ZM14.9683 26.1105L14.3963 25.2902L13.5836 25.8569L14.1427 26.6748L14.9683 26.1105ZM15.1267 26L15.9512 25.434L15.3811 24.6036L14.5548 25.1797L15.1267 26ZM22.6097 73.1797L22.4512 73.0692L21.3073 74.7098L21.4658 74.8203L22.6097 73.1797ZM22.6993 74.4618C22.7531 74.3848 24.4591 71.9037 26.1801 68.3272C27.892 64.7694 29.6713 60.0215 29.7727 55.4391L27.7732 55.3949C27.6812 59.5503 26.0475 63.9902 24.3779 67.46C23.5488 69.1829 22.7231 70.642 22.101 71.6753C21.7902 72.1915 21.5309 72.6004 21.3483 72.8817C21.257 73.0224 21.1849 73.131 21.1352 73.2051C21.0846 73.2805 21.0585 73.3182 21.0592 73.3172L22.6993 74.4618ZM29.7727 55.4391C29.8258 53.0378 28.9262 49.9658 27.6437 46.8043C26.348 43.6103 24.608 40.1995 22.8689 37.0769C19.3897 30.8296 15.871 25.659 15.7938 25.5462L14.1427 26.6748C14.2047 26.7656 17.685 31.8793 21.1216 38.05C22.8405 41.1363 24.5376 44.4678 25.7904 47.5561C27.0564 50.677 27.8167 53.4273 27.7732 55.3949L29.7727 55.4391ZM15.5402 26.9308L15.6987 26.8203L14.5548 25.1797L14.3963 25.2902L15.5402 26.9308ZM14.3023 26.566C14.3024 26.5661 14.3024 26.5661 14.3026 26.5664C14.3029 26.5668 14.3031 26.5671 14.3035 26.5677C14.3042 26.5687 14.3052 26.5702 14.3064 26.572C14.3089 26.5756 14.3122 26.5805 14.3164 26.5867C14.3248 26.599 14.3365 26.6162 14.3514 26.6382C14.3811 26.682 14.4234 26.7447 14.4774 26.8252C14.5855 26.9861 14.7404 27.2181 14.9355 27.5135C15.3255 28.1042 15.8757 28.9478 16.5316 29.9823C17.8441 32.0522 19.5774 34.8817 21.2988 37.9752C23.022 41.072 24.7233 44.4158 25.9791 47.5173C27.248 50.651 28.0105 53.416 27.9665 55.3987L29.966 55.4431C30.0196 53.0278 29.1186 49.9418 27.8329 46.7666C26.5342 43.5592 24.7899 40.136 23.0465 37.0028C19.5586 30.7346 16.0307 25.5499 15.9512 25.434L14.3023 26.566ZM27.9665 55.3987C27.8736 59.5835 26.231 64.0502 24.553 67.5392C23.7197 69.2718 22.8898 70.7387 22.2646 71.7774C21.9523 72.2963 21.6917 72.7074 21.5081 72.9901C21.4164 73.1314 21.3439 73.2406 21.294 73.3151C21.2432 73.3909 21.217 73.4287 21.2177 73.4277L22.8578 74.5723C22.9116 74.4952 24.6259 72.002 26.3553 68.406C28.0758 64.8287 29.8636 60.0543 29.966 55.4431L27.9665 55.3987Z" fill="black" mask="url(#path-12-inside-1_215_5)"/>
<path d="M22.0378 74L21.4658 74.8203L22.2858 75.392L22.8578 74.5723L22.0378 74ZM21.8793 73.8895L21.0592 73.3172L20.4867 74.1376L21.3073 74.7098L21.8793 73.8895ZM14.9683 26.1105L14.3963 25.2902L13.5836 25.8569L14.1427 26.6748L14.9683 26.1105ZM15.1267 26L15.9512 25.434L15.3811 24.6036L14.5548 25.1797L15.1267 26ZM22.6097 73.1797L22.4512 73.0692L21.3073 74.7098L21.4658 74.8203L22.6097 73.1797ZM22.6993 74.4618C22.7531 74.3848 24.4591 71.9037 26.1801 68.3272C27.892 64.7694 29.6713 60.0215 29.7727 55.4391L27.7732 55.3949C27.6812 59.5503 26.0475 63.9902 24.3779 67.46C23.5488 69.1829 22.7231 70.642 22.101 71.6753C21.7902 72.1915 21.5309 72.6004 21.3483 72.8817C21.257 73.0224 21.1849 73.131 21.1352 73.2051C21.0846 73.2805 21.0585 73.3182 21.0592 73.3172L22.6993 74.4618ZM29.7727 55.4391C29.8258 53.0378 28.9262 49.9658 27.6437 46.8043C26.348 43.6103 24.608 40.1995 22.8689 37.0769C19.3897 30.8296 15.871 25.659 15.7938 25.5462L14.1427 26.6748C14.2047 26.7656 17.685 31.8793 21.1216 38.05C22.8405 41.1363 24.5376 44.4678 25.7904 47.5561C27.0564 50.677 27.8167 53.4273 27.7732 55.3949L29.7727 55.4391ZM15.5402 26.9308L15.6987 26.8203L14.5548 25.1797L14.3963 25.2902L15.5402 26.9308ZM14.3023 26.566C14.3024 26.5661 14.3024 26.5661 14.3026 26.5664C14.3029 26.5668 14.3031 26.5671 14.3035 26.5677C14.3042 26.5687 14.3052 26.5702 14.3064 26.572C14.3089 26.5756 14.3122 26.5805 14.3164 26.5867C14.3248 26.599 14.3365 26.6162 14.3514 26.6382C14.3811 26.682 14.4234 26.7447 14.4774 26.8252C14.5855 26.9861 14.7404 27.2181 14.9355 27.5135C15.3255 28.1042 15.8757 28.9478 16.5316 29.9823C17.8441 32.0522 19.5774 34.8817 21.2988 37.9752C23.022 41.072 24.7233 44.4158 25.9791 47.5173C27.248 50.651 28.0105 53.416 27.9665 55.3987L29.966 55.4431C30.0196 53.0278 29.1186 49.9418 27.8329 46.7666C26.5342 43.5592 24.7899 40.136 23.0465 37.0028C19.5586 30.7346 16.0307 25.5499 15.9512 25.434L14.3023 26.566ZM27.9665 55.3987C27.8736 59.5835 26.231 64.0502 24.553 67.5392C23.7197 69.2718 22.8898 70.7387 22.2646 71.7774C21.9523 72.2963 21.6917 72.7074 21.5081 72.9901C21.4164 73.1314 21.3439 73.2406 21.294 73.3151C21.2432 73.3909 21.217 73.4287 21.2177 73.4277L22.8578 74.5723C22.9116 74.4952 24.6259 72.002 26.3553 68.406C28.0758 64.8287 29.8636 60.0543 29.966 55.4431L27.9665 55.3987Z" fill="black" fill-opacity="0.2" mask="url(#path-12-inside-1_215_5)"/>
<path d="M8.88825 18.5693L8.83936 18.3738C8.98212 18.3385 23.0003 14.7694 27.2226 10.332L27.3654 10.467C23.1098 14.9533 9.02906 18.5341 8.88825 18.5693Z" fill="black"/>
<defs>
<linearGradient id="paint0_linear_215_5" x1="18.4683" y1="172.5" x2="68.9842" y2="5.95142" gradientUnits="userSpaceOnUse">
<stop stop-color="white"/>
<stop offset="0.758712" stop-color="#676161"/>
</linearGradient>
</defs>
</svg>
