<svg viewBox="0 0 300 300" fill="none" preserveAspectRatio="none" xmlns="http://www.w3.org/2000/svg">
<rect width="300" height="300" rx="24" fill="#292929"/>
<rect x="2.5752" width="297.425" height="296.07" rx="24" fill="#1B1D33"/>
<path d="M82.5161 61.5153C82.5161 61.5153 97.1699 81.0543 92.7716 84.1736C88.3733 87.2929 114.255 77.0158 114.255 77.0158C114.255 77.0158 104.116 57.3379 107.099 56.1449C110.081 54.952 82.5161 61.5153 82.5161 61.5153Z" fill="#67452C"/>
<path d="M213.288 140.44C229.623 174.848 214.973 215.978 180.556 232.317C146.138 248.657 105.018 234.003 88.6824 199.595C78.64 178.441 80.3063 154.754 91.0683 135.84C91.8154 134.537 92.6067 133.25 93.4424 131.982C95.1321 129.831 96.7984 128.25 97.3714 126.617C97.3714 126.617 97.3714 126.608 97.3714 126.604C106.334 108.035 84.5324 75.9285 84.5324 75.9285C108.272 71.2564 113.975 61.9514 113.975 61.9514C123.362 84.5452 134.118 95.8763 142.487 101.563C171.198 97.9845 200.198 112.869 213.288 140.44Z" fill="url(#paint0_linear_215_2)"/>
<path d="M93.4034 132.027C93.4191 132.007 93.4288 132.003 93.4425 131.984C92.6041 133.247 91.8128 134.533 91.0684 135.842" fill="white"/>
<path d="M213.632 173.199C203.985 179.868 173.672 182 147.309 178.126C120.231 174.134 96.8863 161.894 94.2618 149.509C93.0748 143.446 99.0748 138.617 123.571 140.26C141.792 141.486 147.219 153.148 159.36 156.799C171.501 160.45 197.787 158.587 204.061 159.291C210.335 159.995 217.87 166.804 213.632 173.199Z" fill="#A41814"/>
<path d="M174.243 180.156C165.226 180.158 156.221 179.512 147.296 178.223C134.086 176.268 121.397 172.308 111.57 167.053C101.614 161.729 95.4318 155.505 94.1645 149.528C93.7734 147.516 94.1959 145.787 95.428 144.389C98.8034 140.557 108.273 139.136 123.576 140.162C134.621 140.906 140.893 145.413 146.96 149.772C150.891 152.598 154.604 155.266 159.39 156.705C167.774 159.224 182.662 159.117 193.52 159.038C198.329 159.003 202.125 158.976 204.081 159.193C208.229 159.658 212.598 162.668 214.25 166.192C215.375 168.6 215.193 171.04 213.726 173.252L213.699 173.28C209.04 176.501 199.473 178.785 186.758 179.714C182.694 180.009 178.497 180.156 174.243 180.156ZM114.681 140.033C104.614 140.033 98.205 141.535 95.5765 144.518C94.3875 145.867 93.9768 147.541 94.3582 149.489C95.6118 155.407 101.756 161.585 111.662 166.881C121.47 172.126 134.134 176.084 147.325 178.028C160.127 179.911 174.118 180.439 186.732 179.518C199.399 178.593 208.925 176.325 213.562 173.129C214.98 170.978 215.152 168.611 214.061 166.284C212.441 162.815 208.139 159.854 204.053 159.396C202.119 159.179 198.325 159.201 193.522 159.242C182.645 159.318 167.748 159.428 159.335 156.895C154.518 155.446 150.791 152.769 146.846 149.933C140.803 145.589 134.555 141.099 123.564 140.36C120.344 140.142 117.383 140.033 114.681 140.033V140.033Z" fill="white"/>
<path d="M140.072 183.705L135.972 189.861L136.089 189.939L140.189 183.783L140.072 183.705Z" fill="black"/>
<path d="M160.102 182.605L159.985 182.684L163.862 188.431L163.978 188.352L160.102 182.605Z" fill="black"/>
<path d="M148.778 189.103C149.018 188.6 149.503 188.424 150.125 188.54V188.516C149.978 188.277 149.893 188.005 149.879 187.725C149.866 187.444 149.923 187.165 150.047 186.913C150.522 185.95 151.567 185.698 152.447 186.326C153.411 187.02 153.311 188.061 152.785 188.696C152.607 188.916 152.373 189.084 152.108 189.181C151.842 189.279 151.555 189.302 151.277 189.25L151.262 189.267C151.608 189.811 151.641 190.339 151.295 190.744C150.849 191.264 150.086 191.243 149.451 190.806C148.756 190.333 148.526 189.631 148.778 189.103ZM150.767 190.452C151.088 190.034 150.923 189.588 150.495 189.062C149.947 188.88 149.527 189.023 149.322 189.39C149.116 189.758 149.21 190.226 149.652 190.529C150.094 190.832 150.516 190.777 150.767 190.445V190.452ZM150.653 187.269C150.36 187.793 150.528 188.28 150.919 188.757C151.142 188.831 151.382 188.833 151.606 188.763C151.83 188.693 152.027 188.554 152.167 188.366C152.474 187.955 152.593 187.333 152.014 186.919C151.477 186.533 150.927 186.776 150.653 187.269Z" fill="black"/>
<path d="M136.162 177.568L135.677 177.885L130.755 179.094L130.236 178.669L135.188 177.404H135.206L133.62 174.842L134.308 174.144L136.162 177.568Z" fill="black"/>
<path d="M214.432 180.486C209.333 215.131 177.102 239.078 142.446 233.98C107.789 228.881 83.8541 196.626 88.9544 161.992C90.0613 154.413 91.8233 150.682 94.262 149.509C102.963 145.361 120.231 174.134 147.309 178.126C173.672 182 201.728 161.307 211.393 166.413C214.432 168.031 215.658 172.19 214.432 180.486Z" fill="#B81111"/>
<path d="M151.817 234.766C148.676 234.765 145.538 234.534 142.43 234.075C125.767 231.614 110.763 222.637 100.717 209.117C90.6709 195.596 86.4049 178.64 88.8566 161.976C89.9283 154.656 91.6317 150.664 94.219 149.42C98.101 147.568 103.46 152.008 110.875 158.151C119.871 165.598 132.18 175.796 147.325 178.028C161.922 180.179 177.094 174.752 189.282 170.401C199.236 166.843 207.098 164.033 211.44 166.329C214.719 168.076 215.701 172.587 214.53 180.506C212.306 195.561 204.754 209.319 193.245 219.277C181.736 229.236 167.036 234.733 151.817 234.77V234.766ZM96.114 149.203C95.4918 149.196 94.876 149.33 94.3129 149.595C91.7901 150.809 90.1219 154.752 89.06 162.003C83.9753 196.538 107.934 228.783 142.469 233.88C145.536 234.332 148.633 234.559 151.733 234.56C182.609 234.56 209.721 211.892 214.346 180.471C215.504 172.638 214.553 168.199 211.357 166.497C207.092 164.24 199.266 167.037 189.358 170.579C179.052 174.261 166.614 178.707 154.178 178.707C151.878 178.712 149.581 178.55 147.305 178.222C132.106 175.98 119.77 165.76 110.762 158.299C104.719 153.306 99.7692 149.203 96.114 149.203Z" fill="white"/>
<mask id="path-14-inside-1_215_2" fill="white">
<path d="M104.038 130L103.879 129.89C103.947 129.793 110.58 120.155 110.773 111.417C110.966 102.679 97.1074 82.3141 96.9683 82.1105L97.1267 82C97.2679 82.2056 111.161 102.625 110.966 111.421C110.771 120.217 104.105 129.903 104.038 130Z"/>
</mask>
<path d="M104.038 130L103.466 130.82L104.286 131.392L104.858 130.572L104.038 130ZM103.879 129.89L103.059 129.317L102.487 130.138L103.307 130.71L103.879 129.89ZM96.9683 82.1105L96.3963 81.2902L95.5836 81.8569L96.1427 82.6748L96.9683 82.1105ZM97.1267 82L97.9512 81.434L97.3811 80.6036L96.5548 81.1797L97.1267 82ZM104.61 129.18L104.451 129.069L103.307 130.71L103.466 130.82L104.61 129.18ZM104.699 130.462C104.753 130.385 106.459 127.904 108.18 124.327C109.892 120.769 111.671 116.022 111.773 111.439L109.773 111.395C109.681 115.55 108.047 119.99 106.378 123.46C105.549 125.183 104.723 126.642 104.101 127.675C103.79 128.192 103.531 128.6 103.348 128.882C103.257 129.022 103.185 129.131 103.135 129.205C103.085 129.281 103.059 129.318 103.059 129.317L104.699 130.462ZM111.773 111.439C111.826 109.038 110.926 105.966 109.644 102.804C108.348 99.6103 106.608 96.1995 104.869 93.0769C101.39 86.8296 97.871 81.659 97.7938 81.5462L96.1427 82.6748C96.2047 82.7656 99.685 87.8793 103.122 94.05C104.84 97.1363 106.538 100.468 107.79 103.556C109.056 106.677 109.817 109.427 109.773 111.395L111.773 111.439ZM97.5402 82.9308L97.6987 82.8203L96.5548 81.1797L96.3963 81.2902L97.5402 82.9308ZM96.3023 82.566C96.3024 82.5661 96.3024 82.5661 96.3026 82.5664C96.3029 82.5668 96.3031 82.5671 96.3035 82.5677C96.3042 82.5687 96.3052 82.5702 96.3064 82.572C96.3089 82.5756 96.3122 82.5805 96.3164 82.5867C96.3248 82.599 96.3365 82.6162 96.3514 82.6382C96.3811 82.682 96.4234 82.7447 96.4774 82.8252C96.5855 82.9861 96.7404 83.2181 96.9355 83.5135C97.3255 84.1042 97.8757 84.9478 98.5316 85.9823C99.8441 88.0522 101.577 90.8817 103.299 93.9752C105.022 97.072 106.723 100.416 107.979 103.517C109.248 106.651 110.01 109.416 109.966 111.399L111.966 111.443C112.02 109.028 111.119 105.942 109.833 102.767C108.534 99.5592 106.79 96.136 105.046 93.0028C101.559 86.7346 98.0307 81.5499 97.9512 81.434L96.3023 82.566ZM109.966 111.399C109.874 115.583 108.231 120.05 106.553 123.539C105.72 125.272 104.89 126.739 104.265 127.777C103.952 128.296 103.692 128.707 103.508 128.99C103.416 129.131 103.344 129.241 103.294 129.315C103.243 129.391 103.217 129.429 103.218 129.428L104.858 130.572C104.912 130.495 106.626 128.002 108.355 124.406C110.076 120.829 111.864 116.054 111.966 111.443L109.966 111.399Z" fill="black" mask="url(#path-14-inside-1_215_2)"/>
<path d="M104.038 130L103.466 130.82L104.286 131.392L104.858 130.572L104.038 130ZM103.879 129.89L103.059 129.317L102.487 130.138L103.307 130.71L103.879 129.89ZM96.9683 82.1105L96.3963 81.2902L95.5836 81.8569L96.1427 82.6748L96.9683 82.1105ZM97.1267 82L97.9512 81.434L97.3811 80.6036L96.5548 81.1797L97.1267 82ZM104.61 129.18L104.451 129.069L103.307 130.71L103.466 130.82L104.61 129.18ZM104.699 130.462C104.753 130.385 106.459 127.904 108.18 124.327C109.892 120.769 111.671 116.022 111.773 111.439L109.773 111.395C109.681 115.55 108.047 119.99 106.378 123.46C105.549 125.183 104.723 126.642 104.101 127.675C103.79 128.192 103.531 128.6 103.348 128.882C103.257 129.022 103.185 129.131 103.135 129.205C103.085 129.281 103.059 129.318 103.059 129.317L104.699 130.462ZM111.773 111.439C111.826 109.038 110.926 105.966 109.644 102.804C108.348 99.6103 106.608 96.1995 104.869 93.0769C101.39 86.8296 97.871 81.659 97.7938 81.5462L96.1427 82.6748C96.2047 82.7656 99.685 87.8793 103.122 94.05C104.84 97.1363 106.538 100.468 107.79 103.556C109.056 106.677 109.817 109.427 109.773 111.395L111.773 111.439ZM97.5402 82.9308L97.6987 82.8203L96.5548 81.1797L96.3963 81.2902L97.5402 82.9308ZM96.3023 82.566C96.3024 82.5661 96.3024 82.5661 96.3026 82.5664C96.3029 82.5668 96.3031 82.5671 96.3035 82.5677C96.3042 82.5687 96.3052 82.5702 96.3064 82.572C96.3089 82.5756 96.3122 82.5805 96.3164 82.5867C96.3248 82.599 96.3365 82.6162 96.3514 82.6382C96.3811 82.682 96.4234 82.7447 96.4774 82.8252C96.5855 82.9861 96.7404 83.2181 96.9355 83.5135C97.3255 84.1042 97.8757 84.9478 98.5316 85.9823C99.8441 88.0522 101.577 90.8817 103.299 93.9752C105.022 97.072 106.723 100.416 107.979 103.517C109.248 106.651 110.01 109.416 109.966 111.399L111.966 111.443C112.02 109.028 111.119 105.942 109.833 102.767C108.534 99.5592 106.79 96.136 105.046 93.0028C101.559 86.7346 98.0307 81.5499 97.9512 81.434L96.3023 82.566ZM109.966 111.399C109.874 115.583 108.231 120.05 106.553 123.539C105.72 125.272 104.89 126.739 104.265 127.777C103.952 128.296 103.692 128.707 103.508 128.99C103.416 129.131 103.344 129.241 103.294 129.315C103.243 129.391 103.217 129.429 103.218 129.428L104.858 130.572C104.912 130.495 106.626 128.002 108.355 124.406C110.076 120.829 111.864 116.054 111.966 111.443L109.966 111.399Z" fill="black" fill-opacity="0.2" mask="url(#path-14-inside-1_215_2)"/>
<path d="M90.8882 74.5693L90.8394 74.3738C90.9821 74.3385 105 70.7694 109.223 66.332L109.365 66.467C105.11 70.9533 91.0291 74.5341 90.8882 74.5693Z" fill="black"/>
<path d="M96.9683 82.5C105.468 91.6667 118.668 114.1 103.468 130.5" stroke="#B69A9A" stroke-width="2" stroke-linecap="round"/>
<defs>
<linearGradient id="paint0_linear_215_2" x1="100.468" y1="228.5" x2="150.984" y2="61.9514" gradientUnits="userSpaceOnUse">
<stop stop-color="white"/>
<stop offset="0.758712" stop-color="#676161"/>
</linearGradient>
</defs>
</svg>
