<svg width="3840" height="2160" viewBox="0 0 3840 2160" fill="none" preserveAspectRatio="none" xmlns="http://www.w3.org/2000/svg">
<g clip-path="url(#clip0_308_615)">
<mask id="mask0_308_615" style="mask-type:luminance" maskUnits="userSpaceOnUse" x="0" y="0" width="3840" height="2160">
<path d="M3840 0H0V2160H3840V0Z" fill="white"/>
</mask>
<g mask="url(#mask0_308_615)">
<path d="M3840 0H0V2160H3840V0Z" fill="white"/>
<path d="M3864.54 -3.37012H-1.29492V2184.32H3864.54V-3.37012Z" fill="url(#paint0_linear_308_615)"/>
<path opacity="0.11" d="M1213.16 1226.23C1213.16 1238.49 1203.26 1248.42 1191.03 1248.42C1178.81 1248.42 1168.9 1238.49 1168.9 1226.23C1168.9 1213.97 1178.81 1204.04 1191.03 1204.04C1203.26 1204.04 1213.16 1213.97 1213.16 1226.23Z" fill="#71C1D3"/>
<path opacity="0.11" d="M2957.07 879.218C2957.07 891.475 2947.16 901.409 2934.94 901.409C2922.72 901.409 2912.81 891.475 2912.81 879.218C2912.81 866.96 2922.72 857.026 2934.94 857.026C2947.16 857.026 2957.07 866.96 2957.07 879.218Z" fill="#71C1D3"/>
<path opacity="0.11" d="M2259.12 1062.54C2259.12 1074.79 2249.21 1084.73 2236.99 1084.73C2224.77 1084.73 2214.86 1074.79 2214.86 1062.54C2214.86 1050.28 2224.77 1040.35 2236.99 1040.35C2249.21 1040.35 2259.12 1050.28 2259.12 1062.54Z" fill="#71C1D3"/>
<path opacity="0.11" d="M3657.29 339.735C3657.29 351.993 3647.39 361.927 3635.17 361.927C3622.94 361.927 3613.04 351.993 3613.04 339.735C3613.04 327.478 3622.94 317.544 3635.17 317.544C3647.39 317.544 3657.29 327.478 3657.29 339.735Z" fill="#71C1D3"/>
<path opacity="0.11" d="M3147.76 339.735C3147.76 351.993 3137.85 361.927 3125.63 361.927C3113.41 361.927 3103.5 351.993 3103.5 339.735C3103.5 327.478 3113.41 317.544 3125.63 317.544C3137.85 317.544 3147.76 327.478 3147.76 339.735Z" fill="#71C1D3"/>
<path opacity="0.11" d="M3551 1100.73C3551 1112.99 3541.1 1122.92 3528.88 1122.92C3516.65 1122.92 3506.75 1112.99 3506.75 1100.73C3506.75 1088.47 3516.65 1078.54 3528.88 1078.54C3541.1 1078.54 3551 1088.47 3551 1100.73Z" fill="#71C1D3"/>
<path opacity="0.11" d="M951.752 1018.15C951.752 1030.41 941.846 1040.35 929.624 1040.35C917.401 1040.35 907.495 1030.41 907.495 1018.15C907.495 1005.9 917.401 995.963 929.624 995.963C941.846 995.963 951.752 1005.9 951.752 1018.15Z" fill="#71C1D3"/>
<path opacity="0.11" d="M973.881 415.642C973.881 427.899 963.975 437.833 951.753 437.833C939.53 437.833 929.624 427.899 929.624 415.642C929.624 403.384 939.53 393.45 951.753 393.45C963.975 393.45 973.881 403.384 973.881 415.642Z" fill="#71C1D3"/>
<path opacity="0.11" d="M323.125 361.927C323.125 374.184 313.219 384.118 300.996 384.118C288.774 384.118 278.868 374.184 278.868 361.927C278.868 349.669 288.774 339.735 300.996 339.735C313.219 339.735 323.125 349.669 323.125 361.927Z" fill="#71C1D3"/>
<path opacity="0.11" d="M1043.18 815.167C1043.18 827.424 1033.28 837.358 1021.05 837.358C1008.83 837.358 998.926 827.424 998.926 815.167C998.926 802.91 1008.83 792.976 1021.05 792.976C1033.28 792.976 1043.18 802.91 1043.18 815.167Z" fill="#71C1D3"/>
<path opacity="0.11" d="M2523.52 317.544C2523.52 329.801 2513.62 339.735 2501.39 339.735C2489.17 339.735 2479.27 329.801 2479.27 317.544C2479.27 305.287 2489.17 295.353 2501.39 295.353C2513.62 295.353 2523.52 305.287 2523.52 317.544Z" fill="#71C1D3"/>
<path opacity="0.11" d="M400.255 1040.35C400.255 1052.6 390.349 1062.54 378.127 1062.54C365.904 1062.54 355.998 1052.6 355.998 1040.35C355.998 1028.09 365.904 1018.16 378.127 1018.16C390.349 1018.16 400.255 1028.09 400.255 1040.35Z" fill="#71C1D3"/>
<path d="M1191.03 286.06C1191.03 286.06 1186.98 333.086 1237.93 333.086C1237.93 333.086 1191.03 336.471 1191.03 380.113" fill="white"/>
<path d="M1191.03 286.06C1191.03 286.06 1195.09 333.086 1144.14 333.086C1144.14 333.086 1191.03 336.471 1191.03 380.113" fill="white"/>
<path d="M3379.61 745.93C3379.61 745.93 3375.55 792.956 3426.5 792.956C3426.5 792.956 3379.61 796.341 3379.61 839.983" fill="white"/>
<path d="M3379.61 745.93C3379.61 745.93 3383.66 792.956 3332.71 792.956C3332.71 792.956 3379.61 796.341 3379.61 839.983" fill="white"/>
<path d="M3309.31 399.64C3309.31 399.64 3305.25 446.666 3356.2 446.666C3356.2 446.666 3309.31 450.051 3309.31 493.693" fill="white"/>
<path d="M3309.31 399.64C3309.31 399.64 3313.36 446.666 3262.41 446.666C3262.41 446.666 3309.31 450.051 3309.31 493.693" fill="white"/>
<path d="M2792.7 226.194C2792.7 226.194 2788.65 273.221 2839.59 273.221C2839.59 273.221 2792.7 276.606 2792.7 320.247" fill="white"/>
<path d="M2792.7 226.194C2792.7 226.194 2796.76 273.221 2745.81 273.221C2745.81 273.221 2792.7 276.606 2792.7 320.247" fill="white"/>
<path d="M739.374 977.275C739.374 977.275 735.32 1024.3 786.268 1024.3C786.268 1024.3 739.374 1027.69 739.374 1071.33" fill="white"/>
<path d="M739.375 977.275C739.375 977.275 743.428 1024.3 692.48 1024.3C692.48 1024.3 739.375 1027.69 739.375 1071.33" fill="white"/>
<path d="M205.851 696.099C205.851 696.099 201.797 743.125 252.745 743.125C252.745 743.125 205.851 746.51 205.851 790.152" fill="white"/>
<path d="M205.851 696.099C205.851 696.099 209.905 743.125 158.958 743.125C158.958 743.125 205.851 746.51 205.851 790.152" fill="white"/>
<path d="M622.16 649.073C622.16 649.073 618.106 696.1 669.054 696.1C669.054 696.1 622.16 699.485 622.16 743.126" fill="white"/>
<path d="M622.161 649.073C622.161 649.073 626.215 696.1 575.267 696.1C575.267 696.1 622.161 699.485 622.161 743.126" fill="white"/>
<path d="M1067.95 678.854C1067.95 678.854 1063.89 725.881 1114.84 725.881C1114.84 725.881 1067.95 729.266 1067.95 772.907" fill="white"/>
<path d="M1067.95 678.854C1067.95 678.854 1072 725.881 1021.05 725.881C1021.05 725.881 1067.95 729.266 1067.95 772.907" fill="white"/>
<path d="M2769.29 655.16C2769.29 655.16 2765.24 702.187 2816.19 702.187C2816.19 702.187 2769.29 705.571 2769.29 749.213" fill="white"/>
<path d="M2769.29 655.16C2769.29 655.16 2773.35 702.187 2722.4 702.187C2722.4 702.187 2769.29 705.571 2769.29 749.213" fill="white"/>
<path d="M3125.63 977.275C3125.63 977.275 3121.57 1024.3 3172.52 1024.3C3172.52 1024.3 3125.63 1027.69 3125.63 1071.33" fill="white"/>
<path d="M3125.63 977.275C3125.63 977.275 3129.68 1024.3 3078.73 1024.3C3078.73 1024.3 3125.63 1027.69 3125.63 1071.33" fill="white"/>
<path d="M1902.04 857.026C2071.23 857.026 2208.39 719.481 2208.39 549.811C2208.39 380.141 2071.23 242.597 1902.04 242.597C1732.85 242.597 1595.7 380.141 1595.7 549.811C1595.7 719.481 1732.85 857.026 1902.04 857.026Z" fill="#E4E2E8"/>
<path d="M2009.91 518.308C2009.91 512.64 2014.48 508.053 2020.14 508.053C2022.87 508.053 2025.37 509.135 2027.21 510.897C2025.33 508.694 2022.53 507.292 2019.42 507.292C2013.77 507.292 2009.19 511.878 2009.19 517.546C2009.19 520.451 2010.41 523.094 2012.35 524.957C2010.83 523.174 2009.91 520.851 2009.91 518.308Z" fill="#E4E2E8"/>
<path d="M2020.14 528.562C2025.78 528.562 2030.36 523.971 2030.36 518.307C2030.36 512.644 2025.78 508.053 2020.14 508.053C2014.49 508.053 2009.91 512.644 2009.91 518.307C2009.91 523.971 2014.49 528.562 2020.14 528.562Z" fill="#E4E2E8"/>
<path d="M1848.62 766.292C1857.21 746.12 1839.96 719.395 1810.09 706.598C1780.21 693.802 1749.03 699.78 1740.44 719.952C1731.85 740.123 1749.1 766.849 1778.97 779.645C1808.84 792.442 1840.02 786.463 1848.62 766.292Z" fill="#D4D2D8"/>
<path d="M1728.09 603.997C1742.58 596.885 1745.78 573.636 1735.25 552.068C1724.72 530.501 1704.44 518.783 1689.96 525.895C1675.47 533.007 1672.27 556.256 1682.8 577.823C1693.33 599.391 1713.61 611.109 1728.09 603.997Z" fill="#D4D2D8"/>
<path d="M1881.24 454.577C1895.73 447.465 1898.93 424.216 1888.4 402.649C1877.87 381.081 1857.59 369.363 1843.11 376.475C1828.62 383.587 1825.42 406.836 1835.95 428.403C1846.48 449.971 1866.76 461.689 1881.24 454.577Z" fill="#D4D2D8"/>
<path d="M1874.32 770.185C1879.19 767.797 1880.26 759.99 1876.73 752.748C1873.19 745.505 1866.38 741.571 1861.52 743.959C1856.65 746.348 1855.58 754.155 1859.11 761.397C1862.65 768.639 1869.46 772.574 1874.32 770.185Z" fill="#D4D2D8"/>
<path d="M1704.62 708.644C1707.05 707.452 1707.58 703.546 1705.81 699.92C1704.04 696.294 1700.64 694.321 1698.21 695.513C1695.78 696.705 1695.25 700.61 1697.02 704.236C1698.79 707.862 1702.19 709.836 1704.62 708.644Z" fill="#D4D2D8"/>
<path d="M2068.46 610.203C2080.47 604.307 2083.13 585.04 2074.4 567.168C2065.68 549.296 2048.87 539.588 2036.86 545.484C2024.86 551.38 2022.2 570.647 2030.92 588.519C2039.65 606.39 2056.46 616.099 2068.46 610.203Z" fill="#D4D2D8"/>
<path d="M2062.17 640.678C2064.85 639.364 2065.44 635.07 2063.49 631.087C2061.55 627.103 2057.8 624.938 2055.13 626.252C2052.45 627.565 2051.86 631.859 2053.81 635.843C2055.75 639.827 2059.5 641.991 2062.17 640.678Z" fill="#D4D2D8"/>
<path d="M2017.54 612.976C2020.21 611.663 2020.8 607.369 2018.86 603.385C2016.91 599.402 2013.17 597.237 2010.49 598.551C2007.82 599.864 2007.23 604.158 2009.17 608.142C2011.12 612.125 2014.86 614.29 2017.54 612.976Z" fill="#D4D2D8"/>
<path d="M1899.57 383.643C1902.25 382.329 1902.84 378.035 1900.89 374.051C1898.95 370.068 1895.2 367.903 1892.53 369.217C1889.85 370.53 1889.26 374.824 1891.21 378.808C1893.15 382.791 1896.9 384.956 1899.57 383.643Z" fill="#D4D2D8"/>
<path d="M1919.35 453.752C1922.02 452.438 1922.61 448.144 1920.67 444.161C1918.72 440.177 1914.98 438.012 1912.3 439.326C1909.63 440.639 1909.04 444.933 1910.98 448.917C1912.93 452.901 1916.67 455.065 1919.35 453.752Z" fill="#D4D2D8"/>
<path d="M1718.18 517.15C1720.85 515.837 1721.45 511.543 1719.5 507.559C1717.56 503.576 1713.81 501.411 1711.14 502.724C1708.46 504.038 1707.87 508.332 1709.82 512.316C1711.76 516.299 1715.51 518.464 1718.18 517.15Z" fill="#D4D2D8"/>
<path d="M2033.84 340.162C2036.52 338.849 2037.11 334.555 2035.16 330.571C2033.22 326.587 2029.47 324.423 2026.8 325.736C2024.12 327.05 2023.53 331.344 2025.48 335.327C2027.42 339.311 2031.17 341.476 2033.84 340.162Z" fill="#D4D2D8"/>
<path d="M2123.67 511.788C2126.34 510.475 2126.93 506.18 2124.99 502.197C2123.04 498.213 2119.3 496.049 2116.62 497.362C2113.95 498.676 2113.36 502.97 2115.3 506.953C2117.25 510.937 2120.99 513.102 2123.67 511.788Z" fill="#D4D2D8"/>
<path d="M2118.93 463.097C2141.61 451.957 2146.63 415.537 2130.13 381.75C2113.63 347.964 2081.87 329.606 2059.18 340.745C2036.5 351.885 2031.48 388.305 2047.98 422.092C2064.48 455.878 2096.24 474.236 2118.93 463.097Z" fill="#D4D2D8"/>
<path opacity="0.44" d="M2208.41 549.812C2208.41 719.492 2071.24 857.027 1902.06 857.027C1816.67 857.027 1739.44 821.977 1683.87 765.457C1871.59 821.757 2138.87 773.949 2204.52 500.683C2207.07 516.685 2208.41 533.088 2208.41 549.812Z" fill="#CCCACE"/>
<path opacity="0.43" d="M2208.41 549.812C2208.41 592.051 2199.9 632.308 2184.52 668.94C2138.13 779.456 2029.12 857.026 1902.06 857.026C1864.82 857.026 1829.11 850.357 1796.08 838.139C1973.96 871.126 2174.02 748.192 2208.41 549.812Z" fill="#CCCACE"/>
<g opacity="0.09">
<path d="M2190.14 838.725C2349.25 679.165 2349.25 420.468 2190.14 260.908C2031.03 101.349 1773.07 101.349 1613.96 260.908C1454.85 420.468 1454.85 679.165 1613.96 838.725C1773.07 998.284 2031.03 998.284 2190.14 838.725Z" fill="#FAFFE6"/>
<g style="mix-blend-mode:screen" opacity="0.75">
<path d="M2190.14 838.725C2349.25 679.165 2349.25 420.468 2190.14 260.908C2031.03 101.349 1773.07 101.349 1613.96 260.908C1454.85 420.468 1454.85 679.165 1613.96 838.725C1773.07 998.284 2031.03 998.284 2190.14 838.725Z" fill="white"/>
</g>
</g>
<path d="M2007.41 584.34C1986.52 600.903 1936.88 636.414 1936.88 636.414C1992.14 686.444 2028.31 567.777 2007.41 584.34Z" fill="black"/>
<path d="M1931.5 773.487C1919 772.766 1902.04 773.487 1902.04 773.487V807.876C1924.67 808.777 1943.98 774.208 1931.5 773.487Z" fill="black"/>
<path d="M2108.99 469.637C2118.1 426.937 2123.77 382.714 2107.51 346.042L2105.4 341.255L2100.22 340.635C2051.57 334.806 2028.78 362.966 2012.17 383.515C1996.85 402.442 1988.72 411.254 1971.47 404.565C1948.38 395.612 1923.19 392.187 1902.06 395.052C1880.93 392.187 1855.75 395.632 1832.66 404.565C1815.41 411.254 1807.28 402.442 1791.96 383.515C1775.34 362.966 1752.58 334.826 1703.91 340.635L1698.73 341.255L1696.62 346.042C1680.36 382.714 1686.03 426.937 1695.14 469.637C1684.85 483.897 1649.54 538.034 1658.29 598.7L1660.83 616.244L1673.69 604.067C1674.89 602.946 1676.16 601.804 1677.46 600.722C1671.23 632.007 1689.45 678.212 1691.66 683.7L1698.73 701.104L1708.1 684.821C1708.1 684.821 1712.37 677.431 1718.05 670.241C1725.97 660.207 1730.37 658.364 1731.53 658.043C1733.18 659.806 1734.94 661.689 1736.8 663.691C1750.4 678.212 1769.05 698.1 1791.62 723.877C1795.12 727.862 1800.65 737.936 1806.5 748.612C1826.39 784.863 1856.13 839.019 1898.33 839.019C1899.57 839.019 1900.81 838.959 1902.04 838.859C1903.3 838.959 1904.54 839.019 1905.78 839.019C1947.98 839.019 1977.7 784.863 1997.61 748.612C2003.46 737.936 2008.99 727.862 2012.49 723.877C2035.06 698.1 2053.71 678.212 2067.31 663.691C2069.19 661.689 2070.94 659.806 2072.58 658.043C2073.74 658.364 2078.13 660.207 2086.06 670.241C2091.74 677.431 2095.97 684.761 2096.01 684.821L2105.38 701.144L2112.47 683.72C2114.7 678.232 2132.9 632.027 2126.67 600.742C2127.96 601.824 2129.24 602.966 2130.42 604.087L2143.28 616.284L2145.82 598.72C2154.57 538.054 2119.26 483.917 2108.97 469.657L2108.99 469.637ZM2118.16 575.507C2113.6 566.053 2105.96 551.313 2096.05 536.351C2073.12 501.742 2049.97 483.657 2027.23 482.635C1979.61 480.452 1948.64 500.441 1903.42 558.863C1903.42 558.863 1985.45 499.139 2026.39 501.021C2059.92 502.544 2094.27 565.833 2105.46 591.77C2105.92 595.275 2106.99 598.459 2107.65 600.362C2112.75 615.403 2107.09 641.32 2101.4 659.866C2094.17 650.533 2084.41 640.859 2074.44 639.698C2068.71 639.037 2063.32 641.059 2059.24 645.426C2057.58 647.188 2055.83 649.071 2053.95 651.094C2040.25 665.714 2021.49 685.743 1998.71 711.739C1993.89 717.247 1988.44 727.181 1981.53 739.759C1963.24 773.106 1934.72 823.758 1902.06 820.774C1869.39 823.758 1840.89 773.106 1822.6 739.759C1815.69 727.181 1810.23 717.247 1805.42 711.739C1782.63 685.743 1763.88 665.714 1750.18 651.094C1748.3 649.091 1746.53 647.208 1744.89 645.426C1740.81 641.059 1735.42 639.037 1729.69 639.698C1719.72 640.859 1709.96 650.533 1702.73 659.866C1697.04 641.32 1691.38 615.403 1696.48 600.362C1697.12 598.459 1698.21 595.275 1698.67 591.77C1709.86 565.853 1744.21 502.544 1777.74 501.021C1818.68 499.159 1903.42 558.863 1903.42 558.863C1858.23 500.421 1824.53 480.452 1776.92 482.635C1754.17 483.677 1731.01 501.742 1708.1 536.351C1698.17 551.333 1690.54 566.053 1685.99 575.507C1682.14 575.767 1678.36 577.57 1675.31 579.452C1675.31 524.895 1711.79 478.049 1712.19 477.528L1714.91 474.103L1713.97 469.817C1705.46 430.922 1699.39 390.665 1711.39 358.44C1746.31 356.237 1762.26 376.005 1777.72 395.132C1789.28 409.432 1802.09 425.254 1822.12 425.254C1827.31 425.254 1833 424.193 1839.29 421.749C1859.98 413.718 1885.09 410.694 1903.42 413.438C1921.76 410.694 1944.14 413.718 1964.86 421.749C1995.33 433.566 2011.85 413.137 2026.43 395.132C2041.91 376.005 2057.84 356.237 2092.75 358.44C2104.76 390.685 2098.69 430.922 2090.18 469.817L2089.24 474.103L2091.95 477.528C2092.35 478.049 2128.88 524.735 2128.86 579.452C2125.81 577.57 2122.03 575.767 2118.18 575.507H2118.16Z" fill="black"/>
<path d="M1867.23 636.414C1867.23 636.414 1817.58 600.903 1796.69 584.34C1775.8 567.777 1811.95 686.444 1867.23 636.414Z" fill="black"/>
<path d="M1902.06 807.876V773.487C1902.06 773.487 1885.11 772.766 1872.61 773.487C1860.1 774.208 1879.44 808.777 1902.06 807.876Z" fill="black"/>
<path d="M1831.88 619.188C1831.88 619.188 1841.29 630.204 1834.06 645.285C1834.06 645.285 1822.34 638.876 1831.88 619.188Z" fill="#EAEAEA"/>
<path d="M1972.23 619.188C1972.23 619.188 1962.82 630.204 1970.05 645.285C1970.05 645.285 1981.77 638.876 1972.23 619.188Z" fill="#EAEAEA"/>
<mask id="mask1_308_615" style="mask-type:luminance" maskUnits="userSpaceOnUse" x="-26" y="-4" width="3866" height="2164">
<path d="M3839.83 -3.37012H-26V2159.69H3839.83V-3.37012Z" fill="white"/>
</mask>
<g mask="url(#mask1_308_615)">
<path d="M3551.92 1389.32V1430.48H3562.49L3561.47 1394.47L3551.92 1389.32Z" fill="#6D0909"/>
<path d="M3551.92 1389.32V1430.48H3541.38L3542.4 1394.47L3551.92 1389.32Z" fill="#7F1717"/>
<path d="M3521.61 1576.62C3521.61 1576.62 3450.79 1574.02 3441.62 1565.65V1477.34C3441.62 1477.34 3474.91 1433.98 3476.09 1421.45C3476.09 1421.45 3504.75 1486.04 3521.61 1483.61" fill="#452A4C"/>
<path d="M3634.15 1479.45V1566.71L3521.61 1576.63V1483.63L3634.15 1467.43V1479.45Z" fill="#2F1C33"/>
<path d="M3481.6 1573.96V1532.48C3481.6 1532.48 3473.47 1507.41 3460.99 1530.4L3462.23 1571.62L3481.6 1573.98V1573.96Z" fill="#6D2D41"/>
<path d="M3480.01 1572.12V1534.37C3480.01 1534.37 3472.62 1511.53 3461.23 1532.46L3462.35 1569.98L3479.99 1572.12H3480.01Z" fill="#4C1E2F"/>
<path d="M3645.33 1471.88C3645.33 1471.88 3608.22 1453.07 3591.41 1413.35L3467.88 1421.45C3467.88 1421.45 3497.38 1496.41 3527.14 1496.95C3556.9 1497.49 3645.35 1471.88 3645.35 1471.88H3645.33Z" fill="#54182E"/>
<path d="M3622.8 1465.07C3622.8 1465.07 3593.4 1444.36 3580.32 1414.08L3478.41 1420.76C3478.41 1420.76 3503.11 1485.6 3525.86 1485.84C3548.61 1486.08 3622.8 1465.07 3622.8 1465.07Z" fill="#6D2D41"/>
<path d="M3590.25 1510.77C3590.25 1510.77 3605.79 1514.88 3609.92 1510.69C3609.92 1510.69 3612.06 1544.12 3617.01 1549.53C3617.01 1549.53 3595.28 1552.65 3593.48 1552.07L3590.25 1510.79V1510.77Z" fill="#F1A639"/>
<g style="mix-blend-mode:screen">
<path d="M3608.38 1516.74C3609.04 1524.87 3610.1 1541.36 3613.88 1549.97C3607.78 1550.81 3594.86 1552.51 3593.5 1552.07L3590.69 1516.3C3590.69 1516.3 3604.03 1518.26 3608.38 1516.76V1516.74Z" fill="#F1A639"/>
</g>
<path d="M3590.25 1510.77C3590.25 1510.77 3605.79 1514.88 3609.92 1510.69C3609.92 1510.69 3612.06 1544.12 3617.01 1549.53C3617.01 1549.53 3595.28 1552.65 3593.48 1552.07L3590.25 1510.79V1510.77Z" stroke="#6D2D41" stroke-width="0.5" stroke-miterlimit="10"/>
<path d="M3600.53 1512.47L3604.37 1551.27" stroke="#6D2D41" stroke-width="0.5" stroke-miterlimit="10"/>
<path d="M3612.42 1530.88L3592.49 1532.86" stroke="#6D2D41" stroke-width="0.5" stroke-miterlimit="10"/>
<path d="M3543.24 1516.36C3543.24 1516.36 3558.77 1520.47 3562.91 1516.28C3562.91 1516.28 3565.04 1549.71 3570 1555.11C3570 1555.11 3548.27 1558.24 3546.47 1557.66L3543.24 1516.38V1516.36Z" fill="#F1A639"/>
<g style="mix-blend-mode:screen">
<path d="M3561.35 1522.31C3562.01 1530.44 3563.07 1546.92 3566.84 1555.54C3560.75 1556.38 3547.83 1558.08 3546.47 1557.64L3543.65 1521.87C3543.65 1521.87 3557 1523.83 3561.35 1522.33V1522.31Z" fill="#F1A639"/>
</g>
<path d="M3543.24 1516.36C3543.24 1516.36 3558.77 1520.47 3562.91 1516.28C3562.91 1516.28 3565.04 1549.71 3570 1555.11C3570 1555.11 3548.27 1558.24 3546.47 1557.66L3543.24 1516.38V1516.36Z" stroke="#6D2D41" stroke-width="0.5" stroke-miterlimit="10"/>
<path d="M3553.5 1518.06L3557.34 1556.86" stroke="#6D2D41" stroke-width="0.5" stroke-miterlimit="10"/>
<path d="M3565.38 1536.47L3545.45 1538.45" stroke="#6D2D41" stroke-width="0.5" stroke-miterlimit="10"/>
<path d="M3467.88 1421.47C3467.88 1421.47 3445.41 1476.06 3433.41 1481.29L3436.09 1489.12C3436.09 1489.12 3462.21 1460.86 3471.78 1430.58L3467.88 1421.47Z" fill="#6D2D41"/>
<path d="M3459.55 1491.83C3459.27 1499.24 3463.85 1505.36 3469.74 1505.75C3475.65 1506.13 3480.94 1500.62 3481.6 1493.23C3482.28 1485.58 3477.75 1478.87 3471.46 1478.47C3465.17 1478.07 3459.83 1484.17 3459.53 1491.85L3459.55 1491.83Z" fill="#F1A639"/>
<path d="M3459.55 1491.83C3459.27 1499.24 3463.85 1505.36 3469.74 1505.75C3475.65 1506.13 3480.94 1500.62 3481.6 1493.23C3482.28 1485.58 3477.75 1478.87 3471.46 1478.47C3465.17 1478.07 3459.83 1484.17 3459.53 1491.85L3459.55 1491.83Z" fill="#F1A639"/>
<path d="M3459.55 1491.83C3459.27 1499.24 3463.85 1505.36 3469.74 1505.75C3475.65 1506.13 3480.94 1500.62 3481.6 1493.23C3482.28 1485.58 3477.75 1478.87 3471.46 1478.47C3465.17 1478.07 3459.83 1484.17 3459.53 1491.85L3459.55 1491.83Z" fill="#F1A639"/>
<g style="mix-blend-mode:screen">
<path d="M3460.27 1492.35C3460.03 1498.63 3463.91 1503.82 3468.9 1504.14C3473.91 1504.46 3478.41 1499.8 3478.95 1493.53C3479.53 1487.06 3475.69 1481.35 3470.36 1481.03C3465.03 1480.69 3460.51 1485.86 3460.25 1492.37L3460.27 1492.35Z" fill="#F1A639"/>
</g>
<path d="M3469.74 1505.74L3471.48 1478.45" stroke="#6D2D41" stroke-width="0.5" stroke-miterlimit="10"/>
<path d="M3481.62 1493.21L3459.55 1491.83" stroke="#6D2D41" stroke-width="0.5" stroke-miterlimit="10"/>
<path d="M3459.55 1491.83C3459.27 1499.24 3463.85 1505.36 3469.74 1505.75C3475.65 1506.13 3480.94 1500.62 3481.6 1493.23C3482.28 1485.58 3477.75 1478.87 3471.46 1478.47C3465.17 1478.07 3459.83 1484.17 3459.53 1491.85L3459.55 1491.83Z" stroke="#6D2D41" stroke-width="0.5" stroke-miterlimit="10"/>
<path d="M1028.82 1606.35V1647.49H1018.28L1019.3 1611.49L1028.82 1606.35Z" fill="#6D0909"/>
<path d="M1028.82 1606.35V1647.49H1039.39L1038.37 1611.49L1028.82 1606.35Z" fill="#7F1717"/>
<path d="M1059.16 1793.65C1059.16 1793.65 1129.98 1791.05 1139.15 1782.68V1694.37C1139.15 1694.37 1105.85 1651.01 1104.68 1638.47C1104.68 1638.47 1076.02 1703.06 1059.16 1700.64" fill="#452A4C"/>
<path d="M946.619 1696.47V1783.72L1059.16 1793.65V1700.64L946.619 1684.46V1696.47Z" fill="#2F1C33"/>
<path d="M1099.14 1790.99V1749.51C1099.14 1749.51 1107.27 1724.43 1119.75 1747.43L1118.52 1788.64L1099.14 1791.01V1790.99Z" fill="#6D2D41"/>
<path d="M1100.76 1789.15V1751.39C1100.76 1751.39 1108.15 1728.56 1119.53 1749.49L1118.42 1787L1100.78 1789.15H1100.76Z" fill="#4C1E2F"/>
<path d="M935.436 1688.88C935.436 1688.88 972.543 1670.08 989.359 1630.36L1112.88 1638.45C1112.88 1638.45 1083.39 1713.42 1053.63 1713.96C1023.87 1714.5 935.416 1688.88 935.416 1688.88H935.436Z" fill="#54182E"/>
<path d="M957.943 1682.1C957.943 1682.1 987.341 1661.39 1000.42 1631.1L1102.34 1637.79C1102.34 1637.79 1077.63 1702.62 1054.89 1702.86C1032.14 1703.11 957.943 1682.1 957.943 1682.1Z" fill="#6D2D41"/>
<path d="M990.517 1727.78C990.517 1727.78 974.979 1731.89 970.845 1727.7C970.845 1727.7 968.708 1761.13 963.755 1766.53C963.755 1766.53 985.485 1769.66 987.282 1769.08L990.517 1727.8V1727.78Z" fill="#F1A639"/>
<g style="mix-blend-mode:screen">
<path d="M972.383 1733.75C971.724 1741.88 970.666 1758.36 966.891 1766.97C972.982 1767.82 985.904 1769.52 987.262 1769.08L990.078 1733.31C990.078 1733.31 976.737 1735.27 972.383 1733.77V1733.75Z" fill="#F1A639"/>
</g>
<path d="M990.517 1727.78C990.517 1727.78 974.979 1731.89 970.845 1727.7C970.845 1727.7 968.708 1761.13 963.755 1766.53C963.755 1766.53 985.485 1769.66 987.282 1769.08L990.517 1727.8V1727.78Z" stroke="#6D2D41" stroke-width="0.5" stroke-miterlimit="10"/>
<path d="M980.232 1729.5L976.396 1768.3" stroke="#6D2D41" stroke-width="0.5" stroke-miterlimit="10"/>
<path d="M968.349 1747.91L988.281 1749.89" stroke="#6D2D41" stroke-width="0.5" stroke-miterlimit="10"/>
<path d="M1037.53 1733.37C1037.53 1733.37 1021.99 1737.47 1017.86 1733.29C1017.86 1733.29 1015.72 1766.71 1010.77 1772.12C1010.77 1772.12 1032.5 1775.25 1034.3 1774.67L1037.53 1733.39V1733.37Z" fill="#F1A639"/>
<g style="mix-blend-mode:screen">
<path d="M1019.4 1739.34C1018.74 1747.47 1017.68 1763.95 1013.9 1772.56C1020 1773.4 1032.92 1775.11 1034.28 1774.67L1037.09 1738.9C1037.09 1738.9 1023.75 1740.86 1019.4 1739.36V1739.34Z" fill="#F1A639"/>
</g>
<path d="M1037.53 1733.37C1037.53 1733.37 1021.99 1737.47 1017.86 1733.29C1017.86 1733.29 1015.72 1766.71 1010.77 1772.12C1010.77 1772.12 1032.5 1775.25 1034.3 1774.67L1037.53 1733.39V1733.37Z" stroke="#6D2D41" stroke-width="0.5" stroke-miterlimit="10"/>
<path d="M1027.25 1735.09L1023.41 1773.86" stroke="#6D2D41" stroke-width="0.5" stroke-miterlimit="10"/>
<path d="M1015.36 1753.5L1035.29 1755.48" stroke="#6D2D41" stroke-width="0.5" stroke-miterlimit="10"/>
<path d="M1112.88 1638.47C1112.88 1638.47 1135.35 1693.07 1147.35 1698.3L1144.68 1706.13C1144.68 1706.13 1118.56 1677.87 1108.99 1647.59L1112.88 1638.47Z" fill="#6D2D41"/>
<path d="M1121.21 1708.85C1121.49 1716.26 1116.92 1722.39 1111.03 1722.77C1105.12 1723.15 1099.82 1717.64 1099.16 1710.25C1098.48 1702.6 1103.02 1695.89 1109.31 1695.49C1115.6 1695.09 1120.93 1701.2 1121.23 1708.87L1121.21 1708.85Z" fill="#F1A639"/>
<path d="M1121.21 1708.85C1121.49 1716.26 1116.92 1722.39 1111.03 1722.77C1105.12 1723.15 1099.82 1717.64 1099.16 1710.25C1098.48 1702.6 1103.02 1695.89 1109.31 1695.49C1115.6 1695.09 1120.93 1701.2 1121.23 1708.87L1121.21 1708.85Z" fill="#F1A639"/>
<path d="M1121.21 1708.85C1121.49 1716.26 1116.92 1722.39 1111.03 1722.77C1105.12 1723.15 1099.82 1717.64 1099.16 1710.25C1098.48 1702.6 1103.02 1695.89 1109.31 1695.49C1115.6 1695.09 1120.93 1701.2 1121.23 1708.87L1121.21 1708.85Z" fill="#F1A639"/>
<g style="mix-blend-mode:screen">
<path d="M1120.49 1709.35C1120.73 1715.64 1116.86 1720.83 1111.86 1721.15C1106.87 1721.47 1102.36 1716.8 1101.82 1710.53C1101.28 1704.27 1105.07 1698.36 1110.41 1698.04C1115.74 1697.7 1120.25 1702.86 1120.51 1709.37L1120.49 1709.35Z" fill="#F1A639"/>
</g>
<path d="M1111.01 1722.75L1109.29 1695.47" stroke="#6D2D41" stroke-width="0.5" stroke-miterlimit="10"/>
<path d="M1099.14 1710.23L1121.21 1708.85" stroke="#6D2D41" stroke-width="0.5" stroke-miterlimit="10"/>
<path d="M1121.21 1708.85C1121.49 1716.26 1116.92 1722.39 1111.03 1722.77C1105.12 1723.15 1099.82 1717.64 1099.16 1710.25C1098.48 1702.6 1103.02 1695.89 1109.31 1695.49C1115.6 1695.09 1120.93 1701.2 1121.23 1708.87L1121.21 1708.85Z" stroke="#6D2D41" stroke-width="0.5" stroke-miterlimit="10"/>
<path d="M1319.71 2162.21L1351.59 1946.45C1351.59 1946.45 1520.65 1816.08 1853.11 1839.64C2185.58 1863.19 2447.91 1984.36 2447.91 1984.36L2439.9 2159.69" fill="#0C231F"/>
<path d="M1936.89 2160.07L1480.52 2159.69H1.08105V1679.75C133.474 1679.21 263.929 1681.83 391.428 1688.22C416.652 1689.48 441.755 1690.89 466.76 1692.45C684.731 1706.03 893.414 1731.08 1087.94 1770.4C1152.73 1783.5 1215.94 1798.18 1277.39 1814.54C1411.66 1850.29 1821.24 2107.15 1936.89 2160.09V2160.07Z" fill="#1B2D2C"/>
<path d="M3842.21 1548.42V2160.07H1683.85C1696.46 2152.6 2346.33 1810.74 2830.17 1674.5C2898.53 1655.26 2968.73 1637.11 3039.93 1620.77C3220.75 1579.27 3408.13 1549.31 3588.67 1542.04C3596.2 1541.74 3603.73 1541.47 3611.24 1541.25C3620.39 1540.97 3629.51 1540.75 3638.6 1540.61C3664.84 1540.17 3690.91 1540.25 3716.75 1540.85C3718.57 1540.89 3720.38 1540.93 3722.18 1540.99C3723.36 1541.01 3724.54 1541.05 3725.7 1541.09C3765.08 1542.22 3803.97 1544.64 3842.19 1548.42H3842.21Z" fill="#263F3E"/>
<path d="M999.765 2160.07C1062.38 2139.98 1108.87 2094.92 1082.53 1991.63C1045.6 1846.81 788.105 1740.4 545.05 1698.04C502.47 1700.24 501.312 1689.28 459.132 1692.01C496.898 1714.34 537.68 1735.91 579.481 1759.46C765.098 1864.07 785.748 2038.76 541.315 2160.09" fill="#95979E"/>
<path d="M2984.95 2159.33L2788.93 2159.69C2735.4 2158.41 2643.29 2154.92 2668.02 2060.81C2688.33 1983.58 2808.14 1915.91 2941.79 1893.31C2965.2 1894.48 2987.62 1899.56 3010.81 1901C2990.04 1912.92 2967.61 1924.42 2944.62 1936.98C2837.9 1995.32 2830.35 2094.52 2984.93 2159.31L2984.95 2159.33Z" fill="#95979E"/>
<path opacity="0.1" d="M364.426 1837.97L364.566 1838.05C364.526 1837.97 364.486 1837.91 364.426 1837.85C364.665 1829.24 361.31 1827.28 361.31 1827.28C361.59 1831.24 363.407 1835.75 364.126 1837.39C359.772 1830.56 356.098 1830.74 356.098 1830.74C358.774 1834.29 363.447 1837.37 364.386 1837.95C364.406 1838.01 364.426 1838.05 364.426 1838.05C364.426 1838.03 364.426 1838.01 364.426 1837.99V1837.97Z" fill="white"/>
<path opacity="0.1" d="M495.42 1921.99L495.56 1922.07C495.52 1921.99 495.48 1921.93 495.42 1921.87C495.66 1913.26 492.304 1911.3 492.304 1911.3C492.584 1915.26 494.401 1919.77 495.12 1921.41C490.767 1914.58 487.092 1914.76 487.092 1914.76C489.768 1918.31 494.441 1921.39 495.38 1921.97C495.4 1922.03 495.42 1922.07 495.42 1922.07C495.42 1922.05 495.42 1922.03 495.42 1922.01V1921.99Z" fill="white"/>
<path opacity="0.1" d="M560.088 1904.63L560.228 1904.71C560.188 1904.63 560.148 1904.57 560.088 1904.51C560.328 1895.9 556.972 1893.93 556.972 1893.93C557.252 1897.9 559.069 1902.41 559.788 1904.05C555.435 1897.22 551.76 1897.4 551.76 1897.4C554.436 1900.94 559.109 1904.03 560.048 1904.61C560.068 1904.67 560.088 1904.71 560.088 1904.71C560.088 1904.69 560.088 1904.67 560.088 1904.65V1904.63Z" fill="white"/>
<path opacity="0.1" d="M642.631 1927.02L642.771 1927.1C642.731 1927.02 642.691 1926.96 642.631 1926.9C642.871 1918.29 639.515 1916.33 639.515 1916.33C639.795 1920.29 641.612 1924.8 642.331 1926.44C637.978 1919.61 634.303 1919.79 634.303 1919.79C636.979 1923.34 641.652 1926.42 642.591 1927C642.611 1927.06 642.631 1927.1 642.631 1927.1C642.631 1927.08 642.631 1927.06 642.631 1927.04V1927.02Z" fill="white"/>
<path opacity="0.1" d="M274.612 1875.69L274.752 1875.77C274.712 1875.69 274.672 1875.63 274.612 1875.57C274.852 1866.96 271.497 1864.99 271.497 1864.99C271.776 1868.96 273.594 1873.47 274.313 1875.11C269.959 1868.28 266.284 1868.46 266.284 1868.46C268.96 1872 273.634 1875.09 274.572 1875.67C274.592 1875.73 274.612 1875.77 274.612 1875.77C274.612 1875.75 274.612 1875.73 274.612 1875.71V1875.69Z" fill="white"/>
<path opacity="0.1" d="M44.3799 1789.51L44.5197 1789.59C44.4798 1789.51 44.4399 1789.45 44.3799 1789.39C44.6196 1780.77 41.2644 1778.81 41.2644 1778.81C41.544 1782.78 43.3614 1787.28 44.0804 1788.93C39.7265 1782.1 36.0518 1782.28 36.0518 1782.28C38.728 1785.82 43.4013 1788.91 44.34 1789.49C44.36 1789.55 44.3799 1789.59 44.3799 1789.59C44.3799 1789.57 44.3799 1789.55 44.3799 1789.53V1789.51Z" fill="white"/>
<path opacity="0.1" d="M133.474 1861.19L133.613 1861.27C133.574 1861.19 133.534 1861.13 133.474 1861.07C133.713 1852.46 130.358 1850.49 130.358 1850.49C130.638 1854.46 132.455 1858.96 133.174 1860.61C128.819 1853.78 125.146 1853.96 125.146 1853.96C127.822 1857.5 132.495 1860.59 133.434 1861.17C133.454 1861.23 133.474 1861.27 133.474 1861.27C133.474 1861.25 133.474 1861.23 133.474 1861.21V1861.19Z" fill="white"/>
<path opacity="0.1" d="M214.598 1822.25L214.738 1822.33C214.698 1822.25 214.658 1822.19 214.598 1822.13C214.838 1813.52 211.483 1811.56 211.483 1811.56C211.762 1815.52 213.58 1820.03 214.299 1821.67C209.945 1814.84 206.27 1815.02 206.27 1815.02C208.946 1818.57 213.62 1821.65 214.558 1822.23C214.578 1822.29 214.598 1822.33 214.598 1822.33C214.598 1822.31 214.598 1822.29 214.598 1822.27V1822.25Z" fill="white"/>
<path opacity="0.1" d="M298.978 1779.21L299.117 1779.29C299.077 1779.21 299.037 1779.15 298.978 1779.09C299.217 1770.48 295.862 1768.52 295.862 1768.52C296.142 1772.48 297.959 1776.99 298.678 1778.63C294.324 1771.8 290.649 1771.98 290.649 1771.98C293.326 1775.53 297.999 1778.61 298.938 1779.19C298.958 1779.25 298.978 1779.29 298.978 1779.29C298.978 1779.27 298.978 1779.25 298.978 1779.23V1779.21Z" fill="white"/>
<path opacity="0.1" d="M144.678 1746.14L144.818 1746.22C144.778 1746.14 144.738 1746.08 144.678 1746.02C144.917 1737.41 141.562 1735.45 141.562 1735.45C141.842 1739.41 143.659 1743.92 144.378 1745.56C140.024 1738.73 136.35 1738.91 136.35 1738.91C139.026 1742.46 143.699 1745.54 144.638 1746.12C144.658 1746.18 144.678 1746.22 144.678 1746.22C144.678 1746.2 144.678 1746.18 144.678 1746.16V1746.14Z" fill="white"/>
<path opacity="0.1" d="M473.311 1842.12L473.45 1842.2C473.41 1842.12 473.371 1842.06 473.311 1842C473.55 1833.39 470.195 1831.43 470.195 1831.43C470.475 1835.39 472.292 1839.9 473.011 1841.54C468.657 1834.71 464.982 1834.89 464.982 1834.89C467.659 1838.44 472.332 1841.52 473.271 1842.1C473.291 1842.16 473.311 1842.2 473.311 1842.2C473.311 1842.18 473.311 1842.16 473.311 1842.14V1842.12Z" fill="white"/>
<path opacity="0.1" d="M354.779 1907.55L354.919 1907.63C354.879 1907.55 354.839 1907.49 354.779 1907.43C355.019 1898.82 351.663 1896.86 351.663 1896.86C351.943 1900.82 353.76 1905.33 354.479 1906.97C350.125 1900.14 346.451 1900.32 346.451 1900.32C349.127 1903.87 353.8 1906.95 354.739 1907.53C354.759 1907.59 354.779 1907.63 354.779 1907.63C354.779 1907.61 354.779 1907.59 354.779 1907.57V1907.55Z" fill="white"/>
<path opacity="0.1" d="M1361.73 1973.99L1361.85 1974.11C1361.83 1974.03 1361.79 1973.95 1361.77 1973.87C1363.87 1965.51 1361.03 1962.85 1361.03 1962.85C1360.45 1966.78 1361.23 1971.58 1361.57 1973.35C1358.81 1965.73 1355.18 1965.09 1355.18 1965.09C1357.02 1969.14 1360.91 1973.17 1361.69 1973.95C1361.69 1974.01 1361.71 1974.05 1361.71 1974.05C1361.71 1974.03 1361.71 1974.01 1361.71 1973.99H1361.73Z" fill="white"/>
<path opacity="0.1" d="M1471.32 2084.62L1471.44 2084.74C1471.42 2084.66 1471.38 2084.58 1471.36 2084.5C1473.45 2076.15 1470.62 2073.49 1470.62 2073.49C1470.04 2077.41 1470.82 2082.22 1471.16 2083.98C1468.4 2076.37 1464.76 2075.73 1464.76 2075.73C1466.6 2079.78 1470.5 2083.8 1471.28 2084.58C1471.28 2084.64 1471.3 2084.68 1471.3 2084.68C1471.3 2084.66 1471.3 2084.64 1471.3 2084.62H1471.32Z" fill="white"/>
<path opacity="0.1" d="M1538.2 2081.82L1538.32 2081.94C1538.3 2081.86 1538.26 2081.78 1538.24 2081.7C1540.34 2073.35 1537.5 2070.68 1537.5 2070.68C1536.92 2074.61 1537.7 2079.42 1538.04 2081.18C1535.28 2073.57 1531.65 2072.93 1531.65 2072.93C1533.49 2076.97 1537.38 2081 1538.16 2081.78C1538.16 2081.84 1538.18 2081.88 1538.18 2081.88C1538.18 2081.86 1538.18 2081.84 1538.18 2081.82H1538.2Z" fill="white"/>
<path opacity="0.1" d="M1613.87 2121.72L1613.99 2121.84C1613.97 2121.76 1613.93 2121.68 1613.91 2121.6C1616.01 2113.24 1613.17 2110.58 1613.17 2110.58C1612.59 2114.51 1613.37 2119.31 1613.71 2121.08C1610.96 2113.47 1607.32 2112.82 1607.32 2112.82C1609.16 2116.87 1613.05 2120.9 1613.83 2121.68C1613.83 2121.74 1613.85 2121.78 1613.85 2121.78C1613.85 2121.76 1613.85 2121.74 1613.85 2121.72H1613.87Z" fill="white"/>
<path opacity="0.1" d="M1265.89 1991.15L1266.01 1991.27C1265.99 1991.19 1265.95 1991.11 1265.93 1991.03C1268.02 1982.68 1265.19 1980.02 1265.19 1980.02C1264.61 1983.94 1265.39 1988.75 1265.73 1990.51C1262.97 1982.9 1259.34 1982.26 1259.34 1982.26C1261.17 1986.3 1265.07 1990.33 1265.85 1991.11C1265.85 1991.17 1265.87 1991.21 1265.87 1991.21C1265.87 1991.19 1265.87 1991.17 1265.87 1991.15H1265.89Z" fill="white"/>
<path opacity="0.1" d="M1059.94 1856.68L1060.06 1856.8C1060.04 1856.72 1060 1856.64 1059.98 1856.56C1062.08 1848.21 1059.24 1845.55 1059.24 1845.55C1058.66 1849.47 1059.44 1854.28 1059.78 1856.04C1057.02 1848.43 1053.39 1847.79 1053.39 1847.79C1055.23 1851.83 1059.12 1855.86 1059.9 1856.64C1059.9 1856.7 1059.92 1856.74 1059.92 1856.74C1059.92 1856.72 1059.92 1856.7 1059.92 1856.68H1059.94Z" fill="white"/>
<path opacity="0.1" d="M1131.3 1946.13L1131.42 1946.25C1131.4 1946.17 1131.36 1946.09 1131.34 1946.01C1133.43 1937.66 1130.6 1934.99 1130.6 1934.99C1130.02 1938.92 1130.8 1943.72 1131.14 1945.49C1128.38 1937.88 1124.75 1937.24 1124.75 1937.24C1126.58 1941.28 1130.48 1945.31 1131.26 1946.09C1131.26 1946.15 1131.28 1946.19 1131.28 1946.19C1131.28 1946.17 1131.28 1946.15 1131.28 1946.13H1131.3Z" fill="white"/>
<path opacity="0.1" d="M1218.93 1925.88L1219.05 1926C1219.03 1925.92 1218.99 1925.84 1218.97 1925.76C1221.07 1917.41 1218.23 1914.74 1218.23 1914.74C1217.65 1918.67 1218.43 1923.48 1218.77 1925.24C1216.02 1917.63 1212.38 1916.99 1212.38 1916.99C1214.22 1921.03 1218.11 1925.06 1218.89 1925.84C1218.89 1925.9 1218.91 1925.94 1218.91 1925.94C1218.91 1925.92 1218.91 1925.9 1218.91 1925.88H1218.93Z" fill="white"/>
<path opacity="0.1" d="M1310.64 1902.33L1310.76 1902.45C1310.74 1902.37 1310.7 1902.29 1310.68 1902.21C1312.78 1893.85 1309.94 1891.19 1309.94 1891.19C1309.36 1895.12 1310.14 1899.92 1310.48 1901.68C1307.73 1894.07 1304.09 1893.43 1304.09 1893.43C1305.93 1897.48 1309.82 1901.5 1310.6 1902.29C1310.6 1902.35 1310.62 1902.39 1310.62 1902.39C1310.62 1902.37 1310.62 1902.35 1310.62 1902.33H1310.64Z" fill="white"/>
<path opacity="0.1" d="M1167.25 1836.31L1167.37 1836.43C1167.35 1836.35 1167.31 1836.27 1167.29 1836.19C1169.38 1827.84 1166.55 1825.18 1166.55 1825.18C1165.97 1829.1 1166.75 1833.91 1167.09 1835.67C1164.33 1828.06 1160.7 1827.42 1160.7 1827.42C1162.53 1831.47 1166.43 1835.49 1167.21 1836.27C1167.21 1836.33 1167.23 1836.37 1167.23 1836.37C1167.23 1836.35 1167.23 1836.33 1167.23 1836.31H1167.25Z" fill="white"/>
<path opacity="0.1" d="M1467.1 2001.85L1467.22 2001.97C1467.2 2001.89 1467.16 2001.81 1467.14 2001.73C1469.24 1993.37 1466.4 1990.71 1466.4 1990.71C1465.82 1994.64 1466.6 1999.44 1466.94 2001.21C1464.19 1993.59 1460.55 1992.95 1460.55 1992.95C1462.39 1997 1466.28 2001.03 1467.06 2001.81C1467.06 2001.87 1467.08 2001.91 1467.08 2001.91C1467.08 2001.89 1467.08 2001.87 1467.08 2001.85H1467.1Z" fill="white"/>
<path opacity="0.1" d="M1337.19 2039.78L1337.31 2039.9C1337.29 2039.82 1337.25 2039.74 1337.23 2039.66C1339.32 2031.31 1336.49 2028.64 1336.49 2028.64C1335.91 2032.57 1336.69 2037.38 1337.03 2039.14C1334.27 2031.53 1330.64 2030.89 1330.64 2030.89C1332.47 2034.93 1336.37 2038.96 1337.15 2039.74C1337.15 2039.8 1337.17 2039.84 1337.17 2039.84C1337.17 2039.82 1337.17 2039.8 1337.17 2039.78H1337.19Z" fill="white"/>
<path opacity="0.1" d="M2383.96 1991.75L2383.84 1991.87C2383.86 1991.79 2383.9 1991.71 2383.92 1991.63C2381.82 1983.28 2384.66 1980.62 2384.66 1980.62C2385.24 1984.54 2384.46 1989.35 2384.12 1991.11C2386.88 1983.5 2390.51 1982.86 2390.51 1982.86C2388.67 1986.91 2384.78 1990.93 2384 1991.71C2384 1991.77 2383.98 1991.81 2383.98 1991.81C2383.98 1991.79 2383.98 1991.77 2383.98 1991.75H2383.96Z" fill="white"/>
<path opacity="0.1" d="M2274.4 2102.39L2274.28 2102.51C2274.3 2102.43 2274.34 2102.35 2274.36 2102.27C2272.26 2093.92 2275.1 2091.25 2275.1 2091.25C2275.67 2095.18 2274.9 2099.98 2274.56 2101.75C2277.31 2094.14 2280.95 2093.5 2280.95 2093.5C2279.11 2097.54 2275.22 2101.57 2274.44 2102.35C2274.44 2102.41 2274.42 2102.45 2274.42 2102.45C2274.42 2102.43 2274.42 2102.41 2274.42 2102.39H2274.4Z" fill="white"/>
<path opacity="0.1" d="M2207.49 2099.59L2207.37 2099.71C2207.39 2099.63 2207.43 2099.55 2207.45 2099.47C2205.35 2091.11 2208.19 2088.45 2208.19 2088.45C2208.77 2092.38 2207.99 2097.18 2207.65 2098.95C2210.41 2091.33 2214.04 2090.69 2214.04 2090.69C2212.2 2094.74 2208.31 2098.76 2207.53 2099.55C2207.53 2099.61 2207.51 2099.65 2207.51 2099.65C2207.51 2099.63 2207.51 2099.61 2207.51 2099.59H2207.49Z" fill="white"/>
<path opacity="0.1" d="M2131.82 2139.48L2131.7 2139.6C2131.72 2139.52 2131.76 2139.44 2131.78 2139.36C2129.68 2131.01 2132.52 2128.35 2132.52 2128.35C2133.1 2132.27 2132.32 2137.08 2131.98 2138.84C2134.73 2131.23 2138.37 2130.59 2138.37 2130.59C2136.53 2134.63 2132.64 2138.66 2131.86 2139.44C2131.86 2139.5 2131.84 2139.54 2131.84 2139.54C2131.84 2139.52 2131.84 2139.5 2131.84 2139.48H2131.82Z" fill="white"/>
<path opacity="0.1" d="M2479.8 2008.92L2479.68 2009.04C2479.7 2008.96 2479.74 2008.88 2479.76 2008.8C2477.67 2000.44 2480.5 1997.78 2480.5 1997.78C2481.08 2001.71 2480.3 2006.51 2479.96 2008.28C2482.72 2000.66 2486.35 2000.02 2486.35 2000.02C2484.52 2004.07 2480.62 2008.09 2479.84 2008.88C2479.84 2008.94 2479.82 2008.98 2479.82 2008.98C2479.82 2008.96 2479.82 2008.94 2479.82 2008.92H2479.8Z" fill="white"/>
<path opacity="0.1" d="M2685.75 1874.45L2685.63 1874.57C2685.65 1874.49 2685.69 1874.41 2685.71 1874.33C2683.62 1865.97 2686.45 1863.31 2686.45 1863.31C2687.03 1867.24 2686.25 1872.04 2685.91 1873.81C2688.67 1866.19 2692.3 1865.55 2692.3 1865.55C2690.47 1869.6 2686.57 1873.63 2685.79 1874.41C2685.79 1874.47 2685.77 1874.51 2685.77 1874.51C2685.77 1874.49 2685.77 1874.47 2685.77 1874.45H2685.75Z" fill="white"/>
<path opacity="0.1" d="M2614.41 1963.89L2614.29 1964.01C2614.31 1963.93 2614.35 1963.85 2614.37 1963.77C2612.28 1955.42 2615.11 1952.76 2615.11 1952.76C2615.69 1956.68 2614.91 1961.49 2614.57 1963.25C2617.33 1955.64 2620.96 1955 2620.96 1955C2619.13 1959.05 2615.23 1963.07 2614.45 1963.85C2614.45 1963.91 2614.43 1963.95 2614.43 1963.95C2614.43 1963.93 2614.43 1963.91 2614.43 1963.89H2614.41Z" fill="white"/>
<path opacity="0.1" d="M2526.76 1943.63L2526.64 1943.75C2526.66 1943.67 2526.7 1943.58 2526.72 1943.5C2524.62 1935.15 2527.46 1932.49 2527.46 1932.49C2528.04 1936.41 2527.26 1941.22 2526.92 1942.98C2529.67 1935.37 2533.31 1934.73 2533.31 1934.73C2531.47 1938.78 2527.58 1942.8 2526.8 1943.58C2526.8 1943.64 2526.78 1943.69 2526.78 1943.69C2526.78 1943.67 2526.78 1943.65 2526.78 1943.63H2526.76Z" fill="white"/>
<path opacity="0.1" d="M2435.07 1920.09L2434.95 1920.21C2434.97 1920.13 2435.01 1920.05 2435.03 1919.97C2432.93 1911.62 2435.77 1908.96 2435.77 1908.96C2436.35 1912.88 2435.57 1917.69 2435.23 1919.45C2437.98 1911.84 2441.62 1911.2 2441.62 1911.2C2439.78 1915.24 2435.89 1919.27 2435.11 1920.05C2435.11 1920.11 2435.09 1920.15 2435.09 1920.15C2435.09 1920.13 2435.09 1920.11 2435.09 1920.09H2435.07Z" fill="white"/>
<path opacity="0.1" d="M2578.44 1854.06L2578.32 1854.18C2578.34 1854.1 2578.38 1854.02 2578.4 1853.94C2576.31 1845.59 2579.14 1842.92 2579.14 1842.92C2579.72 1846.85 2578.94 1851.65 2578.6 1853.42C2581.36 1845.81 2584.99 1845.17 2584.99 1845.17C2583.16 1849.21 2579.26 1853.24 2578.48 1854.02C2578.48 1854.08 2578.46 1854.12 2578.46 1854.12C2578.46 1854.1 2578.46 1854.08 2578.46 1854.06H2578.44Z" fill="white"/>
<path opacity="0.1" d="M2278.59 2019.61L2278.47 2019.73C2278.49 2019.65 2278.53 2019.57 2278.55 2019.49C2276.45 2011.14 2279.29 2008.48 2279.29 2008.48C2279.87 2012.4 2279.09 2017.21 2278.75 2018.97C2281.51 2011.36 2285.14 2010.72 2285.14 2010.72C2283.3 2014.76 2279.41 2018.79 2278.63 2019.57C2278.63 2019.63 2278.61 2019.67 2278.61 2019.67C2278.61 2019.65 2278.61 2019.63 2278.61 2019.61H2278.59Z" fill="white"/>
<path opacity="0.1" d="M2408.51 2057.53L2408.39 2057.65C2408.41 2057.57 2408.45 2057.49 2408.47 2057.41C2406.37 2049.05 2409.2 2046.39 2409.2 2046.39C2409.78 2050.32 2409 2055.12 2408.67 2056.88C2411.42 2049.27 2415.06 2048.63 2415.06 2048.63C2413.22 2052.68 2409.32 2056.7 2408.55 2057.49C2408.55 2057.55 2408.53 2057.59 2408.53 2057.59C2408.53 2057.57 2408.53 2057.55 2408.53 2057.53H2408.51Z" fill="white"/>
<path opacity="0.1" d="M3586.99 2092.15L3586.87 2092.27C3586.89 2092.19 3586.93 2092.11 3586.95 2092.03C3584.86 2083.68 3587.69 2081.02 3587.69 2081.02C3588.27 2084.94 3587.49 2089.75 3587.15 2091.51C3589.91 2083.9 3593.54 2083.26 3593.54 2083.26C3591.71 2087.31 3587.81 2091.33 3587.03 2092.11C3587.03 2092.17 3587.01 2092.21 3587.01 2092.21C3587.01 2092.19 3587.01 2092.17 3587.01 2092.15H3586.99Z" fill="white"/>
<path opacity="0.1" d="M3682.86 2109.34L3682.74 2109.46C3682.76 2109.38 3682.8 2109.3 3682.82 2109.22C3680.72 2100.87 3683.56 2098.2 3683.56 2098.2C3684.14 2102.13 3683.36 2106.93 3683.02 2108.7C3685.77 2101.09 3689.41 2100.45 3689.41 2100.45C3687.57 2104.49 3683.68 2108.52 3682.9 2109.3C3682.9 2109.36 3682.88 2109.4 3682.88 2109.4C3682.88 2109.38 3682.88 2109.36 3682.88 2109.34H3682.86Z" fill="white"/>
<path opacity="0.1" d="M3817.45 2064.29L3817.33 2064.42C3817.35 2064.33 3817.39 2064.25 3817.41 2064.17C3815.31 2055.82 3818.15 2053.16 3818.15 2053.16C3818.72 2057.08 3817.95 2061.89 3817.61 2063.65C3820.36 2056.04 3824 2055.4 3824 2055.4C3822.16 2059.45 3818.27 2063.47 3817.49 2064.25C3817.49 2064.31 3817.47 2064.35 3817.47 2064.35C3817.47 2064.33 3817.47 2064.31 3817.47 2064.29H3817.45Z" fill="white"/>
<path opacity="0.1" d="M3729.81 2044.05L3729.69 2044.17C3729.71 2044.09 3729.75 2044.01 3729.77 2043.93C3727.67 2035.57 3730.51 2032.91 3730.51 2032.91C3731.09 2036.84 3730.31 2041.64 3729.97 2043.4C3732.73 2035.79 3736.36 2035.15 3736.36 2035.15C3734.52 2039.2 3730.63 2043.22 3729.85 2044.01C3729.85 2044.07 3729.83 2044.11 3729.83 2044.11C3729.83 2044.09 3729.83 2044.07 3729.83 2044.05H3729.81Z" fill="white"/>
<path opacity="0.1" d="M3638.1 2020.51L3637.98 2020.63C3638 2020.55 3638.04 2020.47 3638.06 2020.39C3635.96 2012.04 3638.8 2009.38 3638.8 2009.38C3639.38 2013.3 3638.6 2018.11 3638.26 2019.87C3641.02 2012.26 3644.65 2011.62 3644.65 2011.62C3642.81 2015.67 3638.92 2019.69 3638.14 2020.47C3638.14 2020.53 3638.12 2020.57 3638.12 2020.57C3638.12 2020.55 3638.12 2020.53 3638.12 2020.51H3638.1Z" fill="white"/>
<path opacity="0.1" d="M3781.5 1954.48L3781.38 1954.6C3781.4 1954.52 3781.44 1954.44 3781.46 1954.36C3779.36 1946.01 3782.2 1943.34 3782.2 1943.34C3782.78 1947.27 3782 1952.08 3781.66 1953.84C3784.41 1946.23 3788.05 1945.59 3788.05 1945.59C3786.21 1949.63 3782.32 1953.66 3781.54 1954.44C3781.54 1954.5 3781.52 1954.54 3781.52 1954.54C3781.52 1954.52 3781.52 1954.5 3781.52 1954.48H3781.5Z" fill="white"/>
<path opacity="0.1" d="M3481.62 2120.01L3481.5 2120.13C3481.52 2120.05 3481.56 2119.97 3481.58 2119.89C3479.49 2111.54 3482.32 2108.88 3482.32 2108.88C3482.9 2112.8 3482.12 2117.61 3481.78 2119.37C3484.54 2111.76 3488.17 2111.12 3488.17 2111.12C3486.34 2115.17 3482.44 2119.19 3481.66 2119.97C3481.66 2120.03 3481.64 2120.07 3481.64 2120.07C3481.64 2120.05 3481.64 2120.03 3481.64 2120.01H3481.62Z" fill="white"/>
<path opacity="0.1" d="M3611.54 2157.95L3611.42 2158.07C3611.44 2157.99 3611.48 2157.91 3611.5 2157.83C3609.4 2149.48 3612.24 2146.81 3612.24 2146.81C3612.82 2150.74 3612.04 2155.54 3611.7 2157.31C3614.45 2149.7 3618.09 2149.05 3618.09 2149.05C3616.25 2153.1 3612.36 2157.13 3611.58 2157.91C3611.58 2157.97 3611.56 2158.01 3611.56 2158.01C3611.56 2157.99 3611.56 2157.97 3611.56 2157.95H3611.54Z" fill="white"/>
<path opacity="0.1" d="M3345.7 1981.1L3345.58 1981.22C3345.6 1981.14 3345.64 1981.06 3345.66 1980.98C3343.56 1972.63 3346.39 1969.96 3346.39 1969.96C3346.97 1973.89 3346.2 1978.69 3345.86 1980.46C3348.61 1972.85 3352.25 1972.21 3352.25 1972.21C3350.41 1976.25 3346.51 1980.28 3345.74 1981.06C3345.74 1981.12 3345.72 1981.16 3345.72 1981.16C3345.72 1981.14 3345.72 1981.12 3345.72 1981.1H3345.7Z" fill="white"/>
<path opacity="0.1" d="M3236.11 2091.73L3235.99 2091.85C3236.01 2091.77 3236.05 2091.69 3236.07 2091.61C3233.97 2083.26 3236.81 2080.6 3236.81 2080.6C3237.39 2084.52 3236.61 2089.33 3236.27 2091.09C3239.03 2083.48 3242.66 2082.84 3242.66 2082.84C3240.82 2086.89 3236.93 2090.91 3236.15 2091.69C3236.15 2091.75 3236.13 2091.79 3236.13 2091.79C3236.13 2091.77 3236.13 2091.75 3236.13 2091.73H3236.11Z" fill="white"/>
<path opacity="0.1" d="M3169.23 2088.95L3169.11 2089.07C3169.13 2088.99 3169.17 2088.91 3169.19 2088.83C3167.09 2080.48 3169.92 2077.81 3169.92 2077.81C3170.5 2081.74 3169.73 2086.55 3169.39 2088.31C3172.14 2080.7 3175.78 2080.06 3175.78 2080.06C3173.94 2084.1 3170.04 2088.13 3169.27 2088.91C3169.27 2088.97 3169.25 2089.01 3169.25 2089.01C3169.25 2088.99 3169.25 2088.97 3169.25 2088.95H3169.23Z" fill="white"/>
<path opacity="0.1" d="M3093.55 2128.83L3093.43 2128.95C3093.45 2128.87 3093.49 2128.79 3093.51 2128.71C3091.42 2120.35 3094.25 2117.69 3094.25 2117.69C3094.83 2121.62 3094.05 2126.42 3093.71 2128.19C3096.47 2120.57 3100.1 2119.93 3100.1 2119.93C3098.27 2123.98 3094.37 2128 3093.59 2128.79C3093.59 2128.85 3093.57 2128.89 3093.57 2128.89C3093.57 2128.87 3093.57 2128.85 3093.57 2128.83H3093.55Z" fill="white"/>
<path opacity="0.1" d="M3441.54 1998.26L3441.42 1998.38C3441.44 1998.3 3441.48 1998.22 3441.5 1998.14C3439.4 1989.79 3442.24 1987.13 3442.24 1987.13C3442.82 1991.05 3442.04 1995.86 3441.7 1997.62C3444.46 1990.01 3448.09 1989.37 3448.09 1989.37C3446.25 1993.41 3442.36 1997.44 3441.58 1998.22C3441.58 1998.28 3441.56 1998.32 3441.56 1998.32C3441.56 1998.3 3441.56 1998.28 3441.56 1998.26H3441.54Z" fill="white"/>
<path opacity="0.1" d="M3647.49 1863.79L3647.37 1863.91C3647.39 1863.83 3647.43 1863.75 3647.45 1863.67C3645.35 1855.32 3648.19 1852.66 3648.19 1852.66C3648.77 1856.58 3647.99 1861.39 3647.65 1863.15C3650.4 1855.54 3654.04 1854.9 3654.04 1854.9C3652.2 1858.94 3648.31 1862.97 3647.53 1863.75C3647.53 1863.81 3647.51 1863.85 3647.51 1863.85C3647.51 1863.83 3647.51 1863.81 3647.51 1863.79H3647.49Z" fill="white"/>
<path opacity="0.1" d="M3576.13 1953.24L3576.01 1953.36C3576.03 1953.28 3576.07 1953.2 3576.09 1953.12C3573.99 1944.77 3576.83 1942.1 3576.83 1942.1C3577.41 1946.03 3576.63 1950.83 3576.29 1952.6C3579.04 1944.99 3582.68 1944.34 3582.68 1944.34C3580.84 1948.39 3576.95 1952.42 3576.17 1953.2C3576.17 1953.26 3576.15 1953.3 3576.15 1953.3C3576.15 1953.28 3576.15 1953.26 3576.15 1953.24H3576.13Z" fill="white"/>
<path opacity="0.1" d="M3488.49 1932.99L3488.37 1933.11C3488.39 1933.03 3488.43 1932.95 3488.45 1932.87C3486.36 1924.52 3489.19 1921.85 3489.19 1921.85C3489.77 1925.78 3488.99 1930.59 3488.65 1932.35C3491.41 1924.74 3495.04 1924.1 3495.04 1924.1C3493.21 1928.14 3489.31 1932.17 3488.53 1932.95C3488.53 1933.01 3488.51 1933.05 3488.51 1933.05C3488.51 1933.03 3488.51 1933.01 3488.51 1932.99H3488.49Z" fill="white"/>
<path opacity="0.1" d="M3396.78 1909.44L3396.66 1909.56C3396.68 1909.48 3396.72 1909.4 3396.74 1909.32C3394.65 1900.96 3397.48 1898.3 3397.48 1898.3C3398.06 1902.23 3397.28 1907.03 3396.94 1908.79C3399.7 1901.18 3403.33 1900.54 3403.33 1900.54C3401.5 1904.59 3397.6 1908.61 3396.82 1909.4C3396.82 1909.46 3396.8 1909.5 3396.8 1909.5C3396.8 1909.48 3396.8 1909.46 3396.8 1909.44H3396.78Z" fill="white"/>
<path opacity="0.1" d="M3540.18 1843.42L3540.06 1843.54C3540.08 1843.46 3540.12 1843.38 3540.14 1843.3C3538.04 1834.95 3540.88 1832.29 3540.88 1832.29C3541.46 1836.21 3540.68 1841.02 3540.34 1842.78C3543.1 1835.17 3546.73 1834.53 3546.73 1834.53C3544.89 1838.58 3541 1842.6 3540.22 1843.38C3540.22 1843.44 3540.2 1843.48 3540.2 1843.48C3540.2 1843.46 3540.2 1843.44 3540.2 1843.42H3540.18Z" fill="white"/>
<path opacity="0.1" d="M3240.33 2008.96L3240.21 2009.08C3240.23 2009 3240.27 2008.92 3240.29 2008.84C3238.19 2000.48 3241.02 1997.82 3241.02 1997.82C3241.6 2001.75 3240.82 2006.55 3240.49 2008.32C3243.24 2000.7 3246.88 2000.06 3246.88 2000.06C3245.04 2004.11 3241.14 2008.13 3240.37 2008.92C3240.37 2008.98 3240.35 2009.02 3240.35 2009.02C3240.35 2009 3240.35 2008.98 3240.35 2008.96H3240.33Z" fill="white"/>
<path opacity="0.1" d="M3370.24 2046.89L3370.12 2047.01C3370.14 2046.93 3370.18 2046.85 3370.2 2046.77C3368.1 2038.42 3370.94 2035.75 3370.94 2035.75C3371.52 2039.68 3370.74 2044.49 3370.4 2046.25C3373.16 2038.64 3376.79 2038 3376.79 2038C3374.95 2042.04 3371.06 2046.07 3370.28 2046.85C3370.28 2046.91 3370.26 2046.95 3370.26 2046.95C3370.26 2046.93 3370.26 2046.91 3370.26 2046.89H3370.24Z" fill="white"/>
<path opacity="0.1" d="M3400.06 1666.11L3399.92 1666.19C3399.96 1666.11 3400.02 1666.05 3400.06 1665.99C3400.08 1657.38 3403.57 1655.5 3403.57 1655.5C3403.17 1659.44 3401.16 1663.91 3400.38 1665.53C3405.03 1658.82 3408.81 1659.08 3408.81 1659.08C3405.95 1662.57 3401.08 1665.51 3400.1 1666.09C3400.08 1666.15 3400.06 1666.19 3400.06 1666.19C3400.06 1666.17 3400.06 1666.15 3400.06 1666.13V1666.11Z" fill="white"/>
<path opacity="0.1" d="M3263.39 1746.75L3263.25 1746.83C3263.29 1746.75 3263.35 1746.69 3263.39 1746.63C3263.41 1738.01 3266.91 1736.13 3266.91 1736.13C3266.49 1740.08 3264.49 1744.54 3263.71 1746.17C3268.37 1739.46 3272.14 1739.72 3272.14 1739.72C3269.28 1743.2 3264.41 1746.14 3263.43 1746.73C3263.41 1746.79 3263.39 1746.83 3263.39 1746.83C3263.39 1746.81 3263.39 1746.79 3263.39 1746.77V1746.75Z" fill="white"/>
<path opacity="0.1" d="M3197.77 1727.74L3197.63 1727.82C3197.67 1727.74 3197.73 1727.68 3197.77 1727.62C3197.79 1719.01 3201.28 1717.12 3201.28 1717.12C3200.88 1721.07 3198.86 1725.53 3198.09 1727.16C3202.74 1720.45 3206.51 1720.71 3206.51 1720.71C3203.66 1724.19 3198.78 1727.14 3197.81 1727.72C3197.79 1727.78 3197.77 1727.82 3197.77 1727.82C3197.77 1727.8 3197.77 1727.78 3197.77 1727.76V1727.74Z" fill="white"/>
<path opacity="0.1" d="M3112.63 1748.01L3112.49 1748.09C3112.53 1748.01 3112.59 1747.95 3112.63 1747.89C3112.65 1739.28 3116.14 1737.39 3116.14 1737.39C3115.74 1741.34 3113.73 1745.8 3112.95 1747.43C3117.6 1740.72 3121.37 1740.98 3121.37 1740.98C3118.52 1744.46 3113.65 1747.41 3112.67 1747.99C3112.65 1748.05 3112.63 1748.09 3112.63 1748.09C3112.63 1748.07 3112.63 1748.05 3112.63 1748.03V1748.01Z" fill="white"/>
<path opacity="0.1" d="M3490.75 1706.11L3490.61 1706.19C3490.65 1706.11 3490.71 1706.05 3490.75 1705.99C3490.77 1697.38 3494.26 1695.49 3494.26 1695.49C3493.87 1699.44 3491.85 1703.91 3491.07 1705.53C3495.72 1698.82 3499.5 1699.08 3499.5 1699.08C3496.64 1702.56 3491.77 1705.51 3490.79 1706.09C3490.77 1706.15 3490.75 1706.19 3490.75 1706.19C3490.75 1706.17 3490.75 1706.15 3490.75 1706.13V1706.11Z" fill="white"/>
<path opacity="0.1" d="M3729.01 1625.82L3728.87 1625.9C3728.91 1625.82 3728.97 1625.76 3729.01 1625.7C3729.03 1617.08 3732.53 1615.2 3732.53 1615.2C3732.13 1619.15 3730.11 1623.61 3729.33 1625.23C3733.98 1618.52 3737.76 1618.79 3737.76 1618.79C3734.9 1622.27 3730.03 1625.21 3729.05 1625.8C3729.03 1625.86 3729.01 1625.9 3729.01 1625.9C3729.01 1625.88 3729.01 1625.86 3729.01 1625.84V1625.82Z" fill="white"/>
<path opacity="0.1" d="M3635.62 1695.19L3635.48 1695.27C3635.52 1695.19 3635.58 1695.13 3635.62 1695.07C3635.64 1686.46 3639.14 1684.58 3639.14 1684.58C3638.74 1688.52 3636.72 1692.99 3635.94 1694.61C3640.6 1687.9 3644.37 1688.16 3644.37 1688.16C3641.52 1691.65 3636.64 1694.59 3635.66 1695.17C3635.64 1695.23 3635.62 1695.27 3635.62 1695.27C3635.62 1695.25 3635.62 1695.23 3635.62 1695.21V1695.19Z" fill="white"/>
<path opacity="0.1" d="M3553.84 1654.22L3553.7 1654.3C3553.74 1654.22 3553.8 1654.16 3553.84 1654.1C3553.86 1645.48 3557.36 1643.6 3557.36 1643.6C3556.96 1647.55 3554.94 1652.01 3554.16 1653.63C3558.81 1646.93 3562.59 1647.19 3562.59 1647.19C3559.73 1650.67 3554.86 1653.61 3553.88 1654.2C3553.86 1654.26 3553.84 1654.3 3553.84 1654.3C3553.84 1654.28 3553.84 1654.26 3553.84 1654.24V1654.22Z" fill="white"/>
<path opacity="0.1" d="M3468.86 1609.05L3468.72 1609.13C3468.76 1609.05 3468.82 1608.99 3468.86 1608.93C3468.88 1600.32 3472.38 1598.44 3472.38 1598.44C3471.98 1602.38 3469.96 1606.85 3469.18 1608.47C3473.83 1601.76 3477.61 1602.02 3477.61 1602.02C3474.75 1605.51 3469.88 1608.45 3468.9 1609.03C3468.88 1609.09 3468.86 1609.13 3468.86 1609.13C3468.86 1609.11 3468.86 1609.09 3468.86 1609.07V1609.05Z" fill="white"/>
<path opacity="0.1" d="M3627.76 1579.93L3627.62 1580.01C3627.66 1579.93 3627.72 1579.87 3627.76 1579.81C3627.78 1571.2 3631.27 1569.32 3631.27 1569.32C3630.87 1573.26 3628.85 1577.73 3628.08 1579.35C3632.73 1572.64 3636.5 1572.9 3636.5 1572.9C3633.65 1576.39 3628.77 1579.33 3627.8 1579.91C3627.78 1579.97 3627.76 1580.01 3627.76 1580.01C3627.76 1579.99 3627.76 1579.97 3627.76 1579.95V1579.93Z" fill="white"/>
<path opacity="0.1" d="M3288.5 1667.47L3288.36 1667.55C3288.4 1667.47 3288.46 1667.41 3288.5 1667.35C3288.52 1658.74 3292.01 1656.86 3292.01 1656.86C3291.61 1660.8 3289.6 1665.27 3288.82 1666.89C3293.47 1660.18 3297.24 1660.44 3297.24 1660.44C3294.39 1663.93 3289.52 1666.87 3288.54 1667.45C3288.52 1667.51 3288.5 1667.55 3288.5 1667.55C3288.5 1667.53 3288.5 1667.51 3288.5 1667.49V1667.47Z" fill="white"/>
<path opacity="0.1" d="M3407.75 1735.89L3407.61 1735.97C3407.65 1735.89 3407.71 1735.83 3407.75 1735.77C3407.77 1727.16 3411.26 1725.28 3411.26 1725.28C3410.86 1729.22 3408.85 1733.69 3408.07 1735.31C3412.72 1728.6 3416.5 1728.86 3416.5 1728.86C3413.64 1732.35 3408.77 1735.29 3407.79 1735.87C3407.77 1735.93 3407.75 1735.97 3407.75 1735.97C3407.75 1735.95 3407.75 1735.93 3407.75 1735.91V1735.89Z" fill="white"/>
<path opacity="0.1" d="M1081.09 2050.44L1081.21 2050.56C1081.19 2050.48 1081.15 2050.4 1081.13 2050.32C1083.23 2041.96 1080.39 2039.3 1080.39 2039.3C1079.81 2043.23 1080.59 2048.03 1080.93 2049.79C1078.17 2042.18 1074.54 2041.54 1074.54 2041.54C1076.38 2045.59 1080.27 2049.61 1081.05 2050.4C1081.05 2050.46 1081.07 2050.5 1081.07 2050.5C1081.07 2050.48 1081.07 2050.46 1081.07 2050.44H1081.09Z" fill="white"/>
<path opacity="0.1" d="M1152.45 2139.86L1152.57 2139.98C1152.55 2139.9 1152.51 2139.82 1152.49 2139.74C1154.58 2131.39 1151.75 2128.73 1151.75 2128.73C1151.17 2132.65 1151.95 2137.46 1152.29 2139.22C1149.53 2131.61 1145.9 2130.97 1145.9 2130.97C1147.73 2135.02 1151.63 2139.04 1152.41 2139.82C1152.41 2139.88 1152.43 2139.92 1152.43 2139.92C1152.43 2139.9 1152.43 2139.88 1152.43 2139.86H1152.45Z" fill="white"/>
<path opacity="0.1" d="M1240.08 2119.61L1240.2 2119.73C1240.18 2119.65 1240.14 2119.57 1240.12 2119.49C1242.22 2111.14 1239.38 2108.48 1239.38 2108.48C1238.81 2112.4 1239.58 2117.21 1239.92 2118.97C1237.17 2111.36 1233.53 2110.72 1233.53 2110.72C1235.37 2114.77 1239.26 2118.79 1240.04 2119.57C1240.04 2119.63 1240.06 2119.67 1240.06 2119.67C1240.06 2119.65 1240.06 2119.63 1240.06 2119.61H1240.08Z" fill="white"/>
<path opacity="0.1" d="M1331.79 2096.08L1331.91 2096.2C1331.89 2096.12 1331.85 2096.04 1331.83 2095.96C1333.93 2087.61 1331.09 2084.94 1331.09 2084.94C1330.52 2088.87 1331.29 2093.68 1331.63 2095.44C1328.88 2087.83 1325.24 2087.19 1325.24 2087.19C1327.08 2091.23 1330.97 2095.26 1331.75 2096.04C1331.75 2096.1 1331.77 2096.14 1331.77 2096.14C1331.77 2096.12 1331.77 2096.1 1331.77 2096.08H1331.79Z" fill="white"/>
<path opacity="0.1" d="M1188.4 2030.05L1188.52 2030.17C1188.5 2030.09 1188.46 2030.01 1188.44 2029.93C1190.53 2021.57 1187.7 2018.91 1187.7 2018.91C1187.12 2022.84 1187.9 2027.64 1188.24 2029.41C1185.48 2021.8 1181.85 2021.15 1181.85 2021.15C1183.68 2025.2 1187.58 2029.23 1188.36 2030.01C1188.36 2030.07 1188.38 2030.11 1188.38 2030.11C1188.38 2030.09 1188.38 2030.07 1188.38 2030.05H1188.4Z" fill="white"/>
<path d="M452.441 1526.88V1568.01H441.896L442.895 1532.02L452.441 1526.88Z" fill="#6D0909"/>
<path d="M452.44 1526.88V1568.01H462.985L461.966 1532.02L452.44 1526.88Z" fill="#7F1717"/>
<path d="M482.758 1714.18C482.758 1714.18 553.577 1711.58 562.744 1703.2V1614.9C562.744 1614.9 529.452 1571.54 528.273 1559C528.273 1559 499.614 1623.59 482.758 1621.17" fill="#452A4C"/>
<path d="M370.237 1617V1704.27L482.757 1714.18V1621.19L370.237 1604.99V1617Z" fill="#2F1C33"/>
<path d="M522.761 1711.52V1670.04C522.761 1670.04 530.89 1644.96 543.372 1667.95L542.134 1709.17L522.761 1711.54V1711.52Z" fill="#6D2D41"/>
<path d="M524.379 1709.67V1671.92C524.379 1671.92 531.769 1649.09 543.153 1670.02L542.034 1707.53L524.399 1709.67H524.379Z" fill="#4C1E2F"/>
<path d="M359.034 1609.43C359.034 1609.43 396.141 1590.63 412.957 1550.91L536.482 1559C536.482 1559 506.984 1633.97 477.226 1634.51C447.468 1635.05 359.014 1609.43 359.014 1609.43H359.034Z" fill="#54182E"/>
<path d="M381.562 1602.62C381.562 1602.62 410.959 1581.91 424.04 1551.63L525.956 1558.32C525.956 1558.32 501.252 1623.15 478.504 1623.39C455.756 1623.63 381.562 1602.62 381.562 1602.62Z" fill="#6D2D41"/>
<path d="M414.115 1648.33C414.115 1648.33 398.577 1652.43 394.443 1648.25C394.443 1648.25 392.306 1681.67 387.353 1687.08C387.353 1687.08 409.082 1690.21 410.88 1689.63L414.115 1648.35V1648.33Z" fill="#F1A639"/>
<g style="mix-blend-mode:screen">
<path d="M395.98 1654.3C395.321 1662.43 394.262 1678.91 390.488 1687.52C396.579 1688.36 409.501 1690.07 410.859 1689.63L413.675 1653.85C413.675 1653.85 400.334 1655.82 395.98 1654.32V1654.3Z" fill="#F1A639"/>
</g>
<path d="M414.115 1648.33C414.115 1648.33 398.577 1652.43 394.443 1648.25C394.443 1648.25 392.306 1681.67 387.353 1687.08C387.353 1687.08 409.082 1690.21 410.88 1689.63L414.115 1648.35V1648.33Z" stroke="#6D2D41" stroke-width="0.5" stroke-miterlimit="10"/>
<path d="M403.829 1650.03L399.994 1688.82" stroke="#6D2D41" stroke-width="0.5" stroke-miterlimit="10"/>
<path d="M391.946 1668.43L411.877 1670.42" stroke="#6D2D41" stroke-width="0.5" stroke-miterlimit="10"/>
<path d="M461.149 1653.91C461.149 1653.91 445.611 1658.02 441.477 1653.83C441.477 1653.83 439.34 1687.26 434.387 1692.67C434.387 1692.67 456.116 1695.79 457.913 1695.21L461.149 1653.93V1653.91Z" fill="#F1A639"/>
<g style="mix-blend-mode:screen">
<path d="M443.014 1659.86C442.355 1668 441.296 1684.48 437.521 1693.09C443.613 1693.93 456.535 1695.63 457.893 1695.19L460.709 1659.42C460.709 1659.42 447.367 1661.39 443.014 1659.88V1659.86Z" fill="#F1A639"/>
</g>
<path d="M461.149 1653.91C461.149 1653.91 445.611 1658.02 441.477 1653.83C441.477 1653.83 439.34 1687.26 434.387 1692.67C434.387 1692.67 456.116 1695.79 457.913 1695.21L461.149 1653.93V1653.91Z" stroke="#6D2D41" stroke-width="0.5" stroke-miterlimit="10"/>
<path d="M450.862 1655.62L447.028 1694.41" stroke="#6D2D41" stroke-width="0.5" stroke-miterlimit="10"/>
<path d="M438.979 1674.02L458.911 1676.01" stroke="#6D2D41" stroke-width="0.5" stroke-miterlimit="10"/>
<path d="M536.482 1559C536.482 1559 558.95 1613.6 570.953 1618.83L568.277 1626.66C568.277 1626.66 542.154 1598.4 532.587 1568.11L536.482 1559Z" fill="#6D2D41"/>
<path d="M544.81 1629.38C545.09 1636.79 540.516 1642.92 534.625 1643.3C528.713 1643.68 523.421 1638.17 522.762 1630.78C522.083 1623.13 526.616 1616.42 532.907 1616.02C539.198 1615.62 544.531 1621.73 544.83 1629.4L544.81 1629.38Z" fill="#F1A639"/>
<path d="M544.81 1629.38C545.09 1636.79 540.516 1642.92 534.625 1643.3C528.713 1643.68 523.421 1638.17 522.762 1630.78C522.083 1623.13 526.616 1616.42 532.907 1616.02C539.198 1615.62 544.531 1621.73 544.83 1629.4L544.81 1629.38Z" fill="#F1A639"/>
<path d="M544.81 1629.38C545.09 1636.79 540.516 1642.92 534.625 1643.3C528.713 1643.68 523.421 1638.17 522.762 1630.78C522.083 1623.13 526.616 1616.42 532.907 1616.02C539.198 1615.62 544.531 1621.73 544.83 1629.4L544.81 1629.38Z" fill="#F1A639"/>
<g style="mix-blend-mode:screen">
<path d="M544.09 1629.9C544.329 1636.19 540.455 1641.38 535.462 1641.7C530.469 1642.02 525.955 1637.35 525.416 1631.08C524.877 1624.81 528.672 1618.9 534.004 1618.58C539.336 1618.24 543.85 1623.41 544.11 1629.92L544.09 1629.9Z" fill="#F1A639"/>
</g>
<path d="M534.624 1643.3L532.887 1616" stroke="#6D2D41" stroke-width="0.5" stroke-miterlimit="10"/>
<path d="M522.761 1630.76L544.81 1629.38" stroke="#6D2D41" stroke-width="0.5" stroke-miterlimit="10"/>
<path d="M544.81 1629.38C545.09 1636.79 540.516 1642.92 534.625 1643.3C528.713 1643.68 523.421 1638.17 522.762 1630.78C522.083 1623.13 526.616 1616.42 532.907 1616.02C539.198 1615.62 544.531 1621.73 544.83 1629.4L544.81 1629.38Z" stroke="#6D2D41" stroke-width="0.5" stroke-miterlimit="10"/>
<path d="M3043.62 1717.12V1758.28H3054.17L3053.15 1722.27L3043.62 1717.12Z" fill="#6D0909"/>
<path d="M3043.62 1717.12V1758.28H3033.08L3034.1 1722.27L3043.62 1717.12Z" fill="#7F1717"/>
<path d="M3013.31 1904.43C3013.31 1904.43 2942.49 1901.82 2933.32 1893.45V1805.15C2933.32 1805.15 2966.61 1761.79 2967.79 1749.25C2967.79 1749.25 2996.45 1813.84 3013.31 1811.42" fill="#452A4C"/>
<path d="M3125.83 1807.25V1894.51L3013.31 1904.43V1811.44L3125.83 1795.23V1807.25Z" fill="#2F1C33"/>
<path d="M2973.3 1901.77V1860.29C2973.3 1860.29 2965.18 1835.21 2952.69 1858.2L2953.93 1899.42L2973.3 1901.79V1901.77Z" fill="#6D2D41"/>
<path d="M2971.69 1899.92V1862.17C2971.69 1862.17 2964.3 1839.34 2952.91 1860.27L2954.03 1897.78L2971.67 1899.92H2971.69Z" fill="#4C1E2F"/>
<path d="M3137.03 1799.68C3137.03 1799.68 3099.92 1780.87 3083.11 1741.16L2959.58 1749.25C2959.58 1749.25 2989.08 1824.22 3018.84 1824.76C3048.6 1825.3 3137.05 1799.68 3137.05 1799.68H3137.03Z" fill="#54182E"/>
<path d="M3114.5 1792.87C3114.5 1792.87 3085.11 1772.16 3072.02 1741.88L2970.11 1748.57C2970.11 1748.57 2994.81 1813.4 3017.56 1813.64C3040.31 1813.88 3114.5 1792.87 3114.5 1792.87Z" fill="#6D2D41"/>
<path d="M3081.95 1838.58C3081.95 1838.58 3097.49 1842.68 3101.62 1838.5C3101.62 1838.5 3103.76 1871.92 3108.71 1877.33C3108.71 1877.33 3086.98 1880.45 3085.19 1879.87L3081.95 1838.6V1838.58Z" fill="#F1A639"/>
<g style="mix-blend-mode:screen">
<path d="M3100.08 1844.54C3100.74 1852.68 3101.8 1869.16 3105.58 1877.77C3099.48 1878.61 3086.56 1880.31 3085.21 1879.87L3082.39 1844.1C3082.39 1844.1 3095.73 1846.07 3100.08 1844.56V1844.54Z" fill="#F1A639"/>
</g>
<path d="M3081.95 1838.58C3081.95 1838.58 3097.49 1842.68 3101.62 1838.5C3101.62 1838.5 3103.76 1871.92 3108.71 1877.33C3108.71 1877.33 3086.98 1880.45 3085.19 1879.87L3081.95 1838.6V1838.58Z" stroke="#6D2D41" stroke-width="0.5" stroke-miterlimit="10"/>
<path d="M3092.24 1840.28L3096.07 1879.07" stroke="#6D2D41" stroke-width="0.5" stroke-miterlimit="10"/>
<path d="M3104.12 1858.68L3084.19 1860.67" stroke="#6D2D41" stroke-width="0.5" stroke-miterlimit="10"/>
<path d="M3034.92 1844.16C3034.92 1844.16 3050.45 1848.27 3054.59 1844.08C3054.59 1844.08 3056.73 1877.51 3061.68 1882.92C3061.68 1882.92 3039.95 1886.04 3038.15 1885.46L3034.92 1844.18V1844.16Z" fill="#F1A639"/>
<g style="mix-blend-mode:screen">
<path d="M3053.05 1850.11C3053.71 1858.24 3054.77 1874.73 3058.54 1883.34C3052.45 1884.18 3039.53 1885.88 3038.17 1885.44L3035.36 1849.67C3035.36 1849.67 3048.7 1851.63 3053.05 1850.13V1850.11Z" fill="#F1A639"/>
</g>
<path d="M3034.92 1844.16C3034.92 1844.16 3050.45 1848.27 3054.59 1844.08C3054.59 1844.08 3056.73 1877.51 3061.68 1882.92C3061.68 1882.92 3039.95 1886.04 3038.15 1885.46L3034.92 1844.18V1844.16Z" stroke="#6D2D41" stroke-width="0.5" stroke-miterlimit="10"/>
<path d="M3045.2 1845.87L3049.04 1884.66" stroke="#6D2D41" stroke-width="0.5" stroke-miterlimit="10"/>
<path d="M3057.09 1864.27L3037.15 1866.25" stroke="#6D2D41" stroke-width="0.5" stroke-miterlimit="10"/>
<path d="M2959.56 1749.27C2959.56 1749.27 2937.1 1803.87 2925.09 1809.09L2927.77 1816.93C2927.77 1816.93 2953.89 1788.67 2963.46 1758.38L2959.56 1749.27Z" fill="#6D2D41"/>
<path d="M2951.26 1819.63C2950.98 1827.04 2955.55 1833.17 2961.44 1833.55C2967.35 1833.93 2972.65 1828.42 2973.3 1821.03C2973.98 1813.38 2969.45 1806.67 2963.16 1806.27C2956.87 1805.87 2951.53 1811.98 2951.24 1819.65L2951.26 1819.63Z" fill="#F1A639"/>
<path d="M2951.26 1819.63C2950.98 1827.04 2955.55 1833.17 2961.44 1833.55C2967.35 1833.93 2972.65 1828.42 2973.3 1821.03C2973.98 1813.38 2969.45 1806.67 2963.16 1806.27C2956.87 1805.87 2951.53 1811.98 2951.24 1819.65L2951.26 1819.63Z" fill="#F1A639"/>
<path d="M2951.26 1819.63C2950.98 1827.04 2955.55 1833.17 2961.44 1833.55C2967.35 1833.93 2972.65 1828.42 2973.3 1821.03C2973.98 1813.38 2969.45 1806.67 2963.16 1806.27C2956.87 1805.87 2951.53 1811.98 2951.24 1819.65L2951.26 1819.63Z" fill="#F1A639"/>
<g style="mix-blend-mode:screen">
<path d="M2951.97 1820.15C2951.73 1826.44 2955.61 1831.63 2960.6 1831.95C2965.6 1832.27 2970.11 1827.6 2970.65 1821.33C2971.23 1814.86 2967.39 1809.15 2962.06 1808.83C2956.73 1808.49 2952.21 1813.66 2951.95 1820.17L2951.97 1820.15Z" fill="#F1A639"/>
</g>
<path d="M2961.44 1833.55L2963.18 1806.25" stroke="#6D2D41" stroke-width="0.5" stroke-miterlimit="10"/>
<path d="M2973.3 1821.01L2951.25 1819.63" stroke="#6D2D41" stroke-width="0.5" stroke-miterlimit="10"/>
<path d="M2951.26 1819.63C2950.98 1827.04 2955.55 1833.17 2961.44 1833.55C2967.35 1833.93 2972.65 1828.42 2973.3 1821.03C2973.98 1813.38 2969.45 1806.67 2963.16 1806.27C2956.87 1805.87 2951.53 1811.98 2951.24 1819.65L2951.26 1819.63Z" stroke="#6D2D41" stroke-width="0.5" stroke-miterlimit="10"/>
<path d="M3797.87 1803.49V1888.85H3819.76L3817.67 1814.16L3797.87 1803.49Z" fill="#6D0909"/>
<path d="M3797.87 1803.49V1888.85H3775.99L3778.1 1814.16L3797.87 1803.49Z" fill="#7F1717"/>
<path d="M3734.96 2192.1C3734.96 2192.1 3588.03 2186.67 3569.02 2169.32V1986.12C3569.02 1986.12 3638.08 1896.16 3640.52 1870.14C3640.52 1870.14 3699.99 2004.17 3734.96 1999.12" fill="#452A4C"/>
<path d="M3968.43 1990.47V2171.49L3734.96 2192.1V1999.14L3968.43 1965.54V1990.47Z" fill="#2F1C33"/>
<path d="M3652 2186.55V2100.49C3652 2100.49 3635.15 2048.45 3609.22 2096.16L3611.8 2181.66L3652 2186.55Z" fill="#6D2D41"/>
<path d="M3648.65 2182.74V2104.39C3648.65 2104.39 3633.29 2057.02 3609.7 2100.45L3612.04 2178.28L3648.65 2182.72V2182.74Z" fill="#4C1E2F"/>
<path d="M3991.66 1974.75C3991.66 1974.75 3914.67 1935.73 3879.78 1853.34L3623.5 1870.14C3623.5 1870.14 3684.71 2025.68 3746.43 2026.78C3808.14 2027.86 3991.68 1974.75 3991.68 1974.75H3991.66Z" fill="#54182E"/>
<path d="M3842.21 1855.82L3645.35 1868.72C3645.35 1868.72 3696.62 2003.21 3743.81 2003.73C3763.94 2003.95 3803.47 1996.14 3842.19 1987.11" fill="#6D2D41"/>
<path d="M3779.82 2067.04C3779.82 2067.04 3812.07 2075.55 3820.64 2066.88C3820.64 2066.88 3825.1 2136.24 3835.34 2147.43C3835.34 2147.43 3790.25 2153.9 3786.55 2152.68L3779.82 2067.02V2067.04Z" fill="#F1A639"/>
<g style="mix-blend-mode:screen">
<path d="M3817.45 2079.4C3818.8 2096.26 3821.02 2130.47 3828.83 2148.33C3816.19 2150.08 3789.37 2153.6 3786.55 2152.68L3780.72 2078.46C3780.72 2078.46 3808.38 2082.54 3817.43 2079.4H3817.45Z" fill="#F1A639"/>
</g>
<path d="M3779.82 2067.04C3779.82 2067.04 3812.07 2075.55 3820.64 2066.88C3820.64 2066.88 3825.1 2136.24 3835.34 2147.43C3835.34 2147.43 3790.25 2153.9 3786.55 2152.68L3779.82 2067.02V2067.04Z" stroke="#6D2D41" stroke-width="0.5" stroke-miterlimit="10"/>
<path d="M3801.15 2070.58L3809.12 2151.06" stroke="#6D2D41" stroke-width="0.5" stroke-miterlimit="10"/>
<path d="M3825.81 2108.76L3784.45 2112.88" stroke="#6D2D41" stroke-width="0.5" stroke-miterlimit="10"/>
<path d="M3623.5 1870.16C3623.5 1870.16 3576.91 1983.44 3552 1994.28L3557.56 2010.54C3557.56 2010.54 3611.76 1951.92 3631.59 1889.09L3623.5 1870.16Z" fill="#6D2D41"/>
<path d="M3606.23 2016.15C3605.65 2031.53 3615.11 2044.25 3627.38 2045.01C3639.64 2045.79 3650.64 2034.35 3652 2019.03C3653.4 2003.17 3644.01 1989.23 3630.97 1988.41C3617.93 1987.59 3606.85 2000.24 3606.25 2016.15H3606.23Z" fill="#F1A639"/>
<path d="M3606.23 2016.15C3605.65 2031.53 3615.11 2044.25 3627.38 2045.01C3639.64 2045.79 3650.64 2034.35 3652 2019.03C3653.4 2003.17 3644.01 1989.23 3630.97 1988.41C3617.93 1987.59 3606.85 2000.24 3606.25 2016.15H3606.23Z" fill="#F1A639"/>
<path d="M3606.23 2016.15C3605.65 2031.53 3615.11 2044.25 3627.38 2045.01C3639.64 2045.79 3650.64 2034.35 3652 2019.03C3653.4 2003.17 3644.01 1989.23 3630.97 1988.41C3617.93 1987.59 3606.85 2000.24 3606.25 2016.15H3606.23Z" fill="#F1A639"/>
<g style="mix-blend-mode:screen">
<path d="M3607.72 2017.21C3607.22 2030.23 3615.25 2041 3625.64 2041.66C3636.02 2042.32 3645.35 2032.63 3646.49 2019.65C3647.69 2006.21 3639.72 1994.4 3628.67 1993.69C3617.63 1992.99 3608.24 2003.71 3607.72 2017.21Z" fill="#F1A639"/>
</g>
<path d="M3627.38 2045.01L3630.97 1988.41" stroke="#6D2D41" stroke-width="0.5" stroke-miterlimit="10"/>
<path d="M3652 2019.03L3606.23 2016.15" stroke="#6D2D41" stroke-width="0.5" stroke-miterlimit="10"/>
<path d="M3606.23 2016.15C3605.65 2031.53 3615.11 2044.25 3627.38 2045.01C3639.64 2045.79 3650.64 2034.35 3652 2019.03C3653.4 2003.17 3644.01 1989.23 3630.97 1988.41C3617.93 1987.59 3606.85 2000.24 3606.25 2016.15H3606.23Z" stroke="#6D2D41" stroke-width="0.5" stroke-miterlimit="10"/>
</g>
</g>
</g>
<defs>
<linearGradient id="paint0_linear_308_615" x1="1927.27" y1="-213.084" x2="1931.66" y2="1080.04" gradientUnits="userSpaceOnUse">
<stop stop-color="#304741"/>
<stop offset="0.4" stop-color="#1D323C"/>
<stop offset="0.77" stop-color="#11253A"/>
</linearGradient>
<clipPath id="clip0_308_615">
<rect width="3840" height="2160" fill="white"/>
</clipPath>
</defs>
</svg>
