<svg width="167" height="157" viewBox="0 0 167 157" fill="none" xmlns="http://www.w3.org/2000/svg">
<path d="M157 11.9996H129.5L126.5 24.4996H155.5C152.7 54.4996 137 72.3329 129.5 77.4995L114 74.9995C100.167 83.6662 80.2999 100.3 111.5 97.4995C150.5 93.9995 166.5 37.4996 166.5 24.4996C166.5 14.0996 160.167 11.8329 157 11.9996Z" fill="#FAD02B"/>
<path d="M9.50001 12.0079H37L40 24.5079H11C13.8 54.5079 29.5 72.3412 37 77.5078L52.5 75.0078C66.3333 83.6745 86.2 100.308 55 97.5078C16 94.0078 7.62939e-06 37.5079 7.62939e-06 24.5079C7.62939e-06 14.1079 6.33334 11.8412 9.50001 12.0079Z" fill="#FAD02B"/>
<path d="M37 12.0078L40 24.5078H24.5001L23.25 12.0078H37Z" fill="#F9B11C"/>
<path d="M130 12L127 24.5H142.5L143.75 12H130Z" fill="#F9B11C"/>
<path d="M52.5 75.0078C66.3333 83.6745 86.2 100.308 55 97.5078C46.8503 96.7765 39.7049 93.7307 33.5 89.2512L26.6761 66.9995C30.5241 72.134 34.2953 75.6446 37 77.5078L52.5 75.0078Z" fill="#F9B11C"/>
<path d="M114.09 75.0083C100.256 83.675 80.3895 100.308 111.59 97.5083C119.739 96.7769 126.885 93.7312 133.09 89.2516L139.913 67C136.065 72.1345 132.294 75.6451 129.59 77.5083L114.09 75.0083Z" fill="#F9B11C"/>
<path fill-rule="evenodd" clip-rule="evenodd" d="M70.5001 131.5C64.3334 116.833 51.5001 91 44.0001 87.5C39.158 85.2404 35.2884 75.5475 32.526 65.9563C29.7871 56.4465 29.0001 46.5123 29.0001 36.616V3.5C29.0001 2.33333 29.6001 0 32.0001 0H83.0001H83.5001H134.5C136.9 0 137.5 2.33333 137.5 3.5V36.616C137.5 46.5123 136.713 56.4465 133.974 65.9563C131.212 75.5475 127.342 85.2404 122.5 87.5C115 91 102.167 116.833 96.0001 131.5L83.5001 139.192V139.5L83.2501 139.346L83.0001 139.5V139.192L70.5001 131.5Z" fill="#FAD02B"/>
<path d="M96.0001 131.008L83.0001 139.008V122H100.234C98.7252 125.241 97.1331 128.313 96.0001 131.008Z" fill="#F9B11C"/>
<path d="M70.0001 131.008L83.0001 139.008V122H66.2696C67.7784 125.241 68.867 128.313 70.0001 131.008Z" fill="#F9B11C"/>
<path d="M67.0001 127.5C59.8001 127.5 57.3334 136.833 57.0001 141.5L62.0001 146.5L96.0001 148L109 141.5C109.167 136.833 108 127.5 102 127.5H67.0001Z" fill="#F8D228"/>
<path d="M124 156.5H42.0001C42.3334 151.5 44.2001 141.5 49.0001 141.5H117C122.2 141.5 123.833 151.5 124 156.5Z" fill="#6D5E59"/>
<path d="M80.664 20.2224C81.5938 17.5267 85.4062 17.5267 86.336 20.2224L90.5484 32.4351C90.9657 33.645 92.1046 34.4569 93.3844 34.4569H106.617C109.566 34.4569 110.745 38.2668 108.311 39.9326L97.9202 47.0443C96.8055 47.8073 96.3381 49.2212 96.7786 50.4982L100.819 62.2129C101.762 64.9457 98.6742 67.2995 96.2887 65.6668L85.1944 58.0736C84.173 57.3745 82.827 57.3745 81.8056 58.0736L70.7113 65.6668C68.3258 67.2995 65.2383 64.9457 66.1808 62.2129L70.2214 50.4982C70.6619 49.2212 70.1945 47.8073 69.0798 47.0443L58.689 39.9326C56.2551 38.2668 57.434 34.4569 60.3834 34.4569H73.6156C74.8954 34.4569 76.0343 33.645 76.4516 32.4351L80.664 20.2224Z" fill="#FFFEFF"/>
</svg>
