<svg viewBox="0 0 208 132" fill="none" preserveAspectRatio="none" xmlns="http://www.w3.org/2000/svg">
<path d="M102.5 8C71.2959 8 46 33.2959 46 64.5C46 84.8927 56.8038 102.762 73 112.697V126C73.5 127.833 75.5 131.2 79.5 130C83.5 128.8 84.8333 126.833 85 126V123.5C85.8333 122.167 88 120.3 90 123.5V127C90.5 128 92.2 130 95 130C97.8 130 99.8333 128 100.5 127V123.5C101.5 122.667 103.9 121.5 105.5 123.5V127C105.833 128 107.4 130 111 130C114.6 130 116.5 128 117 127V122.5C117.833 121.5 120 120.1 122 122.5V127C122.667 128 124.7 130 127.5 130C130.3 130 132.667 128 133.5 127L133.868 111.5C149.021 101.366 159 84.0985 159 64.5C159 33.2959 133.704 8 102.5 8Z" fill="#F7F7F7"/>
<path fill-rule="evenodd" clip-rule="evenodd" d="M43.8601 114.889C44.5912 116.439 45 118.172 45 120C45 126.627 39.6274 132 33 132C26.3726 132 21 126.627 21 120C21 118.866 21.1573 117.769 21.4513 116.729C16.0482 115.56 12 110.753 12 105C12 98.3726 17.3726 93 24 93C28.6343 93 32.6551 95.627 34.6543 99.4732L47.5 91.5L57 106L43.8601 114.889Z" fill="#F7F7F7"/>
<path fill-rule="evenodd" clip-rule="evenodd" d="M163.499 114.889C162.768 116.439 162.359 118.172 162.359 120C162.359 126.627 167.732 132 174.359 132C180.987 132 186.359 126.627 186.359 120C186.359 118.866 186.202 117.769 185.908 116.729C191.311 115.56 195.359 110.753 195.359 105C195.359 98.3726 189.987 93 183.359 93C178.725 93 174.704 95.627 172.705 99.4732L159.859 91.5L150.359 106L163.499 114.889Z" fill="#F7F7F7"/>
<path fill-rule="evenodd" clip-rule="evenodd" d="M176.828 39.2344C177.821 40.6317 179.131 41.8371 180.724 42.7331C186.501 45.9814 193.817 43.9316 197.066 38.1549C200.314 32.3781 198.264 25.0618 192.488 21.8135C191.499 21.2577 190.465 20.857 189.415 20.6036C191.045 15.3212 188.838 9.43636 183.824 6.61673C178.047 3.36845 170.731 5.41821 167.483 11.195C165.211 15.2345 165.53 20.0268 167.903 23.6545L154.657 30.9436L162.64 46.3311L176.828 39.2344Z" fill="#F7F7F7"/>
<circle cx="79.5" cy="81.5" r="18.5" fill="#262121"/>
<circle cx="128.5" cy="79.5" r="18.5" fill="#262121"/>
<path d="M109.3 101C110.65 102.5 112 104.2 112 106.5C112 107.222 111.872 107.937 111.623 108.605C111.374 109.272 111.01 109.878 110.55 110.389C109.622 111.421 108.363 112 107.05 112C105.43 112 104.35 111.5 103 110C101.65 111.5 100.57 112 98.95 112C98.3 112 97.6563 111.858 97.0557 111.581C96.4552 111.305 95.9095 110.9 95.4498 110.389C94.9902 109.878 94.6256 109.272 94.3768 108.605C94.128 107.937 94 107.222 94 106.5C94 104.2 95.35 102.5 96.7 101L103 94L109.3 101Z" fill="#262020"/>
<path fill-rule="evenodd" clip-rule="evenodd" d="M30.5315 39.2344C29.5382 40.6317 28.2283 41.8371 26.6349 42.7331C20.8581 45.9814 13.5419 43.9316 10.2936 38.1549C7.04531 32.3781 9.09507 25.0618 14.8719 21.8135C15.8603 21.2577 16.8939 20.857 17.9444 20.6036C16.3148 15.3212 18.521 9.43636 23.5355 6.61673C29.3122 3.36845 36.6285 5.41821 39.8768 11.195C42.1482 15.2345 41.829 20.0268 39.4564 23.6545L52.7023 30.9436L44.7196 46.3311L30.5315 39.2344Z" fill="#F7F7F7"/>
</svg>
