<svg width="" height="" viewBox="0 0 18 18" fill="none" xmlns="http://www.w3.org/2000/svg">
<path d="M15.3 11.0015C16.65 9.50146 18 7.80146 18 5.50146C18 4.77919 17.872 4.064 17.6232 3.39671C17.3744 2.72941 17.0098 2.1231 16.5502 1.61238C15.6219 0.580927 14.3628 0.00146484 13.05 0.00146484C11.43 0.00146484 10.35 0.501465 9 2.00146C7.65 0.501465 6.57 0.00146484 4.95 0.00146484C4.29996 0.00146484 3.65628 0.143727 3.05572 0.420128C2.45516 0.696529 1.90947 1.10165 1.44982 1.61238C0.990171 2.1231 0.625557 2.72941 0.376797 3.39671C0.128036 4.064 0 4.77919 0 5.50146C0 7.80146 1.35 9.50146 2.7 11.0015L9 18.0015L15.3 11.0015Z" fill="#ECF0F0"/>
</svg>
