<svg width="300" height="300" viewBox="0 0 300 300" fill="none" xmlns="http://www.w3.org/2000/svg">
<rect width="300" height="300" rx="24" fill="#292929"/>
<rect x="2.5752" width="297.425" height="296.07" rx="24" fill="#1B1D33"/>
<path fill-rule="evenodd" clip-rule="evenodd" d="M41.0411 151.851C38.7078 153.851 33.2411 158.451 30.0411 160.851C26.5411 146.685 25.0411 112.351 47.0411 88.3512C42.8744 73.5178 37.441 39.8512 49.041 23.8512C59.7077 21.1845 85.441 23.2512 103.041 52.8512C105.208 55.3511 111.641 59.1511 120.041 54.3511C127.874 52.0177 144.841 48.0511 150.041 50.8511C155.241 48.0511 174.208 52.3688 182.041 54.7021C190.441 59.5021 196.874 55.7022 199.041 53.2022C216.641 23.6022 242.374 21.5356 253.041 24.2022C264.641 40.2022 259.208 73.8689 255.041 88.7022C277.041 112.702 275.541 147.036 272.041 161.202C268.841 158.802 263.374 154.202 261.041 152.202L219.541 124.702L151.041 132.702L151.037 132.351L82.541 124.351L41.0411 151.851Z" fill="#2E2626"/>
<path fill-rule="evenodd" clip-rule="evenodd" d="M149.675 128.977C141.691 118.766 84.5037 45.6303 41.5655 138.584C36.8988 144.918 31.7655 166.384 48.5655 201.584C51.3988 195.084 58.6654 181.784 65.0654 180.584L96.5655 214.584C107.065 235.751 132.566 276.784 150.566 271.584L150.565 271.669C168.565 276.869 194.066 235.836 204.566 214.669L236.066 180.669C242.466 181.869 249.732 195.169 252.566 201.669C269.366 166.469 264.232 145.002 259.566 138.669C216.627 45.7148 159.44 118.851 151.456 129.062C150.979 129.671 150.678 130.056 150.566 130.169V130.084C150.453 129.972 150.152 129.587 149.675 128.977Z" fill="#323131"/>
<path d="M165.451 242.16C159.211 241.8 150.761 242.16 150.711 242.16C150.661 242.16 142.201 241.8 135.971 242.16C129.711 242.52 139.381 259.77 150.711 259.33C162.041 259.77 171.701 242.52 165.451 242.16Z" fill="#2E2626"/>
<path d="M128.322 154.799C128.322 154.799 103.462 137.069 93.0019 128.799C82.5419 120.529 100.642 179.779 128.322 154.799Z" fill="white"/>
<path d="M173 154.799C173 154.799 197.86 137.069 208.32 128.799C218.78 120.529 200.68 179.779 173 154.799Z" fill="white"/>
<path d="M110.622 146.199C110.622 146.199 115.332 151.699 111.712 159.229C111.712 159.229 105.842 156.029 110.622 146.199Z" fill="#323131"/>
<path d="M190.7 146.199C190.7 146.199 185.99 151.699 189.61 159.229C189.61 159.229 195.48 156.029 190.7 146.199Z" fill="#323131"/>
</svg>
