<svg width="300" height="300" viewBox="0 0 300 300" fill="none" xmlns="http://www.w3.org/2000/svg">
<rect width="300" height="300" rx="24" fill="#292929"/>
<g clip-path="url(#clip0_83_844)">
<rect x="2.57513" width="297.425" height="296.07" rx="24" fill="#1B1D33"/>
<rect x="135" y="203" width="41" height="60" fill="#FCB076"/>
<path d="M130 203H176V254L130 214V203Z" fill="#F5A161"/>
<path fill-rule="evenodd" clip-rule="evenodd" d="M77 303C77.264 279.961 84.8132 231.127 112.898 236L130.584 236C135.639 243.452 145.511 252.848 155.138 253.5C164.764 252.848 174.499 243.452 179.554 236L197.239 236C225.324 231.127 232.874 279.961 233.138 303H155.138C155.113 302.927 155.09 302.738 155.07 302.444C155.048 302.738 155.024 302.927 155 303H77Z" fill="#F0502C"/>
<path d="M101.337 170.253V150.496L111.801 140C141.86 142.367 202.41 148.026 204.134 151.731C205.857 155.435 206.083 165.622 205.98 170.253C214.598 161.609 235.527 170.253 223.216 190.628C213.367 206.927 207.622 202.153 205.98 197.728C160.429 252.554 119.085 220.572 104.107 197.728C103.614 204.89 96.5147 202.564 93.0266 200.506C88.3074 192.788 80.2847 175.933 85.9478 170.253C91.6109 164.573 98.5666 167.886 101.337 170.253Z" fill="#FCB076"/>
<path d="M223.216 190.628C213.367 206.927 207.622 202.153 205.98 197.728C188.051 219.307 170.774 227.438 155.5 227.972V143.952C180.089 146.477 203.081 149.468 204.134 151.731C205.857 155.435 206.083 165.622 205.98 170.253C214.598 161.609 235.527 170.253 223.216 190.628Z" fill="#F5A161"/>
<path d="M143.418 178C143.418 183.523 140.284 188 136.418 188C132.552 188 129.418 183.523 129.418 178C129.418 172.477 132.552 168 136.418 168C140.284 168 143.418 172.477 143.418 178Z" fill="#461E03"/>
<ellipse cx="173" cy="178" rx="7" ry="10" fill="#461E03"/>
<path d="M238.43 137.624C238.43 149.43 201.621 159 156.215 159C110.809 159 74 149.43 74 137.624C74 125.819 110.809 116.248 156.215 116.248C201.621 116.248 238.43 125.819 238.43 137.624Z" fill="#826827"/>
<path d="M147.523 89H168.43C179.064 89.986 198.961 97.2563 201.759 118.128C202.072 120.46 202.171 122.962 202.02 125.644C185.029 129.872 143.107 135.792 111.349 125.644C111.277 123.476 111.446 120.898 111.957 118.128C114.217 105.894 123.161 89.9194 147.523 89Z" fill="#604C1A"/>
<path d="M144.533 194L125 206.614C140.626 213.411 149.673 210.819 152.243 208.674C161.907 213.411 174.774 209.274 180 206.614L160.21 194C154.659 203.885 147.445 198.119 144.533 194Z" fill="#544216"/>
<path d="M127.012 236H112.94V278.169H109V306H203V278.169H198.497V236H184.144V278.169H127.012V236Z" fill="#826827"/>
<ellipse cx="120.5" cy="287" rx="5.5" ry="6" fill="#604C1A"/>
<ellipse cx="190.5" cy="287" rx="5.5" ry="6" fill="#604C1A"/>
<path d="M92.4518 178.659C94.6543 168.41 100.507 174.389 103.158 178.659C99.1816 178.659 100.099 186.471 103.158 191.159C105.605 194.908 102.139 195.221 100.099 194.908C96.6325 193.763 90.2494 188.909 92.4518 178.659Z" fill="#72403E"/>
<path d="M217.548 178.659C215.346 168.41 209.493 174.389 206.842 178.659C210.818 178.659 209.901 186.471 206.842 191.159C204.395 194.908 207.861 195.221 209.901 194.908C213.368 193.763 219.751 188.909 217.548 178.659Z" fill="#72403E"/>
</g>
<defs>
<clipPath id="clip0_83_844">
<rect x="2.57513" width="297.425" height="296.07" rx="24" fill="white"/>
</clipPath>
</defs>
</svg>
