<svg width="300" height="300" viewBox="0 0 300 300" fill="none" preserveAspectRatio="none" xmlns="http://www.w3.org/2000/svg">
<rect width="300" height="300" rx="24" fill="#292929"/>
<g clip-path="url(#clip0_158_215)">
<rect x="2.57513" width="297.425" height="296.07" rx="24" fill="#1B1D33"/>
<path d="M78.1456 110.405C113.482 222.998 179.775 300.449 208.504 325.101L202.639 335.89C115.321 242.766 67.3142 110.365 54.2251 55.8055L64.0528 50.8854L78.1456 110.405Z" fill="#5F242C"/>
<path d="M70.3375 160.397C82.2445 163.449 97.7772 154.74 104.055 150.004L93.4002 138.95C93.0813 138.313 93.2899 136.684 96.6751 135.262C100.06 133.84 99.8892 101.446 99.3805 85.4271C108.106 61.3934 99.2757 58.3942 93.7698 59.8989C95.7306 49.6308 89.6695 51.254 86.3939 53.3491C84.75 42.4276 78.4271 48.3471 75.4711 52.672C74.587 32.3568 65.7274 43.666 61.4081 51.8599C57.1454 46.0732 53.8997 53.4566 52.8097 57.8716C48.7104 51.0472 33.7052 76.9955 44.5072 108.802C53.1488 134.246 68.6891 140.51 75.379 140.461L70.3375 160.397Z" fill="#F8B958"/>
<path d="M75.379 140.461L70.3375 160.397C75.1333 160.844 85.38 161.136 88.0001 158.732C88.0279 158.707 88.0552 158.682 88.0821 158.657L88.4101 159.551C89.3551 158.29 90.5937 156.369 88.0821 158.657L81.8476 141.669C67.1416 129.343 40.6488 99.4747 52.3252 78.6069C53.6435 75.7847 56.882 72.1604 59.289 80.2418C62.3198 75.4242 69.5841 68.1912 74.3948 77.8005C74.8173 71.785 78.0933 61.3365 87.8175 67.6666C88.6342 62.9331 90.732 53.4386 92.5888 53.3285C94.9097 53.1908 90.437 49.9514 86.3939 53.3492C84.75 42.4276 78.4271 48.3471 75.4711 52.672C74.587 32.3568 65.7274 43.666 61.4081 51.86C57.1454 46.0733 53.8998 53.4566 52.8098 57.8717C48.7104 51.0472 33.7052 76.9956 44.5072 108.802C53.1488 134.246 68.6891 140.51 75.379 140.461Z" fill="#FFAA3B"/>
<path d="M89.3506 129.377C90.7149 127.329 93.087 120.474 91.6615 109.443C89.8796 95.6542 82.4995 80.9127 84.6817 76.4061" stroke="#FFAA3B" stroke-width="4" stroke-linecap="round"/>
<path d="M59.4382 105.09C69.4098 114.779 76.6538 131.978 81.5694 132.932" stroke="#FFAA3B" stroke-width="4" stroke-linecap="round"/>
<path d="M57.3604 98.6191C53.3629 85.3029 58.239 92.5461 54.4083 89.3216" stroke="#FFAA3B" stroke-width="4" stroke-linecap="round"/>
<path d="M89.9371 143.231C98.2029 154.411 95.3256 146.167 95.6119 151.166" stroke="#FFAA3B" stroke-width="4" stroke-linecap="round"/>
<path d="M84.5728 129.379C82.791 115.591 72.5397 94.434 74.7219 89.9274" stroke="#FFAA3B" stroke-width="4" stroke-linecap="round"/>
<path fill-rule="evenodd" clip-rule="evenodd" d="M132.025 240.424C132.337 240.148 132.801 240.087 133.183 240.305C137.215 242.607 142.137 248.124 145.854 253.831C147.725 256.703 149.324 259.675 150.373 262.384C151.405 265.053 151.966 267.624 151.568 269.622C151.497 269.975 151.248 270.248 150.933 270.364C150.518 269.746 150.104 269.127 149.691 268.507C149.753 267.132 149.35 265.284 148.508 263.106C147.523 260.56 145.996 257.714 144.178 254.922C140.942 249.955 136.888 245.319 133.494 242.885C133.002 242.065 132.512 241.244 132.025 240.424Z" fill="#743842"/>
<path fill-rule="evenodd" clip-rule="evenodd" d="M194.686 311.968C194.609 312 194.526 312.023 194.44 312.036C193.721 312.139 188.995 312.19 183.506 308.41C177.986 304.609 171.793 297.005 168.054 281.946C168.004 281.742 168.02 281.537 168.088 281.354C169.045 282.569 169.996 283.764 170.941 284.939C174.62 297.313 180.024 303.584 184.64 306.763C187.164 308.5 189.481 309.335 191.207 309.729C191.814 309.868 192.347 309.952 192.791 310.001C193.43 310.67 194.062 311.326 194.686 311.968ZM188.551 305.476C188.409 305.567 188.241 305.623 188.06 305.631C186.344 305.71 183.812 305.187 181.636 303.397C179.428 301.579 177.685 298.535 177.453 293.763C177.441 293.515 177.52 293.283 177.662 293.101C178.318 293.878 178.971 294.645 179.618 295.402C180.103 298.649 181.441 300.645 182.908 301.852C184.192 302.91 185.631 303.408 186.814 303.573C187.398 304.217 187.977 304.851 188.551 305.476ZM113.242 195.626C107.659 192.077 98.6496 182.44 98.7457 166.502C98.7473 166.242 98.8484 166.005 99.0129 165.828C99.6325 167.233 100.256 168.631 100.883 170.021C101.769 180.376 106.762 187.488 111.122 191.467C111.826 192.862 112.533 194.249 113.242 195.626Z" fill="#743842"/>
<rect width="3.58289" height="21.9045" rx="1.79144" transform="matrix(-0.235994 -0.971754 -0.971754 0.235994 95.3276 139.017)" fill="#AB76C1"/>
<g clip-path="url(#clip1_158_215)">
<path d="M229.825 63.7284C180.034 51.4465 146.288 110.011 135.639 140.829C143.558 147.86 201.917 155.597 230.107 158.587C197.108 99.0075 216.17 70.5232 229.825 63.7284Z" fill="#9536B4"/>
<ellipse cx="182.955" cy="142.89" rx="74.3109" ry="18.6225" transform="rotate(7.49932 182.955 142.89)" fill="#5A1B75"/>
<path d="M65.9999 273C37.9198 261.176 48.0259 245.495 58.166 238.633C75.482 229.659 98.9241 252.638 90.5 259.5C83.7608 264.99 70.524 273 65.9999 273Z" fill="#5B222A"/>
<path d="M41.4046 261.654L48.36 256.683C52.3441 254.654 60.9293 250.745 63.3983 251.338L72.9145 247.307C74.1418 248.774 76.3645 252.438 75.437 255.363L57.9198 261.732C57.0678 263.106 55.1142 264.913 53.9696 265.858C53.7167 266.139 52.1199 267.402 47.7592 270.23L47.4972 270.4C46.1305 271.284 45.0338 271.768 44.1624 271.982C43.9835 272.026 43.814 272.059 43.6537 272.081C41.9903 272.314 41.3081 271.445 41.1755 270.731L41.6623 269.645L39.8263 270.823C38.6508 272.374 35.8413 271.92 34.2524 273.756C31.1316 277.362 25.6912 280.188 25.5031 278.174C25.2792 275.777 31.2884 271.049 35.3801 267.032C37.3012 265.146 39.2144 263.22 41.4046 261.654Z" fill="#FDA8A5"/>
<path d="M49.8703 262.629C48.8005 264.182 44.04 267.897 41.7935 269.561L41.6623 269.645M41.6623 269.645L39.8263 270.823C38.6508 272.374 35.8413 271.92 34.2524 273.756C31.1316 277.362 25.6912 280.188 25.5031 278.174C25.2792 275.777 31.2884 271.049 35.3801 267.032C37.3012 265.146 39.2144 263.22 41.4046 261.654L48.36 256.683C52.3441 254.654 60.9293 250.745 63.3983 251.338L72.9145 247.307C74.1418 248.774 76.3645 252.438 75.437 255.363L57.9198 261.732M41.6623 269.645L41.1755 270.731C41.3081 271.445 41.9903 272.314 43.6537 272.081C43.814 272.059 43.9835 272.026 44.1624 271.982C45.0338 271.768 46.1305 271.284 47.4972 270.4C47.5856 270.343 47.673 270.286 47.7592 270.23C52.1199 267.402 53.7167 266.139 53.9696 265.858C55.1142 264.913 57.0678 263.106 57.9198 261.732M57.9198 261.732C58.585 260.536 59.8646 257.956 59.6621 257.206" stroke="#E27576"/>
<path d="M56 240.149L97.8985 212.323L133.49 210.079L190.255 202L263.24 230.724C295.978 257.353 178.632 294.545 175.388 294.904C172.144 295.263 234.106 268.125 219.539 273.361C181.545 273.511 156.917 316.357 155.115 315.998C153.313 315.639 166.077 253.015 129.885 249.574L66.8125 273.361C72.5108 262.682 74.3036 256.554 56 240.149Z" fill="#9536B4"/>
<path d="M72 309C99.9198 288.196 110.033 272.463 118 237C138.5 226.833 180 206.5 182 206.5C184 206.5 213.5 226.833 228 237C233.251 275.69 239.285 295.024 262.5 320C248.333 322.333 253.7 320 252.5 320C251.3 320 131.667 312.667 72 309Z" fill="#5A1B75"/>
<ellipse cx="92" cy="217.5" rx="5" ry="5.5" fill="#D9D9D9"/>
<ellipse cx="99" cy="225.5" rx="5" ry="5.5" fill="#D9D9D9"/>
<ellipse cx="107" cy="231.5" rx="5" ry="5.5" fill="#D9D9D9"/>
<ellipse cx="115" cy="237.5" rx="5" ry="5.5" fill="#D9D9D9"/>
<ellipse cx="125" cy="238.5" rx="5" ry="5.5" fill="#D9D9D9"/>
<ellipse cx="135" cy="240.5" rx="5" ry="5.5" fill="#D9D9D9"/>
<ellipse cx="145" cy="240.5" rx="5" ry="5.5" fill="#D9D9D9"/>
<ellipse cx="154" cy="238.5" rx="5" ry="5.5" fill="#D9D9D9"/>
<ellipse cx="163" cy="236.5" rx="5" ry="5.5" fill="#D9D9D9"/>
<ellipse cx="170" cy="232.5" rx="5" ry="5.5" fill="#D9D9D9"/>
<ellipse cx="178" cy="227.5" rx="5" ry="5.5" fill="#D9D9D9"/>
<ellipse cx="190" cy="223.5" rx="5" ry="5.5" fill="#D9D9D9"/>
<ellipse cx="196" cy="230.5" rx="5" ry="5.5" fill="#D9D9D9"/>
<ellipse cx="203" cy="236.5" rx="5" ry="5.5" fill="#D9D9D9"/>
<ellipse cx="211" cy="243.5" rx="5" ry="5.5" fill="#D9D9D9"/>
<ellipse cx="219" cy="247.5" rx="5" ry="5.5" fill="#D9D9D9"/>
<ellipse cx="229" cy="251.5" rx="5" ry="5.5" fill="#D9D9D9"/>
<ellipse cx="238" cy="254.5" rx="5" ry="5.5" fill="#D9D9D9"/>
<ellipse cx="247" cy="254.5" rx="5" ry="5.5" fill="#D9D9D9"/>
<ellipse cx="256" cy="253.5" rx="5" ry="5.5" fill="#D9D9D9"/>
<ellipse cx="266" cy="251.5" rx="5" ry="5.5" fill="#D9D9D9"/>
<ellipse cx="274" cy="247.5" rx="5" ry="5.5" fill="#D9D9D9"/>
<ellipse cx="282" cy="242.5" rx="5" ry="5.5" fill="#D9D9D9"/>
<path d="M224.853 159.208C201.075 159.37 189.129 147.101 186.128 140.947C213.57 127.384 228.593 148.126 232.674 160.193C231.174 160.788 227.452 163.157 225.778 164.268L224.853 159.208Z" fill="#FC9133"/>
<path d="M242.231 205.901C242.312 201.06 239.752 190.134 238.463 185.275L220.378 180.938L223.932 200.396C229.998 204.248 242.15 210.742 242.231 205.901Z" fill="#FC9133"/>
<path d="M284.311 237.497L227.307 194.022C200.018 184.798 154.543 177.877 190.957 223.987C227.37 270.098 268.365 252.206 284.311 237.497Z" fill="#5E252C"/>
<path d="M88.1368 211.867L154.811 185.52C183.58 184.058 229.224 189.756 181.65 224.236C134.076 258.715 99.4853 230.357 88.1368 211.867Z" fill="#5E252C"/>
<path d="M135.933 185.506L130.908 142.589L164.062 141.358L185.788 141.411C198.708 155.78 217.2 159.266 224.831 159.212L225.756 164.271C241.909 152.312 246.456 165.316 246.711 173.312C247.938 185.313 234.349 187.099 227.402 186.491C226.722 219.753 202.601 218.77 190.625 214.122C183.509 235.047 168.364 222.88 161.681 214.181C133.407 219.668 132.735 197.351 135.933 185.506Z" fill="#FCB076"/>
<circle cx="157.49" cy="169.101" r="9.49458" transform="rotate(-10.3527 157.49 169.101)" fill="#5B222A"/>
<circle cx="191.887" cy="172.469" r="9.49458" transform="rotate(-10.3527 191.887 172.469)" fill="#602329"/>
<ellipse cx="151.206" cy="185.333" rx="8.30775" ry="5.34413" transform="rotate(-10.3527 151.206 185.333)" fill="#FCA17E"/>
<ellipse cx="191.891" cy="190.227" rx="5.79402" ry="7.91215" transform="rotate(-78.7408 191.891 190.227)" fill="#FCA17E"/>
<path d="M157.667 188.019C163.603 185.376 168.746 178.444 171.581 173.495C172.248 172.332 173.844 172.04 174.764 173.015C182.75 181.484 178.966 186.144 175.832 187.467C170.726 189.782 164.638 191.534 160.258 192.586C157.476 193.254 151.316 193.724 151.9 190.924C152.417 188.445 155.354 189.049 157.667 188.019Z" fill="#F48172"/>
<circle cx="165.18" cy="182.576" r="1.97804" transform="rotate(-10.3527 165.18 182.576)" fill="#DC705F"/>
<path d="M133.639 166.22C145.245 166.352 162.522 149.683 167.268 141.175C151.754 122.293 133.153 134.941 119.461 137.04C108.507 138.719 110.451 180.912 112.792 201.798L134.971 193.323C134.8 192.389 135.532 187.59 135.955 185.502L133.639 166.22Z" fill="#FC9133"/>
<path d="M184.659 204.74C185.202 204.114 185.136 203.167 184.51 202.624C183.885 202.08 182.938 202.147 182.394 202.772L184.659 204.74ZM166.722 205.867C168.436 207.114 171.341 208.549 174.599 208.837C177.929 209.132 181.637 208.218 184.659 204.74L182.394 202.772C180.1 205.413 177.393 206.073 174.863 205.849C172.262 205.619 169.865 204.443 168.487 203.441L166.722 205.867Z" fill="black"/>
</g>
</g>
<defs>
<clipPath id="clip0_158_215">
<rect x="2.57513" width="297.425" height="296.07" rx="24" fill="white"/>
</clipPath>
<clipPath id="clip1_158_215">
<rect x="5.57507" width="297.425" height="296.07" rx="24" fill="white"/>
</clipPath>
</defs>
</svg>
