<svg width="300" height="300" viewBox="0 0 300 300" fill="none" xmlns="http://www.w3.org/2000/svg">
<rect width="300" height="300" rx="24" fill="#292929"/>
<g clip-path="url(#clip0_145_3610)">
<rect x="2.57513" width="297.425" height="296.07" rx="24" fill="#1B1D33"/>
<path d="M58.5702 151.237L63.2474 114.145C63.4764 112.328 63.989 110.57 64.7967 108.927C72.6854 92.8805 88.4175 64.1803 96.9024 60.5733C102.827 58.0545 99.1305 71.4618 93.7493 85.6565C96.6332 82.3332 103.393 75.3883 107.363 74.196C111.333 73.0036 111.76 76.244 111.477 78.0132L91.3824 104.22C95.8239 100.337 105.813 92.343 110.24 91.4239C115.773 90.2751 118.686 92.2111 109.398 101.582C101.968 109.078 96.4235 113.497 94.58 114.769C94.7596 115.252 94.9243 115.776 95.0715 116.344C99.2787 113.021 108.675 106.809 112.603 108.539C117.513 110.7 115.355 117.55 104.745 119.733C102.464 120.953 97.4588 124.331 95.6837 128.076C95.6573 128.41 95.631 128.74 95.6048 129.067C94.2782 145.557 93.1539 151.94 92.7513 153.072C91.8336 157.708 89.7272 165.912 87.1687 170.376L95.8222 229.069C89.0324 236.09 75.4075 235.407 69.4438 234.188L66.3429 201.438C60.9481 195.42 58.9133 165.463 58.5702 151.237Z" fill="#FCB076"/>
<path d="M77.5073 146.475C80.2388 141.13 83.4458 122.178 84.7079 113.37L84.7452 112.876M93.7493 85.6565C99.1305 71.4618 102.827 58.0545 96.9024 60.5733C88.4175 64.1803 72.6854 92.8805 64.7967 108.927C63.989 110.57 63.4764 112.328 63.2474 114.145L58.5702 151.237C58.9133 165.463 60.9481 195.42 66.3429 201.438L69.4438 234.188C75.4075 235.407 89.0324 236.09 95.8222 229.069L87.1687 170.376M93.7493 85.6565C91.0096 92.8834 87.8334 100.314 85.2682 105.952L84.7452 112.876M93.7493 85.6565C96.6332 82.3332 103.393 75.3883 107.363 74.196C111.333 73.0036 111.76 76.244 111.477 78.0132L91.3824 104.22M84.7452 112.876L87.0497 109.87M87.0497 109.87L91.3824 104.22M87.0497 109.87C89.2499 109.162 92.7165 109.758 94.58 114.769M95.6837 128.076C96.0916 122.912 95.7887 119.109 95.0715 116.344M95.6837 128.076C95.6573 128.41 95.631 128.74 95.6048 129.067C94.2782 145.557 93.1539 151.94 92.7513 153.072C91.8336 157.708 89.7272 165.912 87.1687 170.376M95.6837 128.076C97.4588 124.331 102.464 120.953 104.745 119.733C115.355 117.55 117.513 110.7 112.603 108.539C108.675 106.809 99.2787 113.021 95.0715 116.344M91.3824 104.22C95.8239 100.337 105.813 92.343 110.24 91.4239C115.773 90.2751 118.686 92.2111 109.398 101.582C101.968 109.078 96.4235 113.497 94.58 114.769M94.58 114.769C94.7596 115.252 94.9243 115.776 95.0715 116.344M87.1687 170.376C84.8239 174.048 79.5329 181.534 77.1268 182.101" stroke="#E27576"/>
<path d="M243.741 151.237L239.064 114.145C238.835 112.328 238.322 110.57 237.514 108.927C229.626 92.8805 213.894 64.1803 205.409 60.5733C199.484 58.0545 203.181 71.4618 208.562 85.6565C205.678 82.3332 198.918 75.3883 194.948 74.196C190.978 73.0036 190.551 76.244 190.834 78.0132L210.929 104.22C206.487 100.337 196.498 92.343 192.071 91.4239C186.538 90.2751 183.625 92.2111 192.913 101.582C200.343 109.078 205.888 113.497 207.731 114.769C207.552 115.252 207.387 115.776 207.24 116.344C203.032 113.021 193.636 106.809 189.708 108.539C184.798 110.7 186.957 117.55 197.567 119.733C199.847 120.953 204.852 124.331 206.627 128.076C206.654 128.41 206.68 128.74 206.706 129.067C208.033 145.557 209.157 151.94 209.56 153.072C210.477 157.708 212.584 165.912 215.142 170.376L206.489 229.069C213.279 236.09 226.904 235.407 232.867 234.188L235.968 201.438C241.363 195.42 243.398 165.463 243.741 151.237Z" fill="#FCB076"/>
<path d="M224.804 146.475C222.072 141.13 218.865 122.178 217.603 113.37L217.566 112.876M208.562 85.6565C203.181 71.4618 199.484 58.0545 205.409 60.5733C213.894 64.1803 229.626 92.8805 237.514 108.927C238.322 110.57 238.835 112.328 239.064 114.145L243.741 151.237C243.398 165.463 241.363 195.42 235.968 201.438L232.867 234.188C226.904 235.407 213.279 236.09 206.489 229.069L215.142 170.376M208.562 85.6565C211.301 92.8834 214.478 100.314 217.043 105.952L217.566 112.876M208.562 85.6565C205.678 82.3332 198.918 75.3883 194.948 74.196C190.978 73.0036 190.551 76.244 190.834 78.0132L210.929 104.22M217.566 112.876L215.261 109.87M215.261 109.87L210.929 104.22M215.261 109.87C213.061 109.162 209.595 109.758 207.731 114.769M206.627 128.076C206.219 122.912 206.522 119.109 207.24 116.344M206.627 128.076C206.654 128.41 206.68 128.74 206.706 129.067C208.033 145.557 209.157 151.94 209.56 153.072C210.477 157.708 212.584 165.912 215.142 170.376M206.627 128.076C204.852 124.331 199.847 120.953 197.567 119.733C186.957 117.55 184.798 110.7 189.708 108.539C193.636 106.809 203.032 113.021 207.24 116.344M210.929 104.22C206.487 100.337 196.498 92.343 192.071 91.4239C186.538 90.2751 183.625 92.2111 192.913 101.582C200.343 109.078 205.888 113.497 207.731 114.769M207.731 114.769C207.552 115.252 207.387 115.776 207.24 116.344M215.142 170.376C217.487 174.048 222.778 181.534 225.184 182.101" stroke="#E27576"/>
<circle cx="151" cy="126" r="62" fill="#683C7C"/>
<g filter="url(#filter0_f_145_3610)">
<circle cx="151" cy="126" r="57" fill="#723B8C"/>
</g>
<path d="M202.329 143.009C202.815 143.169 203.079 143.694 202.91 144.177C200.626 150.697 197.134 156.731 192.614 161.962C188.093 167.193 182.628 171.523 176.508 174.727C176.055 174.964 175.498 174.779 175.268 174.322C175.039 173.865 175.223 173.309 175.677 173.071C181.58 169.977 186.85 165.798 191.212 160.751C195.574 155.704 198.944 149.883 201.151 143.594C201.32 143.111 201.843 142.848 202.329 143.009Z" fill="#DDDBDE"/>
<path d="M170.382 176.48C170.566 176.958 170.327 177.495 169.847 177.67C167.322 178.591 164.732 179.326 162.099 179.868C161.598 179.971 161.114 179.64 161.019 179.137C160.924 178.634 161.255 178.151 161.756 178.047C164.279 177.526 166.761 176.822 169.183 175.94C169.663 175.765 170.199 176.003 170.382 176.48Z" fill="#DDDBDE"/>
<path d="M63.0847 115.435L58.5702 151.237C58.9133 165.463 60.9481 195.42 66.3429 201.438L69.4438 234.188C75.4075 235.407 89.0324 236.09 95.8222 229.069L87.1687 170.376C89.7272 165.912 91.8336 157.708 92.7513 153.072C93.1539 151.94 94.2782 145.557 95.6048 129.067C95.631 128.74 95.6573 128.41 95.6837 128.076C96.0917 122.912 95.7887 119.109 95.0715 116.344C94.9243 115.776 94.7596 115.252 94.58 114.769C92.7165 109.758 89.2499 109.162 87.0497 109.87L84.7452 112.876L85.2682 105.952C87.8334 100.314 91.0096 92.8834 93.7493 85.6565C99.1305 71.4618 102.827 58.0545 96.9024 60.5733C88.6195 64.0944 73.4304 91.5282 65.3732 107.76C64.1763 110.171 63.4215 112.764 63.0847 115.435Z" fill="#FCB076"/>
<path d="M77.5073 146.475C80.2388 141.13 83.4458 122.178 84.7079 113.37L84.7452 112.876M84.7452 112.876L85.2682 105.952C87.8334 100.314 91.0096 92.8834 93.7493 85.6565C99.1305 71.4618 102.827 58.0545 96.9024 60.5733C88.6195 64.0944 73.4304 91.5282 65.3732 107.76C64.1763 110.171 63.4215 112.764 63.0847 115.435L58.5702 151.237C58.9133 165.463 60.9481 195.42 66.3429 201.438L69.4438 234.188C75.4075 235.407 89.0324 236.09 95.8222 229.069L87.1687 170.376M84.7452 112.876L87.0497 109.87C89.2499 109.162 92.7165 109.758 94.58 114.769C94.7596 115.252 94.9243 115.776 95.0715 116.344C95.7887 119.109 96.0916 122.912 95.6837 128.076C95.6573 128.41 95.631 128.74 95.6048 129.067C94.2782 145.557 93.1539 151.94 92.7513 153.072C91.8336 157.708 89.7272 165.912 87.1687 170.376M87.1687 170.376C84.8239 174.048 79.5329 181.534 77.1268 182.101" stroke="#E27576"/>
<path d="M239.226 115.435L243.741 151.237C243.398 165.463 241.363 195.42 235.968 201.438L232.867 234.188C226.904 235.407 213.279 236.09 206.489 229.069L215.142 170.376C212.584 165.912 210.477 157.708 209.56 153.072C209.157 151.94 208.033 145.557 206.706 129.067C206.68 128.74 206.654 128.41 206.627 128.076C206.219 122.912 206.522 119.109 207.24 116.344C207.387 115.776 207.552 115.252 207.731 114.769C209.595 109.758 213.061 109.162 215.261 109.87L217.566 112.876L217.043 105.952C214.478 100.314 211.301 92.8834 208.562 85.6565C203.181 71.4618 199.484 58.0545 205.409 60.5733C213.692 64.0944 228.881 91.5282 236.938 107.76C238.135 110.171 238.89 112.764 239.226 115.435Z" fill="#FCB076"/>
<path d="M224.804 146.475C222.072 141.13 218.865 122.178 217.603 113.37L217.566 112.876M217.566 112.876L217.043 105.952C214.478 100.314 211.301 92.8834 208.562 85.6565C203.181 71.4618 199.484 58.0545 205.409 60.5733C213.692 64.0944 228.881 91.5282 236.938 107.76C238.135 110.171 238.89 112.764 239.226 115.435L243.741 151.237C243.398 165.463 241.363 195.42 235.968 201.438L232.867 234.188C226.904 235.407 213.279 236.09 206.489 229.069L215.142 170.376M217.566 112.876L215.261 109.87C213.061 109.162 209.595 109.758 207.731 114.769C207.552 115.252 207.387 115.776 207.24 116.344C206.522 119.109 206.219 122.912 206.627 128.076C206.654 128.41 206.68 128.74 206.706 129.067C208.033 145.557 209.157 151.94 209.56 153.072C210.477 157.708 212.584 165.912 215.142 170.376M215.142 170.376C217.487 174.048 222.778 181.534 225.184 182.101" stroke="#E27576"/>
<path d="M90.0001 71.4302L87.0001 69.9302C92.0001 61.4302 99.0001 56.9302 99.0001 59.9302C99.0001 62.3302 93.0001 68.5968 90.0001 71.4302Z" fill="#D9D9D9"/>
<path d="M89.5001 123.5L83.6963 123.767C84.4287 113.932 85.1637 108.632 89.8495 110.227C92.1216 111 90.9405 119.633 89.5001 123.5Z" fill="#D9D9D9"/>
<path d="M213.119 123.767L218.972 123.767C218.24 113.933 217.505 108.633 212.819 110.227C210.547 111 211.679 119.9 213.119 123.767Z" fill="#D9D9D9"/>
<path d="M212 71.4302L215 69.9302C210 61.4302 203 56.9302 203 59.9302C203 62.3302 209 68.5968 212 71.4302Z" fill="#D9D9D9"/>
<path d="M80.0001 92.4999C78.7198 92.0918 75.6245 90.8708 75.4511 89.6178M77.9324 94.1735C76.6522 93.7654 74.5399 92.7276 74.3665 91.4746" stroke="#E27576" stroke-linecap="round" stroke-linejoin="round"/>
<path d="M86.3157 132.239C85.2199 133.017 82.383 134.756 81.2776 134.141M85.4851 135.034C84.3892 135.812 82.2899 136.875 81.1845 136.261" stroke="#E27576" stroke-linecap="round" stroke-linejoin="round"/>
<path d="M216.013 131.475C217.109 132.253 219.946 133.992 221.051 133.377M216.844 134.27C217.94 135.047 220.039 136.111 221.144 135.496" stroke="#E27576" stroke-linecap="round" stroke-linejoin="round"/>
<path d="M224.753 93.7298C225.99 94.255 229.133 95.347 230.081 94.51M226.162 96.2821C227.399 96.8072 229.677 97.3973 230.626 96.5603" stroke="#E27576" stroke-linecap="round" stroke-linejoin="round"/>
<path fill-rule="evenodd" clip-rule="evenodd" d="M113.709 223.337C113.719 223.271 113.723 223.205 113.723 223.139C113.714 219.622 100.343 216.804 83.8568 216.845C67.3709 216.887 54.0136 219.771 54.0224 223.288C54.0235 223.723 54.2294 224.148 54.6207 224.558C58.135 250.685 65.9566 301.501 71.0831 309.7C76.3179 318.073 104.639 321.345 116.584 322.725C119.614 323.075 121.59 323.304 121.868 323.463C123.221 324.237 118.626 236.025 113.709 223.337Z" fill="#832626"/>
<path fill-rule="evenodd" clip-rule="evenodd" d="M186.826 222.631C186.817 222.565 186.814 222.499 186.815 222.433C186.867 218.916 200.273 216.264 216.757 216.51C233.241 216.756 246.561 219.806 246.509 223.322C246.502 223.758 246.291 224.18 245.895 224.585C242.057 250.666 233.605 301.381 228.378 309.516C223.039 317.823 194.68 320.744 182.719 321.976C179.685 322.288 177.706 322.492 177.426 322.648C176.063 323.405 181.752 235.257 186.826 222.631Z" fill="#832626"/>
<path fill-rule="evenodd" clip-rule="evenodd" d="M119.539 266C99.2905 267.39 82.1438 267.558 61 266.169C61.3844 268.339 61.7728 270.48 62.1635 272.576C82.0776 273.777 99.056 273.758 120 272.394C119.852 270.269 119.699 268.133 119.539 266Z" fill="#D9D9D9"/>
<path fill-rule="evenodd" clip-rule="evenodd" d="M180.461 266C200.709 267.39 217.856 267.558 239 266.169C238.616 268.339 238.227 270.48 237.837 272.576C217.922 273.777 200.944 273.758 180 272.394C180.148 270.269 180.301 268.133 180.461 266Z" fill="#D9D9D9"/>
</g>
<defs>
<filter id="filter0_f_145_3610" x="90.0001" y="64.9998" width="122" height="122" filterUnits="userSpaceOnUse" color-interpolation-filters="sRGB">
<feFlood flood-opacity="0" result="BackgroundImageFix"/>
<feBlend mode="normal" in="SourceGraphic" in2="BackgroundImageFix" result="shape"/>
<feGaussianBlur stdDeviation="2" result="effect1_foregroundBlur_145_3610"/>
</filter>
<clipPath id="clip0_145_3610">
<rect x="2.57513" width="297.425" height="296.07" rx="24" fill="white"/>
</clipPath>
</defs>
</svg>
