<svg width="300" height="300" viewBox="0 0 300 300" fill="none" xmlns="http://www.w3.org/2000/svg">
<rect width="300" height="300" rx="24" fill="#292929"/>
<g clip-path="url(#clip0_178_2)">
<rect x="2.57507" width="297.425" height="296.07" rx="24" fill="#1B1D33"/>
<g clip-path="url(#clip1_178_2)">
<path d="M224.016 49.0427L223.694 40.9821C223.566 37.7578 214.632 38.7682 210.182 39.6765C210.104 103.121 209.393 230.191 207.167 230.918C204.941 231.644 201.512 238.751 200.077 242.214L198.112 285.724L196.147 329.235L144.749 395.82L173.059 409.444L216.735 339.043C221.665 331.096 222.835 321.379 219.934 312.489L229.674 309.31C230.44 294.362 231.352 263.035 228.868 257.313C226.385 251.592 223.32 253.681 222.099 255.44L223.909 60.5092L232.257 57.7845L232.872 50.2348L224.016 49.0427Z" fill="black"/>
<path d="M145.225 395.665L173.252 409.38L206.488 355.256C203.726 349.897 200.103 337.089 207.706 328.728L206.267 231.211C204.07 231.928 200.71 239.013 199.304 242.466L195.758 329.362L145.225 395.665Z" fill="#9B643A"/>
<rect x="133" y="196" width="41" height="60" fill="#FCB076"/>
<path d="M107.315 237.209C112.805 228.735 125.968 229.618 131.863 231.119C146.011 259.931 166.794 241.711 175.416 229L179.5 241.5L183.5 244.5C211.585 239.627 228.736 272.96 229 296H73C74.267 242.188 96.4044 234.385 107.315 237.209Z" fill="#30A0A1"/>
<path d="M107.315 237.209C112.805 228.735 125.968 229.618 131.863 231.119C134.398 236.282 137.147 239.935 140 242.38L141.5 296H73C74.267 242.188 96.4044 234.385 107.315 237.209Z" fill="#4A3329"/>
<path d="M110.5 267.5C112.833 277.167 114.1 292.5 106.5 310.5M204 259C201.667 268.667 198.9 292.5 206.5 310.5" stroke="#9A4F30"/>
<path d="M194.685 237.209C189.195 228.735 176.032 229.618 170.137 231.119C167.602 236.282 164.853 239.935 162 242.38L160.5 296H229C227.733 242.188 205.596 234.385 194.685 237.209Z" fill="#4A3329"/>
<path d="M90.4518 171.659C92.6543 161.41 98.5072 167.389 101.158 171.659C97.1816 171.659 98.0993 179.471 101.158 184.159C103.605 187.908 100.139 188.221 98.0993 187.908C94.6325 186.763 88.2494 181.909 90.4518 171.659Z" fill="#D6A15D"/>
<path d="M215.548 171.659C213.346 161.41 207.493 167.389 204.842 171.659C208.818 171.659 207.901 179.471 204.842 184.159C202.395 187.908 205.861 188.221 207.901 187.908C211.368 186.763 217.751 181.909 215.548 171.659Z" fill="#D6A15D"/>
<path d="M155.643 60H149.773C146.576 60 143.369 60.6541 140.7 62.4153C119.381 76.482 109.251 112.07 110.5 120C134.995 135.132 182.395 126.305 195.5 120C195.635 88.8349 176.329 70.3824 165.59 62.8682C162.69 60.839 159.182 60 155.643 60Z" fill="#284424"/>
<path d="M104.334 90.3344C101.62 86.6082 91.8849 82.698 87.3568 81.2087L88.9595 92.9833C90.2995 93.3532 92.077 94.809 92.7982 95.4907L89.9389 96.0685C93.2025 112.109 104.976 116.358 110.454 116.478C113.699 111.589 112.853 105.17 112.024 102.572C111.745 103.653 110.326 104.516 109.651 104.813L111.077 99.8491C110.888 98.1409 108.152 94.5396 106.807 92.9525L104.448 96.5176L104.334 90.3344Z" fill="#2BA3A1"/>
<path fill-rule="evenodd" clip-rule="evenodd" d="M92.4286 87.433C92.5625 87.3557 92.7356 87.403 92.8154 87.5385C95.8907 92.7614 100.69 100.781 105.092 107.863C107.293 111.404 109.394 114.71 111.129 117.314C112.873 119.929 114.23 121.808 114.95 122.523L114.556 122.92C113.786 122.156 112.395 120.221 110.662 117.621C108.921 115.01 106.817 111.698 104.614 108.155C100.209 101.067 95.4076 93.0438 92.3308 87.8183C92.251 87.6827 92.2948 87.5102 92.4286 87.433Z" fill="#9A4F30"/>
<path d="M93.218 100.985C89.5141 98.2399 79.0557 97.4162 74.2895 97.3475L79.3364 108.106C80.7257 108.059 82.8569 108.917 83.7488 109.352L81.1926 110.758C89.0988 125.09 101.604 125.629 106.868 124.107C108.504 118.471 105.779 112.599 104.212 110.367C104.269 111.482 103.172 112.729 102.617 113.214L102.495 108.051C101.804 106.478 98.117 103.858 96.3599 102.745L95.1733 106.852L93.218 100.985Z" fill="#A9C246"/>
<path fill-rule="evenodd" clip-rule="evenodd" d="M80.9891 101.773C81.0937 101.659 81.2731 101.652 81.3898 101.758C85.8848 105.824 92.8602 112.043 99.1768 117.487C102.335 120.209 105.328 122.736 107.762 124.703C110.207 126.678 112.064 128.066 112.964 128.533L112.707 129.029C111.744 128.53 109.838 127.099 107.408 125.136C104.966 123.163 101.969 120.632 98.8083 117.908C92.4871 112.46 85.5081 106.237 81.0108 102.169C80.8941 102.064 80.8844 101.886 80.9891 101.773Z" fill="#9A4F30"/>
<path d="M217 128.5C217 140.926 191.108 151 153 151C114.892 151 84 140.926 84 128.5C84 116.074 114.892 108.5 153 108.5C191.108 108.5 217 116.074 217 128.5Z" fill="#425D3E"/>
<path d="M204.644 167.816V143.12L194.179 130L143 143.12L99.9999 202.16C145.551 270.692 186.895 230.715 201.874 202.16C202.366 211.112 209.465 208.205 212.954 205.633C217.673 195.986 225.696 174.917 220.032 167.816C214.369 160.716 207.414 164.858 204.644 167.816Z" fill="#FCB076"/>
<path d="M100.337 167.816V143.12L110.801 130L204.98 202.16C159.429 270.692 118.085 230.715 103.107 202.16C102.614 211.112 95.5147 208.205 92.0266 205.633C87.3074 195.986 79.2847 174.917 84.9478 167.816C90.6109 160.716 97.5666 164.858 100.337 167.816Z" fill="#FCB076"/>
<path d="M141 171C141 176.523 136.299 181 130.5 181C124.701 181 120 176.523 120 171C120 165.477 124.701 161 130.5 161C136.299 161 141 165.477 141 171Z" fill="#461E03"/>
<ellipse cx="174.5" cy="170" rx="10.5" ry="10" fill="#461E03"/>
<path d="M168.5 216.5C151 240.5 140.5 219.5 140.5 216.5L155 212L168.5 216.5Z" fill="#0A0302"/>
<path d="M142.5 202C139.311 209.361 129.45 213.156 115.5 214.614C131.126 221.411 149.673 218.819 152.243 216.674C161.907 221.411 196 214.614 187.5 214.614C179 214.614 173.157 212.559 166 202C158.943 214.589 144.347 209.04 142.5 202Z" fill="#544216"/>
<path d="M87.5392 167.897L87.5 168C94.3 165.6 98 169 99 171C99.6667 178 100.4 187.2 102 168C103.6 148.8 115.667 147.667 123.5 146C129.833 148.333 134.1 161.5 144.5 159.5C154.9 157.5 155.5 149 191 157.5C188.128 152.663 180 138.5 193 146C206 153.5 203.5 168.167 201.5 174.5L209.5 168C212.3 162.8 207 138.833 201.5 130.5C183.1 122.1 172.833 131 166.5 133.5C166.9 129.1 175.667 125.333 181.5 126C158.5 116.5 119.5 123.5 109 129C100.63 133.384 91.2335 158.157 87.5392 167.897Z" fill="#976439"/>
<path d="M144.5 224C145.082 221.173 147.264 216.704 152.124 220.535C153.097 218.458 155.973 217.828 162.802 223.063C155.561 230.531 148 228 144.5 224Z" fill="#FE413D"/>
<path d="M210.111 216H220.111C194.802 274.487 197.787 304.163 220.111 354H210.111C180.967 300.108 188.575 269.892 210.111 216Z" fill="#9B643A"/>
<path d="M95 173.5C96.6 174.3 97 179.167 97 181.5C93.4 181.5 95.5 186.833 97 189.5C98.5 191.333 101.2 196.4 100 202C98.8 207.6 94.5 204.333 92.5 202C78.5 164 93 172.5 95 173.5Z" fill="#F89149"/>
<path d="M209.925 169.744C208.325 170.544 207.925 175.411 207.925 177.744C211.525 177.744 209.425 183.078 207.925 185.744C206.425 187.578 203.725 192.644 204.925 198.244C206.125 203.844 210.425 200.578 212.425 198.244C226.425 160.244 211.925 168.744 209.925 169.744Z" fill="#F89149"/>
<path d="M142.74 191.707C142.909 184.47 144.412 173.922 151.65 174C153.9 174.025 155.725 175.975 157.838 178.902C161.025 183.318 163.158 188.43 164.274 193.76L166 202C165 210 142.5 214.5 142.5 202L142.74 191.707Z" fill="#FC9574"/>
</g>
</g>
<defs>
<clipPath id="clip0_178_2">
<rect x="2.57507" width="297.425" height="296.07" rx="24" fill="white"/>
</clipPath>
<clipPath id="clip1_178_2">
<rect x="5.57507" width="297.425" height="296.07" rx="24" fill="white"/>
</clipPath>
</defs>
</svg>
