<svg width="300" height="300" viewBox="0 0 300 300" fill="none" xmlns="http://www.w3.org/2000/svg">
<rect width="300" height="300" rx="24" fill="#292929"/>
<g clip-path="url(#clip0_166_2754)">
<rect x="2.57513" width="297.425" height="296.07" rx="24" fill="#1B1D33"/>
<path d="M22.581 186.381C27.4497 187.61 28.4246 183.487 28.3035 181.271C33.1722 182.5 33.8293 178.66 33.5492 176.587C30.8316 172.392 23.2924 171.66 19.8625 171.819C18.2955 181.582 21.0219 185.595 22.581 186.381Z" fill="#BF245F"/>
<path d="M26.5027 213.834C31.3714 215.062 32.3463 210.939 32.2252 208.723C37.0939 209.952 37.751 206.113 37.4709 204.039C34.7533 199.844 27.214 199.112 23.7841 199.271C22.2172 209.035 24.9436 213.048 26.5027 213.834Z" fill="#BF245F"/>
<path d="M30.6673 208.261L110.082 293.558" stroke="#8F5C6D" stroke-width="2" stroke-linecap="round"/>
<path d="M23.8043 178.848L103.219 264.146" stroke="#8F5C6D" stroke-width="2" stroke-linecap="round"/>
<path d="M44.1505 192.264C49.0191 193.493 49.9941 189.369 49.873 187.154C54.7417 188.383 55.3987 184.543 55.1187 182.47C52.401 178.275 44.8618 177.543 41.4319 177.701C39.865 187.465 42.5914 191.478 44.1505 192.264Z" fill="#BF245F"/>
<path d="M49.2955 186.692L128.71 271.989" stroke="#8F5C6D" stroke-width="2" stroke-linecap="round"/>
<rect x="74.3281" y="198.457" width="207.851" height="45.0998" transform="rotate(50.5736 74.3281 198.457)" fill="#BE1D61"/>
<path fill-rule="evenodd" clip-rule="evenodd" d="M145.079 158.716L90.4268 163.685V217.573C86.0575 214.498 76.348 210.193 72.4641 217.573C67.6094 226.797 78.2899 247.187 94.7961 243.303C101.593 253.013 118.196 272.237 130.236 271.461V280.685C120.203 281.494 99.0683 285.928 94.7961 297.191L145.079 294.497V303.017L205.278 302.531C201.006 291.268 174.046 281.494 164.012 280.685V271.461C176.052 272.237 192.656 253.013 199.452 243.303C215.958 247.187 226.639 226.797 221.784 217.573C217.9 210.193 208.191 214.498 203.822 217.573V163.685L149.17 158.716V158.344L147.124 158.53L145.079 158.344V158.716Z" fill="#FCB076"/>
<path d="M90.4268 163.685L149.17 158.344V303.017L88.9704 302.531C93.2426 291.268 120.203 281.494 130.236 280.685V271.461C118.196 272.237 101.593 253.013 94.7961 243.303C78.2899 247.187 67.6094 226.797 72.4642 217.573C76.348 210.193 86.0575 214.498 90.4268 217.573V163.685Z" fill="#FCB076"/>
<ellipse cx="147.506" cy="222.427" rx="7.28216" ry="15.5353" fill="#F48172"/>
<path d="M129.3 194.336C125.651 188.94 121.145 192.088 119.348 194.336C115.699 188.94 111.745 192.088 110.225 194.336C109.229 200.743 115.892 207.966 119.348 210.776C129.3 202.682 130.13 196.444 129.3 194.336Z" fill="#BF245F"/>
<path d="M185.604 194.485C181.772 188.819 177.04 192.124 175.153 194.485C171.322 188.819 167.171 192.124 165.574 194.485C164.529 201.213 171.525 208.796 175.153 211.747C185.604 203.249 186.474 196.698 185.604 194.485Z" fill="#BF245F"/>
<path d="M78.5685 221.942C81.036 221.766 84.9625 221.925 88.278 223.048M94.1038 228.253C93.3962 225.6 91.0508 223.987 88.278 223.048M88.278 223.048C86.4979 225.269 83.132 231.166 83.9087 236.992" stroke="#D47E83" stroke-width="2" stroke-linecap="round"/>
<path d="M216.93 222.474C215.079 222.339 212.134 222.462 209.647 223.327M205.278 227.341C205.809 225.295 207.568 224.052 209.647 223.327M209.647 223.327C210.982 225.04 213.507 229.587 212.924 234.079" stroke="#D47E83" stroke-width="2" stroke-linecap="round"/>
<path d="M123.718 246.701C132.375 252.563 154.981 260.769 176.149 246.701" stroke="#D47E83" stroke-width="2" stroke-linecap="round"/>
<path d="M234.678 181.184C239.51 187.784 225.325 211.91 221.299 215.631C206.32 210.196 206.292 218.064 204.48 230.195C199.648 224.372 201.259 209.478 204.48 202.037C198.682 198.932 202.467 184.743 203.272 178.758C196.024 178.37 189.783 170.508 187.569 166.626C160.511 182.931 124.756 169.214 110.261 160.318C115.576 170.8 98.7852 179.243 89.7257 182.155C96.9733 187.201 95.1614 196.551 90.9336 200.595C100.597 209.135 93.3495 215.795 90.9336 221.456C89.7257 214.825 83.8396 208.277 71.0027 200.595C64.7041 196.825 64.3745 185.824 68.7295 181.593C68.4899 181.462 68.2411 181.326 67.9828 181.184C57.353 175.362 65.5669 165.494 71.0027 161.289C38.1468 157.018 46.0386 132.011 54.0915 120.042C72.4522 101.02 108.098 112.116 123.626 120.042C124.425 112.405 131.765 107.23 137.439 104.999C199.692 95.3804 210.53 122.782 208.17 138.072C209.496 138.203 210.882 138.339 212.331 138.482C263.548 143.529 248.57 169.053 234.678 181.184Z" fill="#FBB329"/>
<path d="M133.212 138.482C125.475 131.334 123.094 125.139 123.626 120.042M123.626 120.042C124.425 112.405 131.765 107.23 137.439 104.999C200.252 95.2939 210.721 123.277 208.104 138.482C188.173 136.379 161.115 133.435 212.331 138.482C263.548 143.529 248.57 169.053 234.678 181.184C239.51 187.784 225.325 211.91 221.299 215.631C206.32 210.196 206.292 218.064 204.48 230.195C199.648 224.372 201.259 209.478 204.48 202.037C198.682 198.932 202.467 184.743 203.272 178.758C196.024 178.37 189.783 170.508 187.569 166.626C160.511 182.931 124.756 169.214 110.261 160.318C115.576 170.8 98.7852 179.243 89.7257 182.155C96.9733 187.201 95.1614 196.551 90.9336 200.595C100.597 209.135 93.3495 215.795 90.9336 221.456C89.7257 214.825 83.8396 208.277 71.0027 200.595C64.4896 196.697 64.359 185.067 69.1908 181.184C73.2172 183.611 78.6127 187.007 67.9828 181.184C57.353 175.362 65.5669 165.494 71.0027 161.289C38.1468 157.018 46.0386 132.011 54.0915 120.042C72.4522 101.02 108.098 112.116 123.626 120.042Z" stroke="#F69B29" stroke-width="2" stroke-linecap="round"/>
<rect x="90.7054" y="270.626" width="10.6805" height="100.008" transform="rotate(-43.9957 90.7054 270.626)" fill="#8F5C6D"/>
</g>
<defs>
<clipPath id="clip0_166_2754">
<rect x="2.57513" width="297.425" height="296.07" rx="24" fill="white"/>
</clipPath>
</defs>
</svg>
