<svg width="300" height="300" viewBox="0 0 300 300" fill="none" xmlns="http://www.w3.org/2000/svg">
<rect width="300" height="300" rx="24" fill="#292929"/>
<rect x="2.5752" width="297.425" height="296.07" rx="24" fill="#1B1D33"/>
<path d="M150.018 33C171.216 33 188.346 39.0037 201.408 51.0112C214.469 63.0187 221 79.1002 221 99.2556C221 121.77 214.041 138.494 200.123 149.43C186.205 160.151 167.362 165.511 143.595 165.511L142.631 196.066H117.257L115.973 145.249H125.287C146.485 145.249 163.08 142.032 175.071 135.6C187.061 129.167 193.057 117.052 193.057 99.2556C193.057 86.3905 189.203 76.2055 181.494 68.7008C173.786 61.1962 163.401 57.4438 150.339 57.4438C137.064 57.4438 126.572 61.0889 118.863 68.3792C111.369 75.4551 107.622 85.2111 107.622 97.6475H80C80 84.7823 82.8907 73.5253 88.672 63.8764C94.4533 54.0131 102.59 46.4012 113.082 41.0407C123.788 35.6802 136.1 33 150.018 33ZM129.784 262C124.216 262 119.506 260.07 115.651 256.211C111.797 252.351 109.87 247.634 109.87 242.059C109.87 236.484 111.797 231.767 115.651 227.907C119.506 224.048 124.216 222.118 129.784 222.118C135.137 222.118 139.633 224.048 143.273 227.907C147.128 231.767 149.055 236.484 149.055 242.059C149.055 247.634 147.128 252.351 143.273 256.211C139.633 260.07 135.137 262 129.784 262Z" fill="#EEE6E4"/>
</svg>
